<?xml version="1.0" encoding="UTF-8" standalone="no"?>
<!-- Created with Inkscape (http://www.inkscape.org/) -->

<svg
   xmlns:dc="http://purl.org/dc/elements/1.1/"
   xmlns:cc="http://creativecommons.org/ns#"
   xmlns:rdf="http://www.w3.org/1999/02/22-rdf-syntax-ns#"
   xmlns:svg="http://www.w3.org/2000/svg"
   xmlns="http://www.w3.org/2000/svg"
   xmlns:xlink="http://www.w3.org/1999/xlink"
   xmlns:sodipodi="http://sodipodi.sourceforge.net/DTD/sodipodi-0.dtd"
   xmlns:inkscape="http://www.inkscape.org/namespaces/inkscape"
   width="135px"
   height="190px"
   viewBox="0 0 479.73062 674.58521"
   id="svg5039"
   version="1.1"
   inkscape:version="0.91 r13725"
   sodipodi:docname="four.svg">
  <defs
     id="defs5041">
    <filter
       inkscape:collect="always"
       style="color-interpolation-filters:sRGB"
       id="filter4783"
       x="-0.024947442"
       width="1.0498949"
       y="-0.14612073"
       height="1.2922415">
      <feGaussianBlur
         inkscape:collect="always"
         stdDeviation="5.0046946"
         id="feGaussianBlur4785" />
    </filter>
    <linearGradient
       inkscape:collect="always"
       xlink:href="#linearGradient4559"
       id="linearGradient4413"
       x1="770.4267"
       y1="974.18109"
       x2="790.98999"
       y2="824.27441"
       gradientUnits="userSpaceOnUse" />
    <linearGradient
       id="linearGradient4559"
       inkscape:collect="always">
      <stop
         id="stop4561"
         offset="0"
         style="stop-color:#00004c;stop-opacity:1" />
      <stop
         id="stop4563"
         offset="1"
         style="stop-color:#7878ff;stop-opacity:1" />
    </linearGradient>
    <filter
       inkscape:collect="always"
       style="color-interpolation-filters:sRGB"
       id="filter4991"
       x="-0.082178339"
       width="1.1643567"
       y="-0.58131677"
       height="2.1626337">
      <feGaussianBlur
         inkscape:collect="always"
         stdDeviation="0.36139413"
         id="feGaussianBlur4993" />
    </filter>
    <radialGradient
       inkscape:collect="always"
       xlink:href="#linearGradient4322"
       id="radialGradient4305"
       gradientUnits="userSpaceOnUse"
       gradientTransform="matrix(1.9088868,0,0,7.7938452,-3406.1619,-5179.9953)"
       cx="1202.2484"
       cy="759.0351"
       fx="1202.2484"
       fy="759.0351"
       r="9.0514593" />
    <linearGradient
       inkscape:collect="always"
       id="linearGradient4322">
      <stop
         style="stop-color:#0000ff;stop-opacity:1"
         offset="0"
         id="stop4324" />
      <stop
         style="stop-color:#ffff00;stop-opacity:1"
         offset="1"
         id="stop4326" />
    </linearGradient>
  </defs>
  <sodipodi:namedview
     id="base"
     pagecolor="#ffffff"
     bordercolor="#666666"
     borderopacity="1.0"
     inkscape:pageopacity="0.0"
     inkscape:pageshadow="2"
     inkscape:zoom="0.35"
     inkscape:cx="-40.073873"
     inkscape:cy="297.70486"
     inkscape:document-units="px"
     inkscape:current-layer="layer1"
     showgrid="false"
     fit-margin-top="0"
     fit-margin-left="0"
     fit-margin-right="0"
     fit-margin-bottom="0"
     showborder="false"
     inkscape:window-width="1366"
     inkscape:window-height="715"
     inkscape:window-x="0"
     inkscape:window-y="0"
     inkscape:window-maximized="1" />
  <metadata
     id="metadata5044">
    <rdf:RDF>
      <cc:Work
         rdf:about="">
        <dc:format>image/svg+xml</dc:format>
        <dc:type
           rdf:resource="http://purl.org/dc/dcmitype/StillImage" />
        <dc:title></dc:title>
      </cc:Work>
    </rdf:RDF>
  </metadata>
  <g
     inkscape:label="Calque 1"
     inkscape:groupmode="layer"
     id="layer1"
     transform="translate(276.3547,-95.481901)">
    <g
       transform="translate(-716.35464,-499.955)"
       style="opacity:1"
       id="g4661">
      <rect
         style="color:#000000;clip-rule:nonzero;display:inline;overflow:visible;visibility:visible;opacity:1;isolation:auto;mix-blend-mode:normal;color-interpolation:sRGB;color-interpolation-filters:linearRGB;solid-color:#000000;solid-opacity:1;fill:#000000;fill-opacity:1;fill-rule:evenodd;stroke:none;stroke-width:10;stroke-linecap:butt;stroke-linejoin:miter;stroke-miterlimit:4;stroke-dasharray:none;stroke-dashoffset:0;stroke-opacity:1;filter:url(#filter4783);color-rendering:auto;image-rendering:auto;shape-rendering:auto;text-rendering:auto;enable-background:accumulate"
         id="rect4791"
         width="221"
         height="82.200981"
         x="-2966.0459"
         y="2035.1537"
         transform="matrix(1.5540649,0,0.91220013,0.59609998,3234.734,0.70710684)" />
      <path
         inkscape:connector-curvature="0"
         id="path4789"
         d="m 913.7497,1073.494 -63.1003,-50.1156 -47.37616,94.7523 82.7315,0.7072 z"
         style="fill:#00004c;fill-opacity:1;fill-rule:evenodd;stroke:none;stroke-width:1px;stroke-linecap:butt;stroke-linejoin:miter;stroke-opacity:1" />
      <path
         id="path4284"
         d="m 677.40619,739.34766 -237.40625,282.19924 0,107.1836 237.40625,0 0,87.6679 63.88867,45.8692 35.84961,-45.8692 13.8457,0 0,-17.7168 9.00977,-11.5273 -9.00977,-5.3008 0,-53.123 58.8711,0 0,-101.1055 -58.8711,0 0,-288.27734 -113.58398,0 z m 0,140.77929 0,147.49805 -125.42187,0 125.42187,-147.49805 z"
         style="font-style:normal;font-variant:normal;font-weight:normal;font-stretch:normal;font-size:medium;line-height:125%;font-family:'Arial Black';-inkscape-font-specification:'Arial Black, Normal';text-align:center;letter-spacing:13.16998672px;word-spacing:0px;writing-mode:lr-tb;text-anchor:middle;fill:#00004c;fill-opacity:1;stroke:none;stroke-width:1px;stroke-linecap:butt;stroke-linejoin:miter;stroke-opacity:1"
         inkscape:connector-curvature="0" />
      <path
         inkscape:connector-curvature="0"
         id="path5020"
         style="font-style:normal;font-variant:normal;font-weight:normal;font-stretch:normal;font-size:medium;line-height:125%;font-family:'Arial Black';-inkscape-font-specification:'Arial Black, Normal';text-align:center;letter-spacing:13.16998672px;word-spacing:0px;writing-mode:lr-tb;text-anchor:middle;fill:#0000ff;fill-opacity:1;stroke:none;stroke-width:1px;stroke-linecap:butt;stroke-linejoin:miter;stroke-opacity:1"
         d="m 741.29466,1174.5994 -237.40558,0 0,-107.1845 237.40558,-282.1992 113.58365,0 0,288.2783 58.87139,0 0,101.1054 -58.87139,0 0,87.6673 -113.58365,0 0,-87.6673 z m 0,-101.1054 0,-147.49865 -125.42181,147.49865 125.42181,0 z" />
      <path
         inkscape:connector-curvature="0"
         id="path4405"
         d="m 854.87831,785.2157 -63.88835,-45.86857 -113.58366,0 -237.40557,282.19927 0,107.1844 63.88835,45.8686 0,-107.1845 237.40558,-282.1992 z"
         style="fill:url(#linearGradient4413);fill-opacity:1;fill-rule:evenodd;stroke:none;stroke-width:1px;stroke-linecap:butt;stroke-linejoin:miter;stroke-opacity:1" />
      <path
         style="font-style:normal;font-variant:normal;font-weight:normal;font-stretch:normal;font-size:medium;line-height:125%;font-family:'Arial Black';-inkscape-font-specification:'Arial Black, Normal';text-align:center;letter-spacing:13.16998672px;word-spacing:0px;writing-mode:lr-tb;text-anchor:middle;fill:none;fill-opacity:1;stroke:#000000;stroke-width:10;stroke-linecap:butt;stroke-linejoin:miter;stroke-opacity:1"
         d="m 517.88867,1077.9883 c 0,27.5371 0,55.0742 0,82.6113 79.13542,0 158.27084,0 237.40625,0 0,29.2227 0,58.4453 0,87.668 25.86133,0 51.72266,0 77.58399,0 0,-29.2227 0,-58.4453 0,-87.668 19.62369,0 39.24739,0 58.87109,0 0,-21.7018 0,-43.4036 0,-65.1055 -19.6237,0 -39.2474,0 -58.87109,0 0,-96.09306 0,-192.18616 0,-288.27926 -29.06641,0 -58.13282,0 -87.19922,0 -75.93034,90.25782 -151.86068,180.51563 -227.79102,270.77346 z M 755.29492,886.48047 c 0,69.67122 0,139.34243 0,209.01363 -60.78581,0 -121.57161,0 -182.35742,0 60.78675,-71.4835 121.57237,-142.96807 182.35742,-214.45308 0,1.81315 0,3.6263 0,5.43945 z"
         id="path4439"
         inkscape:connector-curvature="0" />
      <path
         inkscape:connector-curvature="0"
         id="path4419"
         d="m 521.88867,1073.9883 c 0,27.5371 0,55.0742 0,82.6113 79.13542,0 158.27084,0 237.40625,0 0,29.2227 0,58.4453 0,87.668 25.86133,0 51.72266,0 77.58399,0 0,-29.2227 0,-58.4453 0,-87.668 19.62369,0 39.24739,0 58.87109,0 0,-21.7018 0,-43.4036 0,-65.1055 -19.6237,0 -39.2474,0 -58.87109,0 0,-96.09306 0,-192.18616 0,-288.27926 -29.06641,0 -58.13282,0 -87.19922,0 -75.93034,90.25782 -151.86068,180.51563 -227.79102,270.77346 z M 759.29492,882.48047 c 0,69.67122 0,139.34243 0,209.01363 -60.78581,0 -121.57161,0 -182.35742,0 60.78675,-71.4835 121.57237,-142.96807 182.35742,-214.45308 0,1.81315 0,3.6263 0,5.43945 z"
         style="font-style:normal;font-variant:normal;font-weight:normal;font-stretch:normal;font-size:medium;line-height:125%;font-family:'Arial Black';-inkscape-font-specification:'Arial Black, Normal';text-align:center;letter-spacing:13.16998672px;word-spacing:0px;writing-mode:lr-tb;text-anchor:middle;fill:none;fill-opacity:1;stroke:#ffffff;stroke-width:10;stroke-linecap:butt;stroke-linejoin:miter;stroke-opacity:1" />
      <path
         sodipodi:nodetypes="cscsc"
         inkscape:connector-curvature="0"
         id="path4297"
         d="m 714.96385,928.30851 c 2e-5,0.26849 -0.71435,0.67568 -3.6311,0.67568 -2.91674,0 -3.94899,-0.69728 -3.94897,-0.96577 4e-5,-0.26848 0.24434,-1.31478 3.16104,-1.31478 2.9167,-10e-6 4.41899,1.33639 4.41903,1.60487 z"
         style="color:#000000;clip-rule:nonzero;display:inline;overflow:visible;visibility:visible;opacity:0.731;isolation:auto;mix-blend-mode:normal;color-interpolation:sRGB;color-interpolation-filters:linearRGB;solid-color:#000000;solid-opacity:1;fill:#ffeeaa;fill-opacity:1;fill-rule:evenodd;stroke:none;stroke-width:1px;stroke-linecap:butt;stroke-linejoin:miter;stroke-miterlimit:4;stroke-dasharray:none;stroke-dashoffset:0;stroke-opacity:1;filter:url(#filter4991);color-rendering:auto;image-rendering:auto;shape-rendering:auto;text-rendering:auto;enable-background:accumulate"
         transform="matrix(13.095319,-0.51144689,0.51144689,13.095319,-9025.2297,-11027.776)" />
      <g
         transform="translate(1868.1292,0.66903057)"
         id="g4299">
        <path
           style="display:inline;opacity:1;fill:url(#radialGradient4305);fill-opacity:1;fill-rule:evenodd;stroke:none;stroke-width:1px;stroke-linecap:butt;stroke-linejoin:miter;stroke-opacity:1"
           d="m -1121.9852,731.77044 c -7.0327,-45.36087 -4.757,-89.85114 14.1727,-137.00257 17.8209,11.81206 13.5628,84.44873 8.7736,137.00257 -3.1006,-9.28 -2.0396,-10.1802 -11.5359,-16.26225 -6.5419,-2.14323 -5.767,-0.4613 -11.4104,16.26225 z"
           id="path4301"
           inkscape:connector-curvature="0"
           sodipodi:nodetypes="ccccc" />
        <path
           style="display:inline;opacity:1;fill:#2e1a0d;fill-opacity:1;fill-rule:evenodd;stroke:none;stroke-width:1px;stroke-linecap:butt;stroke-linejoin:miter;stroke-opacity:1"
           d="m -1114.4231,756.91453 c 4.8885,-10.50888 6.7498,-17.99096 4.4161,-21.27777 -4.0465,-4.20654 -6.4442,1.48038 -9.2338,4.81765 -4.9445,-0.58319 -6.2894,-3.56871 -2.4088,-10.03671 6.2898,-9.05222 12.5794,-10.82222 18.8689,-12.847 2.2293,9.46624 4.8073,18.30747 0.8034,38.94241 z"
           id="path4303"
           inkscape:connector-curvature="0"
           sodipodi:nodetypes="ccccccc" />
      </g>
    </g>
  </g>
</svg>
