<?xml version="1.0" encoding="UTF-8" standalone="no"?>
<!-- Created with Inkscape (http://www.inkscape.org/) -->

<svg
   xmlns:dc="http://purl.org/dc/elements/1.1/"
   xmlns:cc="http://creativecommons.org/ns#"
   xmlns:rdf="http://www.w3.org/1999/02/22-rdf-syntax-ns#"
   xmlns:svg="http://www.w3.org/2000/svg"
   xmlns="http://www.w3.org/2000/svg"
   xmlns:xlink="http://www.w3.org/1999/xlink"
   xmlns:sodipodi="http://sodipodi.sourceforge.net/DTD/sodipodi-0.dtd"
   xmlns:inkscape="http://www.inkscape.org/namespaces/inkscape"
   width="127.11074mm"
   height="204.28163mm"
   viewBox="0 0 450.39239 723.83256"
   id="svg5039"
   version="1.1"
   inkscape:version="0.91 r13725"
   sodipodi:docname="six.svg">
  <defs
     id="defs5041">
    <filter
       inkscape:collect="always"
       style="color-interpolation-filters:sRGB"
       id="filter4761"
       x="-0.028602323"
       width="1.0572046"
       y="-0.48196471"
       height="1.9639294">
      <feGaussianBlur
         inkscape:collect="always"
         stdDeviation="4.3146444"
         id="feGaussianBlur4763" />
    </filter>
    <linearGradient
       inkscape:collect="always"
       xlink:href="#linearGradient4559"
       id="linearGradient4565"
       x1="1918.666"
       y1="957.49512"
       x2="1969.293"
       y2="810.18555"
       gradientUnits="userSpaceOnUse"
       gradientTransform="translate(-3040.0001,760)" />
    <linearGradient
       id="linearGradient4559"
       inkscape:collect="always">
      <stop
         id="stop4561"
         offset="0"
         style="stop-color:#00004c;stop-opacity:1" />
      <stop
         id="stop4563"
         offset="1"
         style="stop-color:#7878ff;stop-opacity:1" />
    </linearGradient>
    <filter
       inkscape:collect="always"
       style="color-interpolation-filters:sRGB"
       id="filter4991"
       x="-0.082178339"
       width="1.1643567"
       y="-0.58131677"
       height="2.1626337">
      <feGaussianBlur
         inkscape:collect="always"
         stdDeviation="0.36139413"
         id="feGaussianBlur4993" />
    </filter>
    <radialGradient
       inkscape:collect="always"
       xlink:href="#linearGradient4322"
       id="radialGradient4325"
       gradientUnits="userSpaceOnUse"
       gradientTransform="matrix(1.9088868,0,0,7.7938452,-3406.1619,-5179.9953)"
       cx="1202.2484"
       cy="759.0351"
       fx="1202.2484"
       fy="759.0351"
       r="9.0514593" />
    <linearGradient
       inkscape:collect="always"
       id="linearGradient4322">
      <stop
         style="stop-color:#0000ff;stop-opacity:1"
         offset="0"
         id="stop4324" />
      <stop
         style="stop-color:#ffff00;stop-opacity:1"
         offset="1"
         id="stop4326" />
    </linearGradient>
  </defs>
  <sodipodi:namedview
     id="base"
     pagecolor="#ffffff"
     bordercolor="#666666"
     borderopacity="1.0"
     inkscape:pageopacity="0.0"
     inkscape:pageshadow="2"
     inkscape:zoom="0.35"
     inkscape:cx="-411.86267"
     inkscape:cy="752.13328"
     inkscape:document-units="px"
     inkscape:current-layer="layer1"
     showgrid="false"
     fit-margin-top="0"
     fit-margin-left="0"
     fit-margin-right="0"
     fit-margin-bottom="0"
     showborder="false"
     inkscape:window-width="1366"
     inkscape:window-height="715"
     inkscape:window-x="0"
     inkscape:window-y="0"
     inkscape:window-maximized="1" />
  <metadata
     id="metadata5044">
    <rdf:RDF>
      <cc:Work
         rdf:about="">
        <dc:format>image/svg+xml</dc:format>
        <dc:type
           rdf:resource="http://purl.org/dc/dcmitype/StillImage" />
        <dc:title></dc:title>
      </cc:Work>
    </rdf:RDF>
  </metadata>
  <g
     inkscape:label="Calque 1"
     inkscape:groupmode="layer"
     id="layer1"
     transform="translate(-95.4341,-500.663)">
    <g
       transform="translate(1460.7682,-857.9333)"
       style="opacity:1"
       id="g6381">
      <ellipse
         transform="matrix(1.0913077,0,0,3.6481961,-1225.9575,-2636.0666)"
         style="color:#000000;clip-rule:nonzero;display:inline;overflow:visible;visibility:visible;opacity:1;isolation:auto;mix-blend-mode:normal;color-interpolation:sRGB;color-interpolation-filters:linearRGB;solid-color:#000000;solid-opacity:1;fill:#000000;fill-opacity:1;fill-rule:evenodd;stroke:none;stroke-width:10;stroke-linecap:butt;stroke-linejoin:miter;stroke-miterlimit:4;stroke-dasharray:none;stroke-dashoffset:0;stroke-opacity:1;filter:url(#filter4761);color-rendering:auto;image-rendering:auto;shape-rendering:auto;text-rendering:auto;enable-background:accumulate"
         id="ellipse4795"
         cx="93.338051"
         cy="1272.2799"
         rx="181.01933"
         ry="10.74264" />
      <path
         id="path4543"
         d="m -1128.2481,1663.4844 c -9.1458,0 -17.73,0.8426 -25.9532,2.2265 -0.7497,1.985 -1.4982,3.9823 -2.207,6.2872 -0.9266,3.0128 -1.8173,6.2979 -2.6738,9.8574 -0.8566,3.5594 -1.6783,7.3919 -2.4649,11.498 -1.5731,8.2122 -3.0057,17.5175 -4.2988,27.916 -0.01,0.061 -0.014,0.1286 -0.021,0.1895 l -32.1191,-3.1348 8.4843,55.5078 43.8418,-5.6562 4.6329,-36.1953 c 2.4825,-1.6717 4.9736,-3.2567 7.4765,-4.7305 4.0528,-2.3863 8.1322,-4.5125 12.2383,-6.3789 4.1061,-1.9197 8.3728,-3.6012 12.7988,-5.041 4.4261,-1.4398 9.0119,-2.6378 13.7578,-3.5977 4.2825,-0.8661 8.7014,-1.5265 13.2442,-2.0019 l -18.1875,16.9336 73.8926,26.5156 47.0527,-17.3301 -57.127,-40.6074 c -5.4403,-4.4808 -11.0844,-8.4901 -16.9316,-12.0371 l -0.1191,-0.084 -0.01,0.01 c -22.1797,-13.4222 -47.2795,-20.1446 -75.3085,-20.1445 z m 27.4121,126.4961 c -2.0518,0 -4.0552,0.113 -6.0332,0.2851 3.0193,10.1168 4.5351,21.8175 4.5351,35.1153 0,25.8096 -5.7576,45.219 -17.2754,58.2304 -10.8459,12.2514 -24.1831,18.6594 -39.9453,19.375 0.689,2.0329 1.4034,4.0438 2.2285,5.961 0.9999,2.323 2.0991,4.5618 3.2989,6.7148 1.1998,2.153 2.4986,4.222 3.8984,6.2051 1.3998,1.983 2.9003,3.8803 4.5,5.6933 1.5998,1.7864 3.2438,3.4604 4.9336,5.0235 1.6898,1.5631 3.4253,3.0157 5.2051,4.3555 1.7797,1.3398 3.6048,2.567 5.4746,3.6835 1.8697,1.1165 3.7844,2.1225 5.7441,3.0157 1.9597,0.8932 3.964,1.6738 6.0137,2.3437 2.0497,0.6699 4.1455,1.2292 6.2851,1.6758 2.1397,0.4466 4.3231,0.7806 6.5528,1.0039 2.2296,0.2233 4.5046,0.3359 6.8242,0.3359 2.133,0 4.2232,-0.1033 6.2695,-0.3066 2.0464,-0.2033 4.0501,-0.5074 6.0098,-0.9141 1.9597,-0.4066 3.875,-0.9154 5.748,-1.5253 1.8731,-0.61 3.7039,-1.3216 5.4903,-2.1348 1.7864,-0.8132 3.5287,-1.7276 5.2285,-2.7442 1.6998,-1.0165 3.3556,-2.1336 4.9687,-3.3535 1.6132,-1.2198 3.1825,-2.5417 4.709,-3.9648 1.5265,-1.4231 3.0114,-2.9478 4.4512,-4.5742 1.4397,-1.6265 2.7891,-3.3533 4.0488,-5.1797 1.2598,-1.8264 2.43,-3.7529 3.5098,-5.7793 1.0798,-2.0264 2.0689,-4.1526 2.9687,-6.3789 0.8999,-2.2264 1.7099,-4.5522 2.4297,-6.9785 0.7199,-2.4263 1.3488,-4.9538 1.8887,-7.5801 0.5399,-2.6263 0.9897,-5.3512 1.3496,-8.1778 0.3599,-2.8259 0.6306,-5.753 0.8106,-8.7792 0.1799,-3.0263 0.2695,-6.1528 0.2695,-9.379 0,-3.3061 -0.093,-6.5134 -0.2793,-9.623 -0.1867,-3.1096 -0.4666,-6.1203 -0.8399,-9.0332 -0.3732,-2.9129 -0.8404,-5.7271 -1.4003,-8.4434 -0.56,-2.7162 -1.2125,-5.3358 -1.959,-7.8554 -0.7466,-2.5197 -1.5863,-4.9407 -2.5196,-7.2637 -0.9332,-2.323 -1.9602,-4.5475 -3.08,-6.6738 -1.1199,-2.1264 -2.3322,-4.1543 -3.6387,-6.084 -1.3065,-1.9297 -2.708,-3.7611 -4.2012,-5.4942 -1.493,-1.733 -3.0302,-3.3585 -4.6133,-4.875 -1.583,-1.5164 -3.2117,-2.9228 -4.8847,-4.2226 -1.673,-1.2998 -3.3893,-2.493 -5.1524,-3.5762 -1.763,-1.0832 -3.5727,-2.0573 -5.4258,-2.9238 -1.853,-0.8666 -3.7503,-1.6255 -5.6933,-2.2754 -1.9431,-0.6499 -3.9318,-1.1917 -5.9649,-1.625 -2.033,-0.4333 -4.1093,-0.758 -6.2324,-0.9746 -2.123,-0.2166 -4.2928,-0.3242 -6.5058,-0.3242 z"
         style="font-style:normal;font-variant:normal;font-weight:normal;font-stretch:normal;font-size:medium;line-height:125%;font-family:'Arial Black';-inkscape-font-specification:'Arial Black, Normal';text-align:center;letter-spacing:13.16998672px;word-spacing:0px;writing-mode:lr-tb;text-anchor:middle;fill:#00004c;fill-opacity:1;stroke:none;stroke-width:1px;stroke-linecap:butt;stroke-linejoin:miter;stroke-opacity:1"
         inkscape:connector-curvature="0" />
      <path
         id="path4539"
         d="m -1163.7638,1499.3477 c -63.137,0 -112.5167,19.7303 -148.1386,59.1914 -35.6212,39.2476 -53.4317,101.2114 -53.4317,185.8925 0,57.805 8.4246,104.3051 25.2754,139.5 11.437,23.4462 25.4178,42.621 41.9336,57.5391 l -0.01,0.01 0.07,0.051 c 7.5981,6.8554 15.7319,12.8115 24.4043,17.8633 l 54.996,40.252 35.877,-45.8516 -74.2461,-58.6894 -23.0332,25.9882 c -0.692,-1.6528 -1.3727,-3.3197 -2.0313,-5.0175 -1.8427,-4.7527 -3.555,-9.6812 -5.1347,-14.7871 -1.5798,-5.106 -3.0273,-10.3885 -4.3438,-15.8477 -1.3164,-5.4592 -2.5015,-11.0957 -3.5547,-16.9082 -1.0531,-5.8125 -1.9737,-11.801 -2.7636,-17.9668 -0.7899,-6.1658 -1.448,-12.5083 -1.9746,-19.0273 -0.5266,-6.5191 -0.9223,-13.2156 -1.1856,-20.0879 -0.2633,-6.8724 -0.3945,-13.9209 -0.3945,-21.1465 0,-10.5852 0.2774,-20.8162 0.834,-30.6914 0.5566,-9.8753 1.3927,-19.3952 2.5058,-28.5606 1.1132,-9.1653 2.5041,-17.9762 4.1739,-26.4316 0.8348,-4.2277 1.7388,-8.3658 2.7128,-12.416 0.9744,-4.0503 2.0178,-8.012 3.1309,-11.8848 1.1132,-3.8728 2.2965,-7.6563 3.5488,-11.3516 1.2523,-3.6953 2.5734,-7.3024 3.9649,-10.8203 1.3914,-3.5178 2.8522,-6.9467 4.3828,-10.2871 1.5306,-3.3403 3.131,-6.593 4.8008,-9.7558 1.6697,-3.1629 3.4098,-6.2353 5.2187,-9.2207 1.8089,-2.9854 3.6868,-5.8835 5.6348,-8.6915 1.948,-2.8079 3.9656,-5.5258 6.0527,-8.1562 2.0872,-2.6305 4.2444,-5.172 6.4707,-7.625 2.2264,-2.4663 4.506,-4.8558 6.8399,-7.168 2.3338,-2.3121 4.7207,-4.547 7.1621,-6.705 2.4413,-2.1581 4.9375,-4.2403 7.4863,-6.2442 2.5488,-2.0039 5.1505,-3.9296 7.8066,-5.7793 2.6566,-1.8497 5.3671,-3.6228 8.1309,-5.3183 2.7638,-1.6956 5.5819,-3.3141 8.4531,-4.8555 2.8713,-1.5415 5.7947,-3.0072 8.7735,-4.3945 2.9787,-1.3873 6.0114,-2.6966 9.0976,-3.9297 3.0862,-1.2332 6.2265,-2.3898 9.4199,-3.4688 3.194,-1.079 6.4411,-2.081 9.7422,-3.0058 3.3012,-0.9249 6.6558,-1.7723 10.0645,-2.543 3.4086,-0.7707 6.8725,-1.4635 10.3887,-2.0801 7.0322,-1.2331 14.278,-2.1588 21.7402,-2.7754 7.4622,-0.6166 15.1411,-0.9258 23.0332,-0.9258 9.3321,0 18.1701,0.2738 26.5156,0.8204 4.4765,0.2931 8.7996,0.6722 12.9922,1.123 l -10.3398,23.0273 49.1425,35.3555 41.754,-30.0019 -58.9903,-42.1329 c -3.6466,-2.9154 -7.4711,-5.6386 -11.459,-8.1835 l -0.1972,-0.1407 -0.01,0.014 c -7.7006,-4.8952 -16.0248,-9.1134 -24.9941,-12.6308 -21.5434,-8.7455 -50.9784,-13.1172 -88.3067,-13.1172 z m 62.6094,125.8574 c -2.6396,0 -5.2062,0.1648 -7.6992,0.498 -2.493,0.3333 -4.9134,0.8335 -7.2598,1.5 -0.8315,0.2363 -1.6029,0.6087 -2.416,0.8867 0.058,0.2986 0.1425,0.5365 0.1992,0.8379 l 24.9434,-3.0781 c -2.4968,-0.3954 -5.0675,-0.6445 -7.7676,-0.6445 z"
         style="font-style:normal;font-variant:normal;font-weight:normal;font-stretch:normal;font-size:medium;line-height:125%;font-family:'Arial Black';-inkscape-font-specification:'Arial Black, Normal';text-align:center;letter-spacing:13.16998672px;word-spacing:0px;writing-mode:lr-tb;text-anchor:middle;fill:url(#linearGradient4565);fill-opacity:1;stroke:none;stroke-width:1px;stroke-linecap:butt;stroke-linejoin:miter;stroke-opacity:1"
         inkscape:connector-curvature="0" />
      <path
         id="path4537"
         d="m -1016.6231,1556.4961 c -1.1414,-0.4064 -2.2134,-0.852 -3.3946,-1.2363 -2.9395,-0.9566 -6.0013,-1.8462 -9.1875,-2.666 -3.1862,-0.8199 -6.4968,-1.5707 -9.9297,-2.254 -3.4328,-0.6832 -6.9885,-1.2971 -10.6679,-1.8437 -7.359,-1.0932 -15.2112,-1.9144 -23.5567,-2.4609 -8.3455,-0.5466 -17.1835,-0.8204 -26.5156,-0.8204 -7.8921,0 -15.571,0.3093 -23.0332,0.9258 -7.4622,0.6166 -14.708,1.5423 -21.7402,2.7754 -3.5162,0.6166 -6.9801,1.3094 -10.3887,2.0801 -3.4087,0.7707 -6.7633,1.6181 -10.0645,2.543 -3.3011,0.9248 -6.5485,1.9268 -9.7422,3.0058 -3.1936,1.079 -6.3337,2.2356 -9.4199,3.4688 -3.0862,1.2331 -6.1189,2.5424 -9.0976,3.9297 -2.9788,1.3873 -5.9022,2.853 -8.7735,4.3945 -2.8712,1.5414 -5.6893,3.1599 -8.4531,4.8555 -2.7638,1.6956 -5.4746,3.4686 -8.1309,5.3183 -2.6562,1.8497 -5.2578,3.7754 -7.8066,5.7793 -2.5488,2.0039 -5.045,4.0861 -7.4863,6.2442 -2.4414,2.158 -4.8283,4.3929 -7.1621,6.705 -2.3339,2.3122 -4.6135,4.7017 -6.8399,7.168 -2.2263,2.453 -4.3835,4.9946 -6.4707,7.625 -2.0871,2.6305 -4.1047,5.3483 -6.0527,8.1562 -1.948,2.808 -3.8259,5.7061 -5.6348,8.6915 -1.8089,2.9854 -3.549,6.0578 -5.2187,9.2207 -1.6698,3.1628 -3.2702,6.4155 -4.8008,9.7558 -1.5306,3.3404 -2.9914,6.7693 -4.3828,10.2871 -1.3915,3.5179 -2.7126,7.125 -3.9649,10.8203 -1.2523,3.6953 -2.4356,7.4788 -3.5488,11.3516 -1.1131,3.8728 -2.1568,7.8345 -3.1309,11.8848 -0.974,4.0502 -1.878,8.1883 -2.7128,12.416 -1.6698,8.4554 -3.0607,17.2663 -4.1739,26.4316 -1.1131,9.1654 -1.9492,18.6853 -2.5058,28.5606 -0.5566,9.8752 -0.834,20.1062 -0.834,30.6914 0,7.2256 0.1312,14.2741 0.3945,21.1465 0.2633,6.8723 0.659,13.5688 1.1856,20.0879 0.5266,6.519 1.1847,12.8615 1.9746,19.0273 0.7899,6.1658 1.7105,12.1543 2.7636,17.9668 1.0532,5.8125 2.2383,11.449 3.5547,16.9082 1.3165,5.4592 2.764,10.7417 4.3438,15.8477 1.5797,5.1059 3.2917,10.0344 5.1347,14.7871 1.8431,4.7526 3.8175,9.3291 5.9239,13.7285 2.133,4.3727 4.3544,8.5958 6.664,12.6719 2.3097,4.076 4.7071,8.0037 7.1934,11.7832 2.4863,3.7794 5.0617,7.4117 7.7246,10.8945 1.3736,1.7965 2.8372,3.4425 4.2578,5.1601 25.0399,9.3639 55.464,14.086 91.3653,14.086 39.0346,0 71.456,-6.5043 97.2656,-19.5156 26.0227,-13.2249 46.2861,-32.6363 60.791,-58.2325 14.7181,-25.5963 22.0781,-53.8582 22.0781,-84.7871 0,-41.0958 -11.7434,-75.7174 -35.039,-103.9668 -2.0716,-0.739 -4.0889,-1.603 -6.2032,-2.2441 -4.616,-1.3998 -9.333,-2.5649 -14.1523,-3.4981 -4.8193,-0.9331 -9.741,-1.633 -14.7637,-2.0996 -5.0226,-0.4666 -10.1471,-0.7011 -15.373,-0.7011 -5.3859,0 -10.6119,0.2407 -15.6778,0.7207 -5.0659,0.4799 -9.9708,1.2003 -14.7168,2.1601 -4.7459,0.9599 -9.3317,2.1579 -13.7578,3.5977 -4.426,1.4398 -8.6927,3.1213 -12.7988,5.041 -4.1061,1.8664 -8.1855,3.9926 -12.2383,6.3789 -4.0527,2.3863 -8.0787,5.0313 -12.0781,7.9375 -3.9483,2.8691 -7.8693,6.003 -11.7656,9.3789 14.4989,1.6845 26.8907,8.4393 37.1445,20.3418 5.9395,6.894 10.3947,15.3518 13.3809,25.3574 1.978,-0.1721 3.9814,-0.2851 6.0332,-0.2851 2.213,0 4.3828,0.1076 6.5058,0.3242 2.1231,0.2166 4.1994,0.5413 6.2324,0.9746 2.0331,0.4333 4.0218,0.9751 5.9649,1.625 1.943,0.6499 3.8403,1.4088 5.6933,2.2754 1.8531,0.8665 3.6628,1.8406 5.4258,2.9238 1.7631,1.0832 3.4794,2.2764 5.1524,3.5762 1.673,1.2998 3.3017,2.7062 4.8847,4.2226 1.5831,1.5165 3.1203,3.142 4.6133,4.875 1.4932,1.7331 2.8947,3.5645 4.2012,5.4942 1.3065,1.9297 2.5188,3.9576 3.6387,6.084 1.1198,2.1263 2.1468,4.3508 3.08,6.6738 0.9333,2.323 1.773,4.744 2.5196,7.2637 0.7465,2.5196 1.399,5.1392 1.959,7.8554 0.5599,2.7163 1.0271,5.5305 1.4003,8.4434 0.3733,2.9129 0.6532,5.9236 0.8399,9.0332 0.1866,3.1096 0.2793,6.3169 0.2793,9.623 0,3.2262 -0.09,6.3527 -0.2695,9.379 -0.18,3.0262 -0.4507,5.953 -0.8106,8.7792 -0.3599,2.8263 -0.8097,5.5515 -1.3496,8.1778 -0.5399,2.6263 -1.1688,5.1538 -1.8887,7.5801 -0.7198,2.4263 -1.5298,4.7521 -2.4297,6.9785 -0.8998,2.2263 -1.8889,4.3525 -2.9687,6.3789 -1.0798,2.0264 -2.25,3.9529 -3.5098,5.7793 -1.2597,1.8264 -2.6091,3.5532 -4.0488,5.1797 -1.4398,1.6264 -2.9247,3.1511 -4.4512,4.5742 -1.5265,1.4231 -3.0958,2.745 -4.709,3.9648 -1.6131,1.2199 -3.2689,2.337 -4.9687,3.3535 -1.6998,1.0166 -3.4421,1.931 -5.2285,2.7442 -1.7864,0.8132 -3.6172,1.5248 -5.4903,2.1348 -1.873,0.6099 -3.7883,1.1187 -5.748,1.5253 -1.9597,0.4067 -3.9634,0.7108 -6.0098,0.9141 -2.0463,0.2033 -4.1365,0.3066 -6.2695,0.3066 -2.3196,0 -4.5946,-0.1126 -6.8242,-0.3359 -2.2297,-0.2233 -4.4131,-0.5573 -6.5528,-1.0039 -2.1396,-0.4466 -4.2354,-1.0059 -6.2851,-1.6758 -2.0497,-0.6699 -4.054,-1.4505 -6.0137,-2.3437 -1.9597,-0.8932 -3.8744,-1.8992 -5.7441,-3.0157 -1.8698,-1.1165 -3.6949,-2.3437 -5.4746,-3.6835 -1.7798,-1.3398 -3.5153,-2.7924 -5.2051,-4.3555 -1.6898,-1.5631 -3.3338,-3.2371 -4.9336,-5.0235 -1.5997,-1.813 -3.1002,-3.7103 -4.5,-5.6933 -1.3998,-1.9831 -2.6986,-4.0521 -3.8984,-6.2051 -1.1998,-2.153 -2.299,-4.3918 -3.2989,-6.7148 -0.8251,-1.9172 -1.5395,-3.9281 -2.2285,-5.961 -0.9778,0.044 -1.9329,0.1426 -2.9297,0.1426 -18.5571,0 -34.2345,-7.1463 -47.0332,-21.4375 -12.7977,-14.5046 -19.1972,-34.4471 -19.1972,-59.8301 0,-24.9564 6.08,-44.1538 18.2382,-57.5918 11.5751,-12.5731 25.7055,-19.1867 42.3223,-19.9961 0.7381,-7.9116 1.4458,-16.0656 2.3086,-23.0039 1.2931,-10.3985 2.7257,-19.7038 4.2988,-27.916 0.7866,-4.1061 1.6083,-7.9385 2.4649,-11.498 0.8565,-3.5595 1.7472,-6.8446 2.6738,-9.8574 0.7088,-2.3049 1.4573,-4.3022 2.207,-6.2872 -11.147,1.876 -21.5482,4.8721 -31,9.2911 -16.4245,7.4656 -32.4214,19.0906 -47.9922,34.875 4.0522,-50.3394 10.3446,-83.1892 18.877,-98.5469 11.7319,-21.3303 28.1564,-31.9942 49.2734,-31.9942 11.7319,0 21.5436,3.7317 29.4356,11.1973 7.9704,7.3415 13.6455,19.9017 17.0781,37.5566 0.8131,-0.278 1.5845,-0.6504 2.416,-0.8867 2.3464,-0.6665 4.7668,-1.1667 7.2598,-1.5 2.493,-0.3333 5.0596,-0.498 7.6992,-0.498 2.7001,0 5.2708,0.2491 7.7676,0.6445 l 104.6367,-12.918 c -6.5836,-22.196 -15.9817,-40.8746 -27.873,-56.4355 z"
         style="font-style:normal;font-variant:normal;font-weight:normal;font-stretch:normal;font-size:medium;line-height:125%;font-family:'Arial Black';-inkscape-font-specification:'Arial Black, Normal';text-align:center;letter-spacing:13.16998672px;word-spacing:0px;writing-mode:lr-tb;text-anchor:middle;fill:#0000ff;fill-opacity:1;stroke:none;stroke-width:1px;stroke-linecap:butt;stroke-linejoin:miter;stroke-opacity:1"
         inkscape:connector-curvature="0" />
      <path
         inkscape:connector-curvature="0"
         id="path4589"
         d="m -1118.3302,1628.9277 63.8877,45.8693 31.6924,-51.6419 -63,-30.5 z"
         style="fill:#00004c;fill-opacity:1;fill-rule:evenodd;stroke:none;stroke-width:1px;stroke-linecap:butt;stroke-linejoin:miter;stroke-opacity:1" />
      <path
         inkscape:connector-curvature="0"
         id="path5024"
         style="font-style:normal;font-variant:normal;font-weight:normal;font-stretch:normal;font-size:medium;line-height:125%;font-family:'Arial Black';-inkscape-font-specification:'Arial Black, Normal';text-align:center;letter-spacing:13.16998672px;word-spacing:0px;writing-mode:lr-tb;text-anchor:middle;fill:#0000ff;fill-opacity:1;stroke:none;stroke-width:1px;stroke-linecap:butt;stroke-linejoin:miter;stroke-opacity:1"
         d="m -924.8611,1658.7994 -129.5814,15.9976 q -5.1188,-27.1961 -17.2766,-38.3945 -11.838,-11.1983 -29.4359,-11.1983 -31.6755,0 -49.2732,31.9954 -12.7987,23.0366 -18.8769,98.5457 23.3562,-23.6765 47.9929,-34.875 24.6366,-11.5183 56.9516,-11.5183 62.7116,0 105.904,44.7936 43.5149,44.7934 43.5149,113.5835 0,46.3932 -22.0772,84.7878 -21.7574,38.3943 -60.7915,58.2316 -38.7144,19.517 -97.2663,19.517 -70.3886,0 -112.9429,-23.9965 -42.5541,-23.9965 -68.1501,-76.4689 -25.2762,-52.7923 -25.2762,-139.4997 0,-127.0218 53.4316,-185.8932 53.433,-59.1915 148.1384,-59.1915 55.9924,0 88.3075,13.1182 32.6348,12.7981 54.0724,37.7545 21.4364,24.9564 32.6349,62.711 z m -239.9647,208.9297 q 0,38.0744 19.1967,59.8314 19.198,21.4368 47.0336,21.4368 25.596,0 42.874,-19.5172 17.2768,-19.5171 17.2768,-58.2315 0,-39.6743 -17.9177,-60.4712 -17.9161,-20.797 -44.4728,-20.797 -27.1961,0 -45.7532,20.157 -18.2374,20.157 -18.2374,57.5917 z" />
      <path
         sodipodi:nodetypes="cscsc"
         inkscape:connector-curvature="0"
         id="path4317"
         d="m 714.96385,928.30851 c 2e-5,0.26849 -0.71435,0.67568 -3.6311,0.67568 -2.91674,0 -3.94899,-0.69728 -3.94897,-0.96577 4e-5,-0.26848 0.24434,-1.31478 3.16104,-1.31478 2.9167,-10e-6 4.41899,1.33639 4.41903,1.60487 z"
         style="color:#000000;clip-rule:nonzero;display:inline;overflow:visible;visibility:visible;opacity:0.731;isolation:auto;mix-blend-mode:normal;color-interpolation:sRGB;color-interpolation-filters:linearRGB;solid-color:#000000;solid-opacity:1;fill:#ffeeaa;fill-opacity:1;fill-rule:evenodd;stroke:none;stroke-width:1px;stroke-linecap:butt;stroke-linejoin:miter;stroke-miterlimit:4;stroke-dasharray:none;stroke-dashoffset:0;stroke-opacity:1;filter:url(#filter4991);color-rendering:auto;image-rendering:auto;shape-rendering:auto;text-rendering:auto;enable-background:accumulate"
         transform="matrix(13.095319,-0.51144689,0.51144689,13.095319,-10945.644,-10264.617)" />
      <g
         transform="translate(-52.2851,763.82843)"
         id="g4319">
        <path
           style="display:inline;opacity:1;fill:url(#radialGradient4325);fill-opacity:1;fill-rule:evenodd;stroke:none;stroke-width:1px;stroke-linecap:butt;stroke-linejoin:miter;stroke-opacity:1"
           d="m -1121.9852,731.77044 c -7.0327,-45.36087 -4.757,-89.85114 14.1727,-137.00257 17.8209,11.81206 13.5628,84.44873 8.7736,137.00257 -3.1006,-9.28 -2.0396,-10.1802 -11.5359,-16.26225 -6.5419,-2.14323 -5.767,-0.4613 -11.4104,16.26225 z"
           id="path4321"
           inkscape:connector-curvature="0"
           sodipodi:nodetypes="ccccc" />
        <path
           style="display:inline;opacity:1;fill:#2e1a0d;fill-opacity:1;fill-rule:evenodd;stroke:none;stroke-width:1px;stroke-linecap:butt;stroke-linejoin:miter;stroke-opacity:1"
           d="m -1114.4231,756.91453 c 4.8885,-10.50888 6.7498,-17.99096 4.4161,-21.27777 -4.0465,-4.20654 -6.4442,1.48038 -9.2338,4.81765 -4.9445,-0.58319 -6.2894,-3.56871 -2.4088,-10.03671 6.2898,-9.05222 12.5794,-10.82222 18.8689,-12.847 2.2293,9.46624 4.8073,18.30747 0.8034,38.94241 z"
           id="path4323"
           inkscape:connector-curvature="0"
           sodipodi:nodetypes="ccccccc" />
      </g>
      <path
         style="font-style:normal;font-variant:normal;font-weight:normal;font-stretch:normal;font-size:medium;line-height:125%;font-family:'Arial Black';-inkscape-font-specification:'Arial Black, Normal';text-align:center;letter-spacing:13.16998672px;word-spacing:0px;writing-mode:lr-tb;text-anchor:middle;fill:none;fill-opacity:1;stroke:#000000;stroke-width:10;stroke-linecap:butt;stroke-linejoin:miter;stroke-opacity:1"
         d="m -1111.2324,1567.2578 c -48.8863,0.2023 -100.2339,19.0406 -131.5692,57.9987 -31.0237,38.8316 -41.0287,89.8405 -43.5295,138.2241 -3.4724,56.1502 0.016,114.3514 24.0989,166.1207 18.3268,37.9446 52.9155,69.9552 94.9314,78.8323 43.4272,11.1246 89.9655,10.3368 133.5352,-0.3184 34.156,-10.0104 64.8124,-33.8037 80.1855,-66.1735 28.0383,-54.2503 21.3954,-125.8763 -21.1601,-171.0472 -37.6633,-40.2917 -102.8022,-52.5372 -151.4799,-25.4646 -28.1331,15.2354 -47.1535,41.9407 -70.3565,63.3576 -1.6927,0.094 1.1663,-8.4902 1.2331,-11.9421 7.2648,-48.6913 4.3259,-100.3467 25.9353,-145.8454 15.4671,-31.4153 56.5415,-49.764 89.3301,-34.7715 17.5746,7.891 30.4952,24.4341 35.5586,42.8438 30.4345,-4.2308 61.0324,-7.404 91.4629,-11.4375 -15.7462,-38.9083 -52.2547,-69.5848 -94.1797,-75.7305 -21.0556,-4.2424 -42.5407,-4.7176 -63.9961,-4.6465 z m 7.2031,208.4297 c 39.9368,-0.01 74.6168,35.3849 77.5088,74.5501 5.3937,32.8023 1.8145,69.7516 -20.3135,96.0515 -23.7097,26.9228 -67.3847,33.1807 -97.3622,13.162 -26.7781,-16.3592 -41.8056,-47.6753 -42.3839,-78.5351 -2.3459,-31.0022 5.6427,-65.2852 30.2282,-86.1171 14.4419,-12.3091 33.2868,-19.4663 52.3226,-19.1114 z"
         id="path4587"
         inkscape:connector-curvature="0" />
      <path
         inkscape:connector-curvature="0"
         id="path4567"
         d="m -1107.2324,1563.2578 c -48.8863,0.2023 -100.2339,19.0406 -131.5692,57.9987 -31.0237,38.8316 -41.0287,89.8405 -43.5295,138.2241 -3.4724,56.1502 0.016,114.3514 24.0989,166.1207 18.3268,37.9446 52.9155,69.9552 94.9314,78.8323 43.4272,11.1246 89.9655,10.3368 133.5352,-0.3184 34.156,-10.0104 64.8124,-33.8037 80.1855,-66.1735 28.0383,-54.2503 21.3954,-125.8763 -21.1601,-171.0472 -37.6633,-40.2917 -102.8022,-52.5372 -151.4799,-25.4646 -28.1331,15.2354 -47.1535,41.9407 -70.3565,63.3576 -1.6927,0.094 1.1663,-8.4902 1.2331,-11.9421 7.2648,-48.6913 4.3259,-100.3467 25.9353,-145.8454 15.4671,-31.4153 56.5415,-49.764 89.3301,-34.7715 17.5746,7.891 30.4952,24.4341 35.5586,42.8438 30.4345,-4.2308 61.0324,-7.404 91.4629,-11.4375 -15.7462,-38.9083 -52.2547,-69.5848 -94.1797,-75.7305 -21.0556,-4.2424 -42.5407,-4.7176 -63.9961,-4.6465 z m 7.2031,208.4297 c 39.9368,-0.01 74.6168,35.3849 77.5088,74.5501 5.3937,32.8023 1.8145,69.7516 -20.3135,96.0515 -23.7097,26.9228 -67.3847,33.1807 -97.3622,13.162 -26.7781,-16.3592 -41.8056,-47.6753 -42.3839,-78.5351 -2.3459,-31.0022 5.6427,-65.2852 30.2282,-86.1171 14.4419,-12.3091 33.2868,-19.4663 52.3226,-19.1114 z"
         style="font-style:normal;font-variant:normal;font-weight:normal;font-stretch:normal;font-size:medium;line-height:125%;font-family:'Arial Black';-inkscape-font-specification:'Arial Black, Normal';text-align:center;letter-spacing:13.16998672px;word-spacing:0px;writing-mode:lr-tb;text-anchor:middle;fill:none;fill-opacity:1;stroke:#ffffff;stroke-width:10;stroke-linecap:butt;stroke-linejoin:miter;stroke-opacity:1" />
    </g>
  </g>
</svg>
