<?xml version="1.0" encoding="UTF-8" standalone="no"?>
<!-- Created with Inkscape (http://www.inkscape.org/) -->

<svg
   xmlns:dc="http://purl.org/dc/elements/1.1/"
   xmlns:cc="http://creativecommons.org/ns#"
   xmlns:rdf="http://www.w3.org/1999/02/22-rdf-syntax-ns#"
   xmlns:svg="http://www.w3.org/2000/svg"
   xmlns="http://www.w3.org/2000/svg"
   xmlns:xlink="http://www.w3.org/1999/xlink"
   xmlns:sodipodi="http://sodipodi.sourceforge.net/DTD/sodipodi-0.dtd"
   xmlns:inkscape="http://www.inkscape.org/namespaces/inkscape"
   width="142.52568mm"
   height="191.37134mm"
   viewBox="0 0 505.01226 678.08742"
   id="svg5039"
   version="1.1"
   inkscape:version="0.91 r13725"
   sodipodi:docname="seven.svg">
  <defs
     id="defs5041">
    <filter
       inkscape:collect="always"
       style="color-interpolation-filters:sRGB"
       id="filter4831"
       x="-0.04795317"
       width="1.0959063"
       y="-0.28713337"
       height="1.5742667">
      <feGaussianBlur
         inkscape:collect="always"
         stdDeviation="9.8344352"
         id="feGaussianBlur4833" />
    </filter>
    <filter
       inkscape:collect="always"
       style="color-interpolation-filters:sRGB"
       id="filter4991"
       x="-0.082178339"
       width="1.1643567"
       y="-0.58131677"
       height="2.1626337">
      <feGaussianBlur
         inkscape:collect="always"
         stdDeviation="0.36139413"
         id="feGaussianBlur4993" />
    </filter>
    <radialGradient
       inkscape:collect="always"
       xlink:href="#linearGradient4322"
       id="radialGradient4335"
       gradientUnits="userSpaceOnUse"
       gradientTransform="matrix(1.9088868,0,0,7.7938452,-3406.1619,-5179.9953)"
       cx="1202.2484"
       cy="759.0351"
       fx="1202.2484"
       fy="759.0351"
       r="9.0514593" />
    <linearGradient
       inkscape:collect="always"
       id="linearGradient4322">
      <stop
         style="stop-color:#0000ff;stop-opacity:1"
         offset="0"
         id="stop4324" />
      <stop
         style="stop-color:#ffff00;stop-opacity:1"
         offset="1"
         id="stop4326" />
    </linearGradient>
  </defs>
  <sodipodi:namedview
     id="base"
     pagecolor="#ffffff"
     bordercolor="#666666"
     borderopacity="1.0"
     inkscape:pageopacity="0.0"
     inkscape:pageshadow="2"
     inkscape:zoom="0.35"
     inkscape:cx="203.50058"
     inkscape:cy="434.03411"
     inkscape:document-units="px"
     inkscape:current-layer="layer1"
     showgrid="false"
     fit-margin-top="0"
     fit-margin-left="0"
     fit-margin-right="0"
     fit-margin-bottom="0"
     showborder="false"
     inkscape:window-width="1366"
     inkscape:window-height="715"
     inkscape:window-x="0"
     inkscape:window-y="0"
     inkscape:window-maximized="1" />
  <metadata
     id="metadata5044">
    <rdf:RDF>
      <cc:Work
         rdf:about="">
        <dc:format>image/svg+xml</dc:format>
        <dc:type
           rdf:resource="http://purl.org/dc/dcmitype/StillImage" />
        <dc:title></dc:title>
      </cc:Work>
    </rdf:RDF>
  </metadata>
  <g
     inkscape:label="Calque 1"
     inkscape:groupmode="layer"
     id="layer1"
     transform="translate(519.92916,-228.30897)">
    <g
       transform="translate(294.21118,-1133.0102)"
       style="opacity:1"
       id="g4736">
      <rect
         transform="matrix(1.5540649,0,0.91220013,0.59609998,1976.8198,763.18198)"
         y="2035.1537"
         x="-2966.0459"
         height="82.200981"
         width="221"
         id="rect4797"
         style="color:#000000;clip-rule:nonzero;display:inline;overflow:visible;visibility:visible;opacity:1;isolation:auto;mix-blend-mode:normal;color-interpolation:sRGB;color-interpolation-filters:linearRGB;solid-color:#000000;solid-opacity:1;fill:#000000;fill-opacity:1;fill-rule:evenodd;stroke:none;stroke-width:10;stroke-linecap:butt;stroke-linejoin:miter;stroke-miterlimit:4;stroke-dasharray:none;stroke-dashoffset:0;stroke-opacity:1;filter:url(#filter4831);color-rendering:auto;image-rendering:auto;shape-rendering:auto;text-rendering:auto;enable-background:accumulate" />
      <path
         id="path4290"
         d="m -753.4415,1507.3457 0,110.0645 231.6465,0 c -47.5662,59.0848 -82.335,114.5424 -104.3047,166.375 -21.9706,51.8324 -38.0758,116.0376 -48.3145,192.6132 l 63.8887,45.8692 31.6133,-45.8692 34.4004,0 c 4.2661,-55.032 12.5836,-102.7054 24.9551,-143.0195 15.5716,-51.8325 36.7963,-98.8657 63.6718,-141.0996 22.1838,-34.7683 49.8072,-67.083 82.8692,-96.9453 l 0,-87.9883 -380.4258,0 z"
         style="font-style:normal;font-variant:normal;font-weight:normal;font-stretch:normal;font-size:medium;line-height:125%;font-family:'Arial Black';-inkscape-font-specification:'Arial Black, Normal';text-align:center;letter-spacing:13.16998672px;word-spacing:0px;writing-mode:lr-tb;text-anchor:middle;fill:#00004c;fill-opacity:1;stroke:none;stroke-width:1px;stroke-linecap:butt;stroke-linejoin:miter;stroke-opacity:1"
         inkscape:connector-curvature="0" />
      <path
         inkscape:connector-curvature="0"
         id="path5026"
         style="font-style:normal;font-variant:normal;font-weight:normal;font-stretch:normal;font-size:medium;line-height:125%;font-family:'Arial Black';-inkscape-font-specification:'Arial Black, Normal';text-align:center;letter-spacing:13.16998672px;word-spacing:0px;writing-mode:lr-tb;text-anchor:middle;fill:#0000ff;fill-opacity:1;stroke:none;stroke-width:1px;stroke-linecap:butt;stroke-linejoin:miter;stroke-opacity:1"
         d="m -689.5528,1553.2146 380.4247,0 0,87.9872 q -49.593,44.7936 -82.8687,96.946 -40.3133,63.3509 -63.6709,141.0997 -18.5571,60.4711 -24.9563,143.0192 l -129.9011,0 q 15.358,-114.8634 48.3139,-192.612 32.9546,-77.7489 104.3039,-166.3761 l -231.6455,0 0,-110.064 z" />
      <path
         inkscape:connector-curvature="0"
         id="path4592"
         d="m -689.5528,1663.2786 -63.8883,-45.8685 0,-110.064 63.8883,45.8685 z"
         style="fill:#00004c;fill-opacity:1;fill-rule:evenodd;stroke:none;stroke-width:1px;stroke-linecap:butt;stroke-linejoin:miter;stroke-opacity:1" />
      <path
         inkscape:connector-curvature="0"
         id="path4594"
         d="m -689.5528,1553.2146 380.4247,0 -63.8884,-45.8685 -380.4246,0 z"
         style="fill:#7878ff;fill-opacity:1;fill-rule:evenodd;stroke:none;stroke-width:1px;stroke-linecap:butt;stroke-linejoin:miter;stroke-opacity:1" />
      <path
         transform="matrix(13.095319,-0.51144689,0.51144689,13.095319,-10316.945,-10261.894)"
         style="color:#000000;clip-rule:nonzero;display:inline;overflow:visible;visibility:visible;opacity:0.731;isolation:auto;mix-blend-mode:normal;color-interpolation:sRGB;color-interpolation-filters:linearRGB;solid-color:#000000;solid-opacity:1;fill:#ffeeaa;fill-opacity:1;fill-rule:evenodd;stroke:none;stroke-width:1px;stroke-linecap:butt;stroke-linejoin:miter;stroke-miterlimit:4;stroke-dasharray:none;stroke-dashoffset:0;stroke-opacity:1;filter:url(#filter4991);color-rendering:auto;image-rendering:auto;shape-rendering:auto;text-rendering:auto;enable-background:accumulate"
         d="m 714.96385,928.30851 c 2e-5,0.26849 -0.71435,0.67568 -3.6311,0.67568 -2.91674,0 -3.94899,-0.69728 -3.94897,-0.96577 4e-5,-0.26848 0.24434,-1.31478 3.16104,-1.31478 2.9167,-10e-6 4.41899,1.33639 4.41903,1.60487 z"
         id="path4327"
         inkscape:connector-curvature="0"
         sodipodi:nodetypes="cscsc" />
      <g
         id="g4329"
         transform="translate(576.4134,766.5513)">
        <path
           sodipodi:nodetypes="ccccc"
           inkscape:connector-curvature="0"
           id="path4331"
           d="m -1121.9852,731.77044 c -7.0327,-45.36087 -4.757,-89.85114 14.1727,-137.00257 17.8209,11.81206 13.5628,84.44873 8.7736,137.00257 -3.1006,-9.28 -2.0396,-10.1802 -11.5359,-16.26225 -6.5419,-2.14323 -5.767,-0.4613 -11.4104,16.26225 z"
           style="display:inline;opacity:1;fill:url(#radialGradient4335);fill-opacity:1;fill-rule:evenodd;stroke:none;stroke-width:1px;stroke-linecap:butt;stroke-linejoin:miter;stroke-opacity:1" />
        <path
           sodipodi:nodetypes="ccccccc"
           inkscape:connector-curvature="0"
           id="path4333"
           d="m -1114.4231,756.91453 c 4.8885,-10.50888 6.7498,-17.99096 4.4161,-21.27777 -4.0465,-4.20654 -6.4442,1.48038 -9.2338,4.81765 -4.9445,-0.58319 -6.2894,-3.56871 -2.4088,-10.03671 6.2898,-9.05222 12.5794,-10.82222 18.8689,-12.847 2.2293,9.46624 4.8073,18.30747 0.8034,38.94241 z"
           style="display:inline;opacity:1;fill:#2e1a0d;fill-opacity:1;fill-rule:evenodd;stroke:none;stroke-width:1px;stroke-linecap:butt;stroke-linejoin:miter;stroke-opacity:1" />
      </g>
      <path
         style="font-style:normal;font-variant:normal;font-weight:normal;font-stretch:normal;font-size:medium;line-height:125%;font-family:'Arial Black';-inkscape-font-specification:'Arial Black, Normal';text-align:center;letter-spacing:13.16998672px;word-spacing:0px;writing-mode:lr-tb;text-anchor:middle;fill:none;fill-opacity:1;stroke:#000000;stroke-width:10;stroke-linecap:butt;stroke-linejoin:miter;stroke-opacity:1"
         d="m -675.5527,1649.2793 c 83.9121,0 167.8242,0 251.7363,0 -62.4605,73.3822 -119.5281,154.8159 -146.1619,248.5 -10.4438,36.2797 -18.1284,73.1266 -23.76,110.4883 30.8373,0 61.6745,0 92.5117,0 9.897,-114.5498 48.5664,-228.6086 121.1873,-318.8089 14.9553,-18.605 31.2979,-36.0999 48.9104,-52.2146 0,-20.6764 0,-41.3528 0,-62.0293 -114.8079,0 -229.6159,0 -344.4238,0 0,24.6882 0,49.3764 0,74.0645 z"
         id="path4619"
         inkscape:connector-curvature="0" />
      <path
         inkscape:connector-curvature="0"
         id="path4599"
         d="m -671.5527,1645.2793 c 83.9121,0 167.8242,0 251.7363,0 -62.4605,73.3822 -119.5281,154.8159 -146.1619,248.5 -10.4438,36.2797 -18.1284,73.1266 -23.76,110.4883 30.8373,0 61.6745,0 92.5117,0 9.897,-114.5498 48.5664,-228.6086 121.1873,-318.8089 14.9553,-18.605 31.2979,-36.0999 48.9104,-52.2146 0,-20.6764 0,-41.3528 0,-62.0293 -114.8079,0 -229.6159,0 -344.4238,0 0,24.6882 0,49.3764 0,74.0645 z"
         style="font-style:normal;font-variant:normal;font-weight:normal;font-stretch:normal;font-size:medium;line-height:125%;font-family:'Arial Black';-inkscape-font-specification:'Arial Black, Normal';text-align:center;letter-spacing:13.16998672px;word-spacing:0px;writing-mode:lr-tb;text-anchor:middle;fill:none;fill-opacity:1;stroke:#ffffff;stroke-width:10;stroke-linecap:butt;stroke-linejoin:miter;stroke-opacity:1" />
    </g>
  </g>
</svg>
