<?xml version="1.0" encoding="UTF-8" standalone="no"?>
<!-- Created with Inkscape (http://www.inkscape.org/) -->

<svg
   xmlns:dc="http://purl.org/dc/elements/1.1/"
   xmlns:cc="http://creativecommons.org/ns#"
   xmlns:rdf="http://www.w3.org/1999/02/22-rdf-syntax-ns#"
   xmlns:svg="http://www.w3.org/2000/svg"
   xmlns="http://www.w3.org/2000/svg"
   xmlns:xlink="http://www.w3.org/1999/xlink"
   xmlns:sodipodi="http://sodipodi.sourceforge.net/DTD/sodipodi-0.dtd"
   xmlns:inkscape="http://www.inkscape.org/namespaces/inkscape"
   width="126.20789mm"
   height="206.25719mm"
   viewBox="0 0 447.1933 730.83255"
   id="svg5039"
   version="1.1"
   inkscape:version="0.91 r13725"
   sodipodi:docname="eight.svg">
  <defs
     id="defs5041">
    <filter
       inkscape:collect="always"
       style="color-interpolation-filters:sRGB"
       id="filter4761"
       x="-0.028602323"
       width="1.0572046"
       y="-0.48196471"
       height="1.9639294">
      <feGaussianBlur
         inkscape:collect="always"
         stdDeviation="4.3146444"
         id="feGaussianBlur4763" />
    </filter>
    <linearGradient
       inkscape:collect="always"
       xlink:href="#linearGradient4661"
       id="linearGradient4659"
       x1="2928.6113"
       y1="1064.4756"
       x2="3006.5454"
       y2="977.59692"
       gradientUnits="userSpaceOnUse"
       gradientTransform="translate(-3040.0001,760)" />
    <linearGradient
       id="linearGradient4661"
       inkscape:collect="always">
      <stop
         id="stop4663"
         offset="0"
         style="stop-color:#00004c;stop-opacity:1" />
      <stop
         style="stop-color:#7878ff;stop-opacity:1"
         offset="0.64247102"
         id="stop4667" />
      <stop
         id="stop4665"
         offset="1"
         style="stop-color:#00004c;stop-opacity:1" />
    </linearGradient>
    <linearGradient
       inkscape:collect="always"
       xlink:href="#linearGradient4559"
       id="linearGradient4651"
       x1="3090.9434"
       y1="895.79163"
       x2="3145.1746"
       y2="842.75861"
       gradientUnits="userSpaceOnUse"
       gradientTransform="translate(-3040.0001,760)" />
    <linearGradient
       id="linearGradient4559"
       inkscape:collect="always">
      <stop
         id="stop4561"
         offset="0"
         style="stop-color:#00004c;stop-opacity:1" />
      <stop
         id="stop4563"
         offset="1"
         style="stop-color:#7878ff;stop-opacity:1" />
    </linearGradient>
    <filter
       inkscape:collect="always"
       style="color-interpolation-filters:sRGB"
       id="filter4991"
       x="-0.082178339"
       width="1.1643567"
       y="-0.58131677"
       height="2.1626337">
      <feGaussianBlur
         inkscape:collect="always"
         stdDeviation="0.36139413"
         id="feGaussianBlur4993" />
    </filter>
    <radialGradient
       inkscape:collect="always"
       xlink:href="#linearGradient4322"
       id="radialGradient4345"
       gradientUnits="userSpaceOnUse"
       gradientTransform="matrix(1.9088868,0,0,7.7938452,-3406.1619,-5179.9953)"
       cx="1202.2484"
       cy="759.0351"
       fx="1202.2484"
       fy="759.0351"
       r="9.0514593" />
    <linearGradient
       inkscape:collect="always"
       id="linearGradient4322">
      <stop
         style="stop-color:#0000ff;stop-opacity:1"
         offset="0"
         id="stop4324" />
      <stop
         style="stop-color:#ffff00;stop-opacity:1"
         offset="1"
         id="stop4326" />
    </linearGradient>
  </defs>
  <sodipodi:namedview
     id="base"
     pagecolor="#ffffff"
     bordercolor="#666666"
     borderopacity="1.0"
     inkscape:pageopacity="0.0"
     inkscape:pageshadow="2"
     inkscape:zoom="0.35"
     inkscape:cx="-101.47419"
     inkscape:cy="628.02182"
     inkscape:document-units="px"
     inkscape:current-layer="layer1"
     showgrid="false"
     fit-margin-top="0"
     fit-margin-left="0"
     fit-margin-right="0"
     fit-margin-bottom="0"
     showborder="false"
     inkscape:window-width="1366"
     inkscape:window-height="715"
     inkscape:window-x="0"
     inkscape:window-y="0"
     inkscape:window-maximized="1" />
  <metadata
     id="metadata5044">
    <rdf:RDF>
      <cc:Work
         rdf:about="">
        <dc:format>image/svg+xml</dc:format>
        <dc:type
           rdf:resource="http://purl.org/dc/dcmitype/StillImage" />
        <dc:title></dc:title>
      </cc:Work>
    </rdf:RDF>
  </metadata>
  <g
     inkscape:label="Calque 1"
     inkscape:groupmode="layer"
     id="layer1"
     transform="translate(214.95438,-369.55154)">
    <g
       transform="translate(-69.565581,-987.04476)"
       style="opacity:1"
       id="g4761">
      <ellipse
         ry="10.74264"
         rx="181.01933"
         cy="1272.2799"
         cx="93.338051"
         id="ellipse4835"
         style="color:#000000;clip-rule:nonzero;display:inline;overflow:visible;visibility:visible;opacity:1;isolation:auto;mix-blend-mode:normal;color-interpolation:sRGB;color-interpolation-filters:linearRGB;solid-color:#000000;solid-opacity:1;fill:#000000;fill-opacity:1;fill-rule:evenodd;stroke:none;stroke-width:10;stroke-linecap:butt;stroke-linejoin:miter;stroke-miterlimit:4;stroke-dasharray:none;stroke-dashoffset:0;stroke-opacity:1;filter:url(#filter4761);color-rendering:auto;image-rendering:auto;shape-rendering:auto;text-rendering:auto;enable-background:accumulate"
         transform="matrix(1.0913077,0,0,3.6481961,-24.9575,-2631.0666)" />
      <path
         id="path4634"
         d="m 108.8729,1624.5644 c -3.8766,0 -7.5703,0.3192 -11.0996,0.9239 0.2932,2.5914 0.6426,5.1476 0.6426,7.9199 0,15.571 -4.7982,28.2623 -14.3965,38.0742 -7.6205,7.7894 -16.9941,12.3536 -27.9746,13.959 0.1439,1.3579 0.1123,2.8242 0.336,4.1328 0.3133,1.8331 0.7038,3.6191 1.1738,5.3555 0.4699,1.7364 1.0179,3.4247 1.6445,5.0644 0.6266,1.6398 1.332,3.2304 2.1153,4.7735 0.7832,1.5431 1.646,3.0379 2.5859,4.4843 0.9399,1.4465 1.9581,2.8456 3.0547,4.1954 1.0965,1.3498 2.2702,2.6511 3.5234,3.9043 1.2797,1.2265 2.6111,2.376 3.9942,3.4492 1.383,1.0732 2.8182,2.0684 4.3046,2.9883 1.4865,0.9198 3.0236,1.7646 4.6133,2.5312 1.5898,0.7666 3.2327,1.4551 4.9258,2.0684 1.6931,0.6132 3.4379,1.1514 5.2344,1.6113 1.7964,0.4599 3.6431,0.8418 5.543,1.1484 3.7995,0.6133 7.8066,0.92 12.0195,0.92 3.7326,0 7.2978,-0.3067 10.6972,-0.92 1.6997,-0.3066 3.3583,-0.6885 4.9747,-1.1484 1.6164,-0.4599 3.1915,-0.9981 4.7246,-1.6113 1.5331,-0.6133 3.0248,-1.3018 4.4746,-2.0684 1.4498,-0.7666 2.8581,-1.6114 4.2246,-2.5312 1.3665,-0.9199 2.6914,-1.9151 3.9746,-2.9883 1.2832,-1.0732 2.5247,-2.2227 3.7246,-3.4492 1.1998,-1.2265 2.3233,-2.498 3.373,-3.8145 1.0499,-1.3165 2.026,-2.6795 2.9258,-4.0859 0.8999,-1.4065 1.7248,-2.8571 2.4746,-4.3535 0.7499,-1.4965 1.4236,-3.0386 2.0235,-4.625 0.5999,-1.5865 1.1262,-3.2181 1.5761,-4.8946 0.4501,-1.6764 0.8232,-3.3976 1.1231,-5.164 0.5999,-3.5328 0.9004,-7.244 0.9004,-11.1368 0,-4.0527 -0.3129,-7.9139 -0.9395,-11.58 -0.3133,-1.8331 -0.7058,-3.6171 -1.1757,-5.3535 -0.47,-1.7365 -1.018,-3.4247 -1.6446,-5.0645 -0.6266,-1.6398 -1.33,-3.2303 -2.1133,-4.7734 -0.7832,-1.5431 -1.646,-3.038 -2.5859,-4.4844 -0.9399,-1.4465 -1.9581,-2.8455 -3.0547,-4.1953 -1.0965,-1.3498 -2.2702,-2.6512 -3.5234,-3.9043 -1.2531,-1.2798 -2.5509,-2.4798 -3.8906,-3.5996 -1.3398,-1.1199 -2.7221,-2.1593 -4.1485,-3.1192 -1.4264,-0.9598 -2.8971,-1.8407 -4.4101,-2.6406 -1.5131,-0.7999 -3.0683,-1.5183 -4.668,-2.1582 -1.5997,-0.6399 -3.2433,-1.1998 -4.9297,-1.6797 -1.6864,-0.4799 -3.4163,-0.8812 -5.1895,-1.2012 -1.7729,-0.3199 -3.5895,-0.5587 -5.4492,-0.7187 -1.8597,-0.16 -3.7626,-0.2403 -5.709,-0.2403 z m 0,184.293 c -1.8207,0 -3.6073,0.1081 -5.3769,0.2696 2.3259,7.5152 3.5605,15.6772 3.5605,24.5722 0,20.477 -6.1871,37.4349 -18.5586,50.8731 -10.9564,11.7122 -23.174,18.2134 -36.6406,19.5527 0.4077,1.3409 0.7824,2.7009 1.2637,3.998 0.7865,2.1197 1.6711,4.1806 2.6543,6.1836 0.9832,2.0031 2.0643,3.9476 3.2441,5.834 1.1798,1.8864 2.4576,3.7147 3.834,5.4844 1.3764,1.7697 2.8527,3.4817 4.4258,5.1348 1.5732,1.6264 3.1729,3.151 4.8027,4.5742 1.6299,1.4231 3.2882,2.745 4.9746,3.9648 1.6865,1.2199 3.4015,2.337 5.1446,3.3535 1.7431,1.0166 3.5147,1.9329 5.3144,2.7461 1.7998,0.8133 3.628,1.5249 5.4844,2.1348 1.8564,0.6099 3.7413,1.1168 5.6543,1.5234 1.913,0.4067 3.8546,0.7128 5.8242,0.9161 1.9697,0.2033 3.9679,0.3046 5.9942,0.3046 1.9464,0 3.8672,-0.1039 5.7636,-0.3105 1.8965,-0.2066 3.7688,-0.5164 5.6153,-0.9297 1.8464,-0.4133 3.6664,-0.9289 5.4629,-1.5488 1.7964,-0.6199 3.568,-1.3434 5.3144,-2.1699 1.7465,-0.8266 3.4696,-1.7579 5.166,-2.7911 1.6965,-1.0331 3.3673,-2.1683 5.0137,-3.4082 1.6464,-1.2398 3.2668,-2.5828 4.8633,-4.0293 1.5964,-1.4464 3.1684,-2.9972 4.7148,-4.6503 1.5465,-1.6798 2.9965,-3.4134 4.3496,-5.2032 1.3532,-1.7897 2.6097,-3.6354 3.7696,-5.5351 1.1598,-1.8998 2.2229,-3.8536 3.1894,-5.8633 0.9665,-2.0097 1.8362,-4.0756 2.6094,-6.1953 0.7732,-2.1197 1.4494,-4.2938 2.0293,-6.5235 0.5799,-2.2296 1.0645,-4.5138 1.4512,-6.8535 0.3866,-2.3396 0.6758,-4.7339 0.8691,-7.1836 0.1933,-2.4496 0.2891,-4.956 0.2891,-7.5156 0,-2.5863 -0.098,-5.1124 -0.295,-7.582 -0.1966,-2.4697 -0.4915,-4.8814 -0.8847,-7.2344 -0.3933,-2.353 -0.8847,-4.6484 -1.4746,-6.8848 -0.5899,-2.2363 -1.278,-4.4135 -2.0645,-6.5332 -0.7865,-2.1197 -1.6711,-4.1825 -2.6543,-6.1855 -0.9832,-2.0031 -2.0643,-3.9476 -3.2441,-5.834 -1.1798,-1.8864 -2.4576,-3.7146 -3.834,-5.4844 -1.3765,-1.7697 -2.8527,-3.4797 -4.4258,-5.1328 -1.5465,-1.6531 -3.1245,-3.2039 -4.7344,-4.6504 -1.6098,-1.4464 -3.2507,-2.7895 -4.9238,-4.0293 -1.6731,-1.2398 -3.3788,-2.375 -5.1152,-3.4082 -1.7365,-1.0332 -3.503,-1.9644 -5.3028,-2.791 -1.7997,-0.8265 -3.6311,-1.55 -5.4941,-2.1699 -1.863,-0.6199 -3.7592,-1.1356 -5.6856,-1.5488 -1.9263,-0.4133 -3.8834,-0.7231 -5.873,-0.9297 -1.9896,-0.2067 -4.0115,-0.3106 -6.0645,-0.3106 z"
         style="font-style:normal;font-variant:normal;font-weight:normal;font-stretch:normal;font-size:medium;line-height:125%;font-family:'Arial Black';-inkscape-font-specification:'Arial Black, Normal';text-align:center;letter-spacing:13.16998672px;word-spacing:0px;writing-mode:lr-tb;text-anchor:middle;fill:#00004c;fill-opacity:1;stroke:none;stroke-width:1px;stroke-linecap:butt;stroke-linejoin:miter;stroke-opacity:1"
         inkscape:connector-curvature="0" />
      <path
         id="path4630"
         d="m 241.3339,1581.0508 c -3.7328,-2.9863 -7.7227,-5.7855 -11.9688,-8.3985 -4.246,-2.6129 -8.7485,-5.0396 -13.5078,-7.2792 -4.7593,-2.2397 -9.7743,-4.2938 -15.0469,-6.1602 -5.2725,-1.8664 -10.802,-3.5459 -16.5878,-5.0391 -5.7859,-1.4931 -11.8299,-2.7981 -18.1289,-3.9179 -6.2991,-1.1199 -12.8537,-2.0543 -19.6661,-2.8008 -6.8123,-0.7466 -13.8814,-1.3064 -21.207,-1.6797 -7.3256,-0.3733 -14.9073,-0.5606 -22.7461,-0.5606 -5.9191,0 -11.6931,0.1513 -17.3223,0.4512 -5.6291,0.3 -11.1139,0.7497 -16.4531,1.3496 -5.3392,0.5999 -10.5328,1.3502 -15.582,2.25 -5.0493,0.8999 -9.9536,1.9486 -14.7129,3.1485 -4.7593,1.1998 -9.3744,2.551 -13.8438,4.0507 -4.4693,1.4998 -8.7932,3.1495 -12.9726,4.9493 -4.1794,1.7997 -8.2141,3.7479 -12.1035,5.8476 -3.8895,2.0997 -7.6349,4.3504 -11.2344,6.75 -4.6127,3.1196 -8.9365,6.3505 -12.9727,9.6934 -4.0361,3.3428 -7.7845,6.7971 -11.2441,10.3633 -3.4596,3.5661 -6.6307,7.2437 -9.5137,11.0332 -2.8829,3.7894 -5.4768,7.6903 -7.7832,11.7031 -2.3063,4.0127 -4.3249,8.137 -6.0547,12.373 -1.7297,4.2361 -3.171,8.5856 -4.3242,13.045 -1.1532,4.4593 -2.0171,9.0302 -2.5937,13.7129 -0.5766,4.6826 -0.8653,9.4768 -0.8653,14.3828 0,2.9862 0.099,5.9285 0.2989,8.8281 0.1999,2.8996 0.5004,5.7554 0.9004,8.5683 0.3999,2.813 0.9,5.5824 1.5,8.3086 0.5999,2.7263 1.2996,5.4092 2.0996,8.0489 0.7999,2.6396 1.6993,5.2361 2.6992,7.789 0.9999,2.553 2.1009,5.063 3.3008,7.5293 1.1998,2.4663 2.4985,4.8899 3.8984,7.2696 1.3999,2.3796 2.9002,4.7148 4.5,7.0078 2.3463,3.3595 5.0386,6.6403 8.0781,9.8398 3.0395,3.1995 6.4275,6.3179 10.1602,9.3574 3.7327,3.0396 7.8104,5.9993 12.2363,8.8789 4.4259,2.8796 9.1992,5.6789 14.3184,8.3985 -3.3328,1.3065 -6.5577,2.6819 -9.6739,4.125 -3.1161,1.4431 -6.1238,2.9554 -9.0234,4.5351 -2.8995,1.5798 -5.6901,3.227 -8.373,4.9434 -2.683,1.7164 -5.2583,3.5004 -7.7246,5.3535 -2.4664,1.8531 -4.8246,3.7759 -7.0743,5.7656 -2.2497,1.9897 -4.3907,4.0475 -6.4238,6.1739 -2.0331,2.1263 -3.957,4.3209 -5.7734,6.5839 -1.8165,2.2631 -3.5252,4.5945 -5.125,6.9942 -1.5998,2.373 -3.1003,4.812 -4.5,7.3183 -1.3998,2.5064 -2.6987,5.0792 -3.8985,7.7188 -1.1998,2.6396 -2.299,5.3462 -3.2988,8.1191 -0.9998,2.773 -1.8994,5.6133 -2.6992,8.5196 -0.7999,2.9062 -1.5017,5.8784 -2.1016,8.9179 -0.5999,3.0396 -1.0981,6.1455 -1.498,9.3184 -0.4,3.1729 -0.7005,6.4126 -0.9004,9.7187 -0.2,3.3062 -0.3008,6.6797 -0.3008,10.1192 0,3.5195 0.107,6.9974 0.3203,10.4336 0.2133,3.4361 0.5343,6.8307 0.9609,10.1836 0.4267,3.3528 0.9598,6.664 1.5997,9.9336 0.6399,3.2695 1.385,6.4974 2.2382,9.6836 0.8532,3.1862 1.8144,6.3307 2.8809,9.4336 1.0665,3.1028 2.2397,6.164 3.5195,9.1836 1.2798,3.0195 2.6651,5.9973 4.1582,8.9335 1.4931,2.9363 3.0944,5.8307 4.8008,8.6836 1.7064,2.853 3.511,5.6192 5.4141,8.2989 1.903,2.6796 3.9042,5.273 6.0039,7.7793 2.0997,2.5063 4.2974,4.9248 6.5937,7.2578 2.2126,2.2479 4.5268,4.4071 6.9219,6.4941 l 11.4219,-11.9844 c 20.6956,3.8058 45.1833,5.7149 73.4902,5.7149 26.45,0 51.299,-2.6655 74.5488,-7.9981 23.4628,-5.1192 42.981,-13.2246 58.5528,-24.3164 15.784,-11.0917 29.0087,-26.7695 39.6738,-47.0332 10.8783,-20.477 16.3164,-42.4468 16.3164,-65.9101 0,-24.3164 -6.2923,-46.5003 -18.8769,-66.5508 -12.3714,-20.0504 -31.2476,-36.1543 -56.6309,-48.3125 19.1976,-12.7981 33.2756,-26.0244 42.2344,-39.6758 11.945,-18.344 17.916,-38.0744 17.916,-59.1914 0,-10.7014 -1.32,-20.8585 -3.9395,-30.4824 l 22.7149,-13.875 z m -196.3496,-2.3555 c 15.5709,0 28.3699,5.1189 38.3945,15.3574 8.311,8.3108 12.9735,18.8735 14.3945,31.4356 3.5293,-0.6047 7.223,-0.9238 11.0996,-0.9238 1.9464,0 3.8493,0.08 5.709,0.2402 1.8597,0.16 3.6762,0.3988 5.4492,0.7187 1.7731,0.32 3.5031,0.7213 5.1895,1.2012 1.6864,0.4799 3.33,1.0398 4.9297,1.6797 1.5997,0.6399 3.1549,1.3583 4.668,2.1582 1.513,0.7999 2.9837,1.6808 4.4101,2.6406 1.4264,0.9599 2.8087,1.9993 4.1485,3.1192 1.3397,1.1198 2.6375,2.3198 3.8906,3.5996 1.2532,1.2531 2.4269,2.5545 3.5234,3.9043 1.0966,1.3498 2.1148,2.7488 3.0547,4.1953 0.9399,1.4464 1.8027,2.9413 2.5859,4.4844 0.7833,1.5431 1.4867,3.1336 2.1133,4.7734 0.6266,1.6398 1.1746,3.328 1.6446,5.0645 0.4699,1.7364 0.8624,3.5204 1.1757,5.3535 0.6266,3.6661 0.9395,7.5273 0.9395,11.58 0,3.8928 -0.3005,7.604 -0.9004,11.1368 -0.2999,1.7664 -0.6731,3.4876 -1.1231,5.164 -0.4499,1.6765 -0.9762,3.3081 -1.5761,4.8946 -0.5999,1.5864 -1.2736,3.1285 -2.0235,4.625 -0.7498,1.4964 -1.5747,2.947 -2.4746,4.3535 -0.8998,1.4064 -1.8759,2.7694 -2.9258,4.0859 -1.0498,1.3165 -2.1732,2.588 -3.373,3.8145 -1.1999,1.2265 -2.4414,2.376 -3.7246,3.4492 -1.2832,1.0732 -2.6081,2.0684 -3.9746,2.9883 -1.3665,0.9198 -2.7748,1.7647 -4.2246,2.5312 -1.4498,0.7666 -2.9415,1.4551 -4.4746,2.0684 -1.5331,0.6132 -3.1082,1.1514 -4.7246,1.6113 -1.6164,0.4599 -3.275,0.8418 -4.9747,1.1484 -3.3994,0.6133 -6.9646,0.92 -10.6972,0.92 -4.2129,0 -8.22,-0.3067 -12.0195,-0.92 -1.8998,-0.3066 -3.7466,-0.6885 -5.543,-1.1484 -1.7965,-0.4599 -3.5413,-0.9981 -5.2344,-1.6113 -1.6931,-0.6133 -3.336,-1.3018 -4.9258,-2.0684 -1.5897,-0.7665 -3.1268,-1.6114 -4.6133,-2.5312 -1.4864,-0.9199 -2.9216,-1.9151 -4.3046,-2.9883 -1.3831,-1.0732 -2.7145,-2.2227 -3.9942,-3.4492 -1.2532,-1.2532 -2.4269,-2.5545 -3.5234,-3.9043 -1.0966,-1.3498 -2.1148,-2.7489 -3.0547,-4.1953 -0.9399,-1.4465 -1.8027,-2.9413 -2.5859,-4.4844 -0.7833,-1.5431 -1.4887,-3.1337 -2.1153,-4.7735 -0.6266,-1.6397 -1.1746,-3.328 -1.6445,-5.0644 -0.47,-1.7364 -0.8605,-3.5224 -1.1738,-5.3555 -0.2237,-1.3086 -0.1921,-2.7749 -0.336,-4.1328 -2.8511,0.4169 -5.7426,0.7578 -8.8203,0.7578 -16.8517,0 -30.397,-4.9048 -40.6348,-14.7168 -10.0255,-10.0252 -15.0371,-23.1425 -15.0371,-39.3535 0,-15.7844 4.9065,-28.5826 14.7188,-38.3945 10.0247,-10.0252 22.928,-15.0391 38.7129,-15.0391 z m 0,184.293 c 16.4236,0 30.823,6.6131 43.1953,19.8379 7.1743,7.5393 12.2321,16.3351 15.3164,26.3008 1.7696,-0.1615 3.5562,-0.2696 5.3769,-0.2696 2.053,0 4.0749,0.1039 6.0645,0.3106 1.9896,0.2066 3.9467,0.5164 5.873,0.9297 1.9264,0.4132 3.8226,0.9289 5.6856,1.5488 1.863,0.6199 3.6944,1.3434 5.4941,2.1699 1.7998,0.8266 3.5663,1.7578 5.3028,2.791 1.7364,1.0332 3.4421,2.1684 5.1152,3.4082 1.6731,1.2398 3.314,2.5829 4.9238,4.0293 1.6099,1.4465 3.1879,2.9973 4.7344,4.6504 1.5731,1.6531 3.0493,3.3631 4.4258,5.1328 1.3764,1.7698 2.6542,3.598 3.834,5.4844 1.1798,1.8864 2.2609,3.8309 3.2441,5.834 0.9832,2.003 1.8678,4.0658 2.6543,6.1855 0.7865,2.1197 1.4746,4.2969 2.0645,6.5332 0.5899,2.2364 1.0813,4.5318 1.4746,6.8848 0.3932,2.353 0.6881,4.7647 0.8847,7.2344 0.1967,2.4696 0.295,4.9957 0.295,7.582 0,2.5596 -0.096,5.066 -0.2891,7.5156 -0.1933,2.4497 -0.4825,4.844 -0.8691,7.1836 -0.3867,2.3397 -0.8713,4.6239 -1.4512,6.8535 -0.5799,2.2297 -1.2561,4.4038 -2.0293,6.5235 -0.7732,2.1197 -1.6429,4.1856 -2.6094,6.1953 -0.9665,2.0097 -2.0296,3.9635 -3.1894,5.8633 -1.1599,1.8997 -2.4164,3.7454 -3.7696,5.5351 -1.3531,1.7898 -2.8031,3.5234 -4.3496,5.2032 -1.5464,1.6531 -3.1184,3.2039 -4.7148,4.6503 -1.5965,1.4465 -3.2169,2.7895 -4.8633,4.0293 -1.6464,1.2399 -3.3172,2.3751 -5.0137,3.4082 -1.6964,1.0332 -3.4195,1.9645 -5.166,2.7911 -1.7464,0.8265 -3.518,1.55 -5.3144,2.1699 -1.7965,0.6199 -3.6165,1.1355 -5.4629,1.5488 -1.8465,0.4133 -3.7188,0.7231 -5.6153,0.9297 -1.8964,0.2066 -3.8172,0.3105 -5.7636,0.3105 -2.0263,0 -4.0245,-0.1013 -5.9942,-0.3046 -1.9696,-0.2033 -3.9112,-0.5094 -5.8242,-0.9161 -1.913,-0.4066 -3.7979,-0.9135 -5.6543,-1.5234 -1.8564,-0.6099 -3.6846,-1.3215 -5.4844,-2.1348 -1.7997,-0.8132 -3.5713,-1.7295 -5.3144,-2.7461 -1.7431,-1.0165 -3.4581,-2.1336 -5.1446,-3.3535 -1.6864,-1.2198 -3.3447,-2.5417 -4.9746,-3.9648 -1.6298,-1.4232 -3.2295,-2.9478 -4.8027,-4.5742 -1.5731,-1.6531 -3.0494,-3.3651 -4.4258,-5.1348 -1.3764,-1.7697 -2.6542,-3.598 -3.834,-5.4844 -1.1798,-1.8864 -2.2609,-3.8309 -3.2441,-5.834 -0.9832,-2.003 -1.8678,-4.0639 -2.6543,-6.1836 -0.4813,-1.2971 -0.856,-2.6571 -1.2637,-3.998 -1.739,0.1729 -3.4925,0.2832 -5.2734,0.2832 -16.2104,0 -30.608,-6.5061 -43.1934,-19.5176 -12.5846,-13.2247 -18.8769,-30.1807 -18.8769,-50.8711 0,-21.7568 5.9729,-39.0358 17.9179,-51.834 12.1582,-12.7982 26.3415,-19.1972 42.5528,-19.1972 z"
         style="font-style:normal;font-variant:normal;font-weight:normal;font-stretch:normal;font-size:medium;line-height:125%;font-family:'Arial Black';-inkscape-font-specification:'Arial Black, Normal';text-align:center;letter-spacing:13.16998672px;word-spacing:0px;writing-mode:lr-tb;text-anchor:middle;fill:#0000ff;fill-opacity:1;stroke:none;stroke-width:1px;stroke-linecap:butt;stroke-linejoin:miter;stroke-opacity:1"
         inkscape:connector-curvature="0" />
      <path
         id="path4292"
         d="m -67.0001,1724.2754 c -26.6623,10.4518 -46.3927,25.2756 -59.1914,44.4726 -12.7977,18.984 -19.1973,42.234 -19.1973,69.75 0,28.156 6.8272,53.6455 20.4785,76.4688 6.7363,11.2622 15.0103,21.1692 24.8106,29.7305 l 0,0.01 0.059,0.043 c 6.025,5.2568 12.6367,9.9971 19.8184,14.2344 l 44.1269,31.6934 0.01,-0.01 c -2.3951,-2.087 -4.7093,-4.2462 -6.9219,-6.4941 -2.2963,-2.333 -4.494,-4.7515 -6.5937,-7.2578 -2.0997,-2.5063 -4.1009,-5.0997 -6.0039,-7.7793 -1.9031,-2.6797 -3.7077,-5.4459 -5.4141,-8.2989 -1.7064,-2.8529 -3.3077,-5.7473 -4.8008,-8.6836 -1.4931,-2.9362 -2.8784,-5.914 -4.1582,-8.9335 -1.2798,-3.0197 -2.453,-6.0808 -3.5195,-9.1836 -1.0665,-3.1029 -2.0277,-6.2474 -2.8809,-9.4336 -0.8532,-3.1862 -1.5983,-6.4141 -2.2382,-9.6836 -0.6399,-3.2696 -1.1729,-6.5808 -1.5997,-9.9336 -0.4265,-3.3529 -0.7476,-6.7475 -0.9609,-10.1836 -0.2133,-3.4362 -0.3203,-6.9141 -0.3203,-10.4336 0,-3.4395 0.1008,-6.813 0.3008,-10.1192 0.1999,-3.3061 0.5004,-6.5458 0.9004,-9.7187 0.3999,-3.1729 0.8981,-6.2788 1.498,-9.3184 0.5999,-3.0395 1.3017,-6.0117 2.1016,-8.9179 0.7998,-2.9063 1.6994,-5.7466 2.6992,-8.5196 0.9998,-2.7729 2.099,-5.4795 3.2988,-8.1191 1.1998,-2.6396 2.4987,-5.2124 3.8985,-7.7188 1.3997,-2.5063 2.9002,-4.9453 4.5,-7.3183 1.5998,-2.3997 3.3085,-4.7311 5.125,-6.9942 1.8164,-2.263 3.7403,-4.4576 5.7734,-6.5839 2.0331,-2.1264 4.1741,-4.1842 6.4238,-6.1739 2.2497,-1.9897 4.6079,-3.9125 7.0743,-5.7656 2.4663,-1.8531 5.0416,-3.6371 7.7246,-5.3535 2.6829,-1.7164 5.4735,-3.3636 8.373,-4.9434 2.8996,-1.5797 5.9073,-3.092 9.0234,-4.5351 3.1162,-1.4431 6.3411,-2.8185 9.6739,-4.125 -5.1192,-2.7196 -9.8925,-5.5189 -14.3184,-8.3985 -4.4259,-2.8795 -8.5036,-5.8393 -12.2363,-8.8789 -3.3648,-2.7399 -6.4326,-5.5482 -9.2344,-8.4179 l -28.1022,-20.174 z"
         style="font-style:normal;font-variant:normal;font-weight:normal;font-stretch:normal;font-size:medium;line-height:125%;font-family:'Arial Black';-inkscape-font-specification:'Arial Black, Normal';text-align:center;letter-spacing:13.16998672px;word-spacing:0px;writing-mode:lr-tb;text-anchor:middle;fill:url(#linearGradient4659);fill-opacity:1;stroke:none;stroke-width:1px;stroke-linecap:butt;stroke-linejoin:miter;stroke-opacity:1"
         inkscape:connector-curvature="0" />
      <path
         inkscape:connector-curvature="0"
         id="path5028"
         style="font-style:normal;font-variant:normal;font-weight:normal;font-stretch:normal;font-size:medium;line-height:125%;font-family:'Arial Black';-inkscape-font-specification:'Arial Black, Normal';text-align:center;letter-spacing:13.16998672px;word-spacing:0px;writing-mode:lr-tb;text-anchor:middle;fill:#0000ff;fill-opacity:1;stroke:none;stroke-width:1px;stroke-linecap:butt;stroke-linejoin:miter;stroke-opacity:1"
         d="m -3.1114,1770.1432 q -30.7149,-16.3177 -44.7926,-36.4747 -19.198,-27.516 -19.198,-63.3509 0,-58.8714 55.3529,-96.306 43.1937,-28.7959 114.2231,-28.7959 94.066,0 138.8599,35.8349 45.1137,35.8347 45.1137,90.2268 0,31.6756 -17.9175,59.1916 -13.4383,20.477 -42.2345,39.6742 38.0748,18.2374 56.632,48.313 18.8769,30.0757 18.8769,66.5504 0,35.195 -16.3175,65.9105 -15.9976,30.3955 -39.6736,47.0331 -23.3576,16.6376 -58.552,24.3165 -34.8745,7.9988 -74.5494,7.9988 -74.5495,0 -113.9035,-17.5974 -39.3538,-17.5975 -59.8309,-51.8326 -20.477,-34.2349 -20.477,-76.4688 0,-41.274 19.1966,-69.75 19.1979,-28.7958 59.1914,-44.4735 z m 58.5518,-92.1467 q 0,24.3165 15.0384,39.3543 15.3568,14.718 40.6343,14.718 22.3956,0 36.7945,-14.718 14.3974,-14.7179 14.3974,-38.0744 0,-24.3165 -15.0383,-39.3543 -15.0371,-15.3579 -38.3933,-15.3579 -23.6774,0 -38.7143,15.0379 -14.7187,14.7179 -14.7187,38.3944 z m -7.0388,201.8907 q 0,31.0357 18.8768,50.8727 18.8783,19.5173 43.1938,19.5173 23.3576,0 41.9147,-19.8372 18.5572,-20.1571 18.5572,-50.8727 0,-31.0354 -18.8769,-50.8726 -18.5585,-19.8371 -43.1938,-19.8371 -24.3169,0 -42.5543,19.1973 -17.9175,19.1971 -17.9175,51.8323 z" />
      <path
         id="path4639"
         d="m 38.5858,1499.3477 c -47.353,0 -85.4268,9.5976 -114.2226,28.7949 -36.902,24.9564 -55.3535,57.059 -55.3535,96.3066 0,23.8899 6.3986,45.0076 19.1972,63.3516 9.3852,13.438 24.3164,25.5961 44.793,36.4746 l 28.0996,20.1719 c -0.3064,-0.3138 -0.6262,-0.6241 -0.9258,-0.9395 -3.0395,-3.1995 -5.7318,-6.4803 -8.0781,-9.8398 -1.5998,-2.293 -3.1001,-4.6282 -4.5,-7.0078 -1.3999,-2.3797 -2.6986,-4.8033 -3.8984,-7.2696 -1.1999,-2.4663 -2.3009,-4.9763 -3.3008,-7.5293 -0.9999,-2.5529 -1.8993,-5.1494 -2.6992,-7.789 -0.8,-2.6397 -1.4997,-5.3226 -2.0996,-8.0489 -0.6,-2.7262 -1.1001,-5.4956 -1.5,-8.3086 -0.4,-2.8129 -0.7005,-5.6687 -0.9004,-8.5683 -0.2,-2.8996 -0.2989,-5.8419 -0.2989,-8.8281 0,-4.906 0.2887,-9.7002 0.8653,-14.3828 0.5766,-4.6827 1.4405,-9.2536 2.5937,-13.7129 1.1532,-4.4594 2.5945,-8.8089 4.3242,-13.045 1.7298,-4.236 3.7484,-8.3603 6.0547,-12.373 2.3064,-4.0128 4.9003,-7.9137 7.7832,-11.7031 2.883,-3.7895 6.0541,-7.4671 9.5137,-11.0332 3.4596,-3.5662 7.208,-7.0205 11.2441,-10.3633 4.0362,-3.3429 8.36,-6.5738 12.9727,-9.6934 3.5995,-2.3996 7.3449,-4.6503 11.2344,-6.75 3.8894,-2.0997 7.9241,-4.0479 12.1035,-5.8476 4.1794,-1.7998 8.5033,-3.4495 12.9726,-4.9493 4.4694,-1.4997 9.0845,-2.8509 13.8438,-4.0507 4.7593,-1.1999 9.6636,-2.2486 14.7129,-3.1485 5.0492,-0.8998 10.2428,-1.65 15.582,-2.25 5.3392,-0.5999 10.824,-1.0496 16.4531,-1.3496 5.6292,-0.2999 11.4032,-0.4512 17.3223,-0.4512 7.8388,0 15.4205,0.1873 22.7461,0.5606 7.3256,0.3733 14.3947,0.9331 21.207,1.6797 6.8124,0.7465 13.367,1.6809 19.6661,2.8008 6.2989,1.1198 12.343,2.4248 18.1289,3.9179 5.7858,1.4932 11.3153,3.1727 16.5878,5.0391 5.2726,1.8664 10.2876,3.9205 15.0469,6.1602 4.7593,2.2396 9.2618,4.6663 13.5078,7.2792 0.4813,0.2962 0.9472,0.6034 1.4219,0.9043 l -49.2715,-35.0117 c -1.3282,-1.1327 -2.6776,-2.257 -4.0703,-3.3633 -4.6462,-3.7169 -9.6914,-7.1425 -15.1328,-10.2812 l -0.021,-0.016 0,0 c -29.5303,-17.0252 -70.7638,-25.5391 -123.7032,-25.5391 z m 192.2012,74.2089 10.5469,7.4942 c -3.3097,-2.6478 -6.8335,-5.1399 -10.5469,-7.4942 z"
         style="fill:url(#linearGradient4651);fill-opacity:1;fill-rule:evenodd;stroke:none;stroke-width:1px;stroke-linecap:butt;stroke-linejoin:miter;stroke-opacity:1"
         inkscape:connector-curvature="0" />
      <path
         sodipodi:nodetypes="cscsc"
         inkscape:connector-curvature="0"
         id="path4337"
         d="m 714.96385,928.30851 c 2e-5,0.26849 -0.71435,0.67568 -3.6311,0.67568 -2.91674,0 -3.94899,-0.69728 -3.94897,-0.96577 4e-5,-0.26848 0.24434,-1.31478 3.16104,-1.31478 2.9167,-10e-6 4.41899,1.33639 4.41903,1.60487 z"
         style="color:#000000;clip-rule:nonzero;display:inline;overflow:visible;visibility:visible;opacity:0.731;isolation:auto;mix-blend-mode:normal;color-interpolation:sRGB;color-interpolation-filters:linearRGB;solid-color:#000000;solid-opacity:1;fill:#ffeeaa;fill-opacity:1;fill-rule:evenodd;stroke:none;stroke-width:1px;stroke-linecap:butt;stroke-linejoin:miter;stroke-miterlimit:4;stroke-dasharray:none;stroke-dashoffset:0;stroke-opacity:1;filter:url(#filter4991);color-rendering:auto;image-rendering:auto;shape-rendering:auto;text-rendering:auto;enable-background:accumulate"
         transform="matrix(13.095319,-0.51144689,0.51144689,13.095319,-9707.644,-10266.617)" />
      <g
         transform="translate(1185.7149,761.82843)"
         id="g4339">
        <path
           style="display:inline;opacity:1;fill:url(#radialGradient4345);fill-opacity:1;fill-rule:evenodd;stroke:none;stroke-width:1px;stroke-linecap:butt;stroke-linejoin:miter;stroke-opacity:1"
           d="m -1121.9852,731.77044 c -7.0327,-45.36087 -4.757,-89.85114 14.1727,-137.00257 17.8209,11.81206 13.5628,84.44873 8.7736,137.00257 -3.1006,-9.28 -2.0396,-10.1802 -11.5359,-16.26225 -6.5419,-2.14323 -5.767,-0.4613 -11.4104,16.26225 z"
           id="path4341"
           inkscape:connector-curvature="0"
           sodipodi:nodetypes="ccccc" />
        <path
           style="display:inline;opacity:1;fill:#2e1a0d;fill-opacity:1;fill-rule:evenodd;stroke:none;stroke-width:1px;stroke-linecap:butt;stroke-linejoin:miter;stroke-opacity:1"
           d="m -1114.4231,756.91453 c 4.8885,-10.50888 6.7498,-17.99096 4.4161,-21.27777 -4.0465,-4.20654 -6.4442,1.48038 -9.2338,4.81765 -4.9445,-0.58319 -6.2894,-3.56871 -2.4088,-10.03671 6.2898,-9.05222 12.5794,-10.82222 18.8689,-12.847 2.2293,9.46624 4.8073,18.30747 0.8034,38.94241 z"
           id="path4343"
           inkscape:connector-curvature="0"
           sodipodi:nodetypes="ccccccc" />
      </g>
      <path
         style="font-style:normal;font-variant:normal;font-weight:normal;font-stretch:normal;font-size:medium;line-height:125%;font-family:'Arial Black';-inkscape-font-specification:'Arial Black, Normal';text-align:center;letter-spacing:13.16998672px;word-spacing:0px;writing-mode:lr-tb;text-anchor:middle;fill:none;fill-opacity:1;stroke:#000000;stroke-width:10;stroke-linecap:butt;stroke-linejoin:miter;stroke-opacity:1"
         d="m 90.8535,1567.3379 c -42.5252,0.2258 -87.4531,11.9488 -118.2521,43.1365 -27.6695,28.7168 -34.7062,75.2328 -14.1307,109.7898 10.9393,19.2387 29.6374,32.4937 49.4309,41.5004 11.0317,5.7717 22.2174,11.391 33.2449,17.2374 -28.7413,5.4775 -57.5724,14.6503 -79.4453,34.6855 -20.6171,18.5734 -28.9618,46.7643 -29.4144,73.58 -0.538,38.556 16.3192,78.2393 48.3772,100.8874 31.5259,22.4906 71.7711,26.2212 109.2878,27.694 40.5886,1.0392 82.0183,-1.4591 120.0541,-16.7083 28.8091,-12.2615 51.6749,-36.9751 62.0105,-66.5259 13.7108,-36.8356 9.7096,-81.3322 -16.4891,-111.9292 -19.0681,-22.1246 -46.5768,-34.463 -73.6582,-43.7636 30.7639,-15.6639 63.0365,-36.0303 76.6329,-69.4571 18.1724,-43.9614 -5.4635,-98.6406 -48.3106,-118.5585 -36.3188,-19.5192 -78.7831,-21.7135 -119.3379,-21.5684 z m 17.041,43.0762 c 39.1276,-0.1817 72.8772,38.1096 68.625,76.8476 -0.9342,30.9428 -24.2462,61.0463 -55.6035,65.6387 -32.0864,6.6458 -69.3679,-9.4192 -81.8672,-40.75 -14.4979,-33.1591 -1.7297,-77.7129 31.7427,-93.9498 11.4398,-5.7372 24.3913,-7.8917 37.103,-7.7865 z m -3.709,184.4101 c 43.5936,-0.5604 80.481,40.1668 80.836,82.7852 2.9084,37.9274 -19.2217,78.7131 -56.3067,91.1269 -35.0627,11.8443 -76.4425,-7.1999 -91.8808,-40.4902 -20.2783,-38.4702 -11.9397,-91.7227 23.4256,-118.5835 12.6056,-9.3607 28.1724,-14.8834 43.9259,-14.8384 z"
         id="path4689"
         inkscape:connector-curvature="0" />
      <path
         inkscape:connector-curvature="0"
         id="path4669"
         d="m 94.8535,1563.3379 c -42.5252,0.2258 -87.4531,11.9488 -118.2521,43.1365 -27.6695,28.7168 -34.7062,75.2328 -14.1307,109.7898 10.9393,19.2387 29.6374,32.4937 49.4309,41.5004 11.0317,5.7717 22.2174,11.391 33.2449,17.2374 -28.7413,5.4775 -57.5724,14.6503 -79.4453,34.6855 -20.6171,18.5734 -28.9618,46.7643 -29.4144,73.58 -0.538,38.556 16.3192,78.2393 48.3772,100.8874 31.5259,22.4906 71.7711,26.2212 109.2878,27.694 40.5886,1.0392 82.0183,-1.4591 120.0541,-16.7083 28.8091,-12.2615 51.6749,-36.9751 62.0105,-66.5259 13.7108,-36.8356 9.7096,-81.3322 -16.4891,-111.9292 -19.0681,-22.1246 -46.5768,-34.463 -73.6582,-43.7636 30.7639,-15.6639 63.0365,-36.0303 76.6329,-69.4571 18.1724,-43.9614 -5.4635,-98.6406 -48.3106,-118.5585 -36.3188,-19.5192 -78.7831,-21.7135 -119.3379,-21.5684 z m 17.041,43.0762 c 39.1276,-0.1817 72.8772,38.1096 68.625,76.8476 -0.9342,30.9428 -24.2462,61.0463 -55.6035,65.6387 -32.0864,6.6458 -69.3679,-9.4192 -81.8672,-40.75 -14.4979,-33.1591 -1.7297,-77.7129 31.7427,-93.9498 11.4398,-5.7372 24.3913,-7.8917 37.103,-7.7865 z m -3.709,184.4101 c 43.5936,-0.5604 80.481,40.1668 80.836,82.7852 2.9084,37.9274 -19.2217,78.7131 -56.3067,91.1269 -35.0627,11.8443 -76.4425,-7.1999 -91.8808,-40.4902 -20.2783,-38.4702 -11.9397,-91.7227 23.4256,-118.5835 12.6056,-9.3607 28.1724,-14.8834 43.9259,-14.8384 z"
         style="font-style:normal;font-variant:normal;font-weight:normal;font-stretch:normal;font-size:medium;line-height:125%;font-family:'Arial Black';-inkscape-font-specification:'Arial Black, Normal';text-align:center;letter-spacing:13.16998672px;word-spacing:0px;writing-mode:lr-tb;text-anchor:middle;fill:none;fill-opacity:1;stroke:#ffffff;stroke-width:10;stroke-linecap:butt;stroke-linejoin:miter;stroke-opacity:1" />
    </g>
  </g>
</svg>
