<?xml version="1.0" encoding="UTF-8" standalone="no"?>
<!-- Created with Inkscape (http://www.inkscape.org/) -->

<svg
   version="1.1"
   id="svg2"
   width="173.12"
   height="37.439999"
   viewBox="0 0 173.12 37.439999"
   sodipodi:docname="hood.svg"
   inkscape:version="1.2.1 (9c6d41e410, 2022-07-14)"
   xmlns:inkscape="http://www.inkscape.org/namespaces/inkscape"
   xmlns:sodipodi="http://sodipodi.sourceforge.net/DTD/sodipodi-0.dtd"
   xmlns="http://www.w3.org/2000/svg"
   xmlns:svg="http://www.w3.org/2000/svg">
  <sodipodi:namedview
     id="namedview201"
     pagecolor="#ffffff"
     bordercolor="#000000"
     borderopacity="0.25"
     inkscape:showpageshadow="2"
     inkscape:pageopacity="0.0"
     inkscape:pagecheckerboard="0"
     inkscape:deskcolor="#d1d1d1"
     showgrid="false"
     inkscape:zoom="3.7835029"
     inkscape:cx="59.733006"
     inkscape:cy="16.519083"
     inkscape:window-width="1920"
     inkscape:window-height="1001"
     inkscape:window-x="-9"
     inkscape:window-y="-9"
     inkscape:window-maximized="1"
     inkscape:current-layer="svg2" />
  <defs
     id="defs6" />
  <path
     style="fill:#666666;stroke-width:0.32"
     d="M 22.124674,33.668911 C 21.941149,32.813167 21.907061,31.648698 22.047392,31.028912 22.185484,30.41901 22.537314,29.45915 22.829235,28.89589 23.121156,28.332631 23.36,27.567164 23.36,27.194853 c 0,-0.37231 -0.149067,-0.955461 -0.331259,-1.295891 -0.182192,-0.34043 -0.650192,-0.623342 -1.04,-0.628694 l -0.708741,-0.0097 0.56,-0.32617 c 0.308,-0.179394 0.56,-0.447404 0.56,-0.595579 0,-0.148175 -0.371652,-0.362687 -0.825894,-0.476695 -0.454242,-0.114007 -1.39179,-0.581778 -2.083439,-1.039489 -0.691649,-0.457742 -1.831997,-1.692484 -2.534106,-2.7439 C 16.254452,19.027319 15.68,18.307205 15.68,18.478482 c 0,0.171277 -0.578643,0.968785 -1.285874,1.772241 -0.781811,0.888185 -1.84805,1.675527 -2.72,2.008528 C 10.885357,22.560485 10.24,22.902585 10.24,23.019474 c 0,0.116889 0.1728,0.385325 0.384,0.596525 l 0.384,0.384 h -0.852741 c -0.5338564,0 -0.9848331,0.246816 -1.205972,0.660018 -0.1942768,0.363009 -0.3651638,1.079727 -0.3797491,1.592706 -0.017603,0.619126 0.3758259,1.446155 1.1702471,2.459983 l 1.196766,1.527293 -0.152685,1.392981 c -0.08398,0.766139 -0.392899,1.630139 -0.686494,1.920002 l -0.5338094,0.527017 0.4962474,-0.96 c 0.272936,-0.528 0.497134,-1.414376 0.498218,-1.969723 L 10.56,30.140552 9.4592784,28.823074 C 8.8538813,28.098461 8.2715325,27.231407 8.1651696,26.896287 c -0.1063632,-0.33512 0.021613,-1.123879 0.284393,-1.752798 0.3046732,-0.729186 0.3535593,-1.14349 0.1349267,-1.14349 -0.2167178,0 -0.1939341,-0.179437 0.061929,-0.487733 0.22263,-0.268253 0.348262,-0.527955 0.279182,-0.577116 C 8.85652,22.885989 8.1773728,22.574807 7.4163843,22.243634 6.6553955,21.912461 5.4031357,20.941198 4.633585,20.085272 3.8640339,19.229347 2.938661,17.738607 2.5772007,16.772518 2.1709743,15.68678 1.9211938,14.256808 1.923126,13.027995 L 1.9262521,11.04 2.6807756,9.4399997 C 3.0957636,8.5599998 3.7803219,7.5228728 4.2020166,7.1352728 4.6237114,6.7476728 5.542769,6.188429 6.244367,5.8925083 7.0015178,5.5731567 8.3823901,5.3527253 9.6417578,5.3501765 l 2.1217572,-0.00429 1.486943,0.7198166 c 0.817818,0.3958992 1.873203,1.2450758 2.345298,1.8870588 0.472096,0.6419834 0.883395,1.2104563 0.913998,1.2632736 0.0306,0.052817 0.535532,-0.3422806 1.122065,-0.8779952 0.586532,-0.5357145 1.575318,-1.150535 2.197302,-1.3662678 C 20.451104,6.7560353 21.896,6.5854507 23.04,6.592691 c 1.351733,0.00855 2.472144,0.2147197 3.2,0.588825 0.616,0.3166134 1.3652,0.7904598 1.664888,1.0529923 l 0.544888,0.4773311 0.212966,-0.9159196 c 0.117132,-0.5037562 0.546827,-1.5020265 0.95488,-2.2183788 0.408053,-0.7163523 1.304322,-1.6922077 1.991709,-2.1685673 0.709405,-0.4916191 2.002247,-0.9885732 2.990039,-1.1493409 1.033065,-0.1681356 2.382054,-0.1633295 3.319622,0.011827 0.868656,0.1622826 2.120746,0.6533211 2.782419,1.0911966 0.661674,0.4378755 1.435923,1.1515549 1.720554,1.5859539 l 0.517507,0.7898163 0.839693,-0.997919 c 0.46183,-0.5488554 1.465693,-1.2748288 2.230806,-1.6132743 0.876208,-0.3875879 2.13608,-0.6196533 3.403779,-0.6269667 1.326688,-0.00765 2.492148,0.2017917 3.41946,0.6145125 0.773734,0.3443682 1.853616,1.0860997 2.399737,1.6482923 0.546119,0.5621926 1.179466,1.5873293 1.407434,2.2780809 L 57.05487,8.2970648 57.977373,7.5208296 C 58.484749,7.0939004 59.435402,6.5958639 60.089936,6.4140818 60.74447,6.2322997 62.072,6.0841727 63.04,6.0849106 c 1.176755,8.96e-4 2.298586,0.2521299 3.385235,0.7581216 0.893882,0.4162291 1.941331,1.1586291 2.327671,1.6497782 L 69.455338,9.3858081 70.48767,8.3245746 C 71.05545,7.7408962 72.096,7.000252 72.8,6.6786984 c 0.820893,-0.3749449 2.026048,-0.5846428 3.36,-0.5846428 1.350458,0 2.52895,0.2078566 3.36,0.5926204 0.704,0.3259415 1.690682,1.029984 2.192627,1.5645389 l 0.912631,0.9719177 1.327369,-1.3781372 C 84.775715,6.9904293 85.766288,6.3332642 86.56,6.1152137 c 0.704,-0.1934045 2,-0.3516445 2.88,-0.3516445 0.88,0 2.155075,0.1541283 2.833504,0.3425075 0.678426,0.1883789 1.843741,0.9050048 2.589587,1.5925014 l 1.356083,1.2499945 0.770413,-0.8254281 c 0.423728,-0.4539856 1.320263,-1.1073654 1.992298,-1.4519552 0.672038,-0.3445897 1.916145,-0.7087516 2.764685,-0.8092483 0.84853,-0.1004966 2.29977,-0.00112 3.22496,0.220824 1.1057,0.2652541 2.12189,0.7999846 2.96533,1.5603901 0.70574,0.6362646 1.5455,1.7328447 1.86613,2.4368449 0.37533,0.824118 0.58546,2.045024 0.58998,3.427996 0.005,1.391402 -0.22216,2.760554 -0.64364,3.88707 -0.35787,0.95649 -1.22349,2.389832 -1.92361,3.185203 -0.70011,0.79537 -1.95531,1.769488 -2.78932,2.164706 -0.83402,0.395217 -1.57292,0.763798 -1.642,0.819068 -0.0691,0.05527 0.0566,0.31997 0.27918,0.588223 l 0.40478,0.487733 h -0.7239 c -0.39815,0 -0.9152,0.252 -1.149,0.56 -0.23381,0.308 -0.42968,1.014376 -0.43528,1.569724 l -0.0102,1.009724 1.10072,1.317478 c 0.6054,0.724612 1.19182,1.604498 1.30316,1.9553 0.11134,0.350802 0.0406,1.128043 -0.15709,1.727201 -0.19774,0.599159 -0.59331,1.280896 -0.87905,1.514976 l -0.51951,0.425597 0.56733,-0.871814 c 0.31202,-0.479501 0.58139,-1.368013 0.59858,-1.974474 l 0.0313,-1.102656 -1.18269,-1.518043 C 101.83326,28.239733 101.44,27.401301 101.44,26.731484 c 0,-0.551916 0.18,-1.194285 0.4,-1.427485 l 0.4,-0.424 -0.41956,-0.153187 -0.41956,-0.153187 0.52045,-0.5751 0.52046,-0.5751 -1.08927,-0.359491 c -0.5991,-0.19772 -1.566779,-0.711788 -2.150405,-1.142373 -0.583622,-0.430585 -1.528192,-1.439808 -2.09904,-2.242717 l -1.037904,-1.459835 -0.650169,1.050495 c -0.357594,0.577773 -1.05626,1.438775 -1.552586,1.913339 -0.49633,0.474564 -1.595222,1.169198 -2.441987,1.543631 l -1.539568,0.680787 0.378752,0.456369 0.378752,0.456369 h -0.353059 c -0.232189,0 -0.288173,0.473428 -0.163524,1.382846 l 0.189543,1.382845 -0.714173,1.39989 -0.71417,1.39989 0.156429,2.257265 c 0.08836,1.275082 0.04529,1.978787 -0.099,1.617264 -0.140487,-0.352 -0.265552,-1.401737 -0.27792,-2.332748 -0.0146,-1.098906 0.202029,-2.132848 0.617507,-2.947252 0.352,-0.689977 0.64,-1.629707 0.64,-2.088289 0,-0.458582 -0.149066,-1.112318 -0.331258,-1.452748 -0.182192,-0.34043 -0.559824,-0.618963 -0.839184,-0.618963 h -0.507923 l 0.373469,-0.450001 0.373469,-0.450002 -1.716784,-0.785969 C 86.123709,22.108418 85.142138,21.329956 84.308653,20.284029 83.623162,19.423813 83.001571,18.648 82.927341,18.56 c -0.07423,-0.088 -0.196547,0.0119 -0.271821,0.222007 -0.07527,0.210104 -0.570803,0.930104 -1.101181,1.599999 -0.530381,0.669897 -1.550749,1.613993 -2.267485,2.097993 -0.716739,0.484 -1.569494,0.88 -1.895008,0.88 -0.325516,0 -0.591846,0.1872 -0.591846,0.416 0,0.2288 0.1728,0.5888 0.384,0.8 l 0.384,0.384 h -0.514048 -0.514048 l 0.32552,1.060639 0.32552,1.060638 -0.870285,1.71742 -0.870281,1.71742 0.153036,1.621941 c 0.08417,0.892067 0.24601,1.909942 0.359639,2.261942 0.113629,0.352 -0.0051,0.208 -0.263795,-0.32 -0.258714,-0.528 -0.476887,-1.580918 -0.484826,-2.339816 -0.0088,-0.844516 0.305725,-2.05657 0.810819,-3.124251 l 0.825248,-1.744434 -0.288973,-0.866923 C 76.387043,25.481125 75.966272,25.06535 75.499501,24.95516 l -0.77305,-0.182492 0.396775,-0.24522 C 75.341453,24.392577 75.52,24.074727 75.52,23.821114 c 0,-0.253613 -0.263312,-0.461115 -0.585139,-0.461115 -0.321824,0 -1.249661,-0.440163 -2.061859,-0.97814 -0.812196,-0.537977 -1.898708,-1.61522 -2.414464,-2.393874 l -0.937744,-1.415734 -1.241184,1.663923 -1.241184,1.663924 -1.841776,0.94192 -1.84178,0.94192 0.53216,0.588031 0.532164,0.58803 h -0.970775 -0.970774 l -0.395072,0.953789 c -0.21729,0.524583 -0.307725,1.301802 -0.20097,1.727153 0.106755,0.425351 0.699069,1.377771 1.31625,2.116488 0.617181,0.738718 1.122147,1.622123 1.122147,1.963124 0,0.341001 -0.208653,1.119376 -0.46367,1.729725 -0.255021,0.610345 -0.535674,1.109721 -0.623674,1.109721 -0.088,0 0.05913,-0.524451 0.326957,-1.165449 0.267824,-0.640996 0.407907,-1.480394 0.311296,-1.86533 -0.09661,-0.384936 -0.681693,-1.336484 -1.300179,-2.114552 -0.727242,-0.914885 -1.125616,-1.759477 -1.127623,-2.390669 -0.0016,-0.5368 0.176893,-1.1668 0.396893,-1.4 l 0.4,-0.424 -0.419562,-0.153187 -0.419561,-0.153187 0.529465,-0.585053 0.529466,-0.585053 -1.627229,-0.700016 C 59.937603,22.638495 58.68361,21.745985 58.045926,21.040147 57.408246,20.33431 56.53591,18.991004 56.107405,18.055024 l -0.779104,-1.701783 -1.106823,1.225124 c -0.608755,0.673818 -1.836169,1.538877 -2.727587,1.922355 l -1.620758,0.697232 0.382617,0.461024 0.382615,0.461023 h -0.695511 -0.69551 l -0.477782,1.14349 c -0.262778,0.628919 -0.393968,1.407557 -0.29153,1.730307 0.102435,0.32275 0.683389,1.21218 1.291002,1.976511 0.661404,0.831995 1.106,1.749222 1.107859,2.285583 0.0016,0.492741 -0.216592,1.320741 -0.485111,1.84 -0.268518,0.51926 -0.560217,0.944109 -0.648217,0.944109 -0.088,0 0.0597,-0.424849 0.328217,-0.944109 0.268519,-0.519259 0.488218,-1.35734 0.488218,-1.8624 0,-0.593991 -0.412221,-1.399879 -1.167245,-2.281955 -0.734576,-0.858187 -1.160806,-1.680196 -1.149878,-2.217599 0.0095,-0.469665 0.08177,-1.324896 0.160486,-1.900512 0.07872,-0.575617 0.236163,-1.139617 0.349879,-1.253333 C 48.86696,20.466374 48.96,20.276126 48.96,20.157318 48.96,20.03851 48.416378,19.77843 47.751949,19.579363 47.08752,19.380295 45.921072,18.601502 45.15984,17.848711 44.398608,17.09592 43.565555,16.074372 43.308611,15.578604 l -0.467174,-0.901394 -0.893085,1.232868 c -0.491197,0.678077 -1.327389,1.59831 -1.858205,2.044962 -0.530816,0.446652 -1.452249,1.006342 -2.047632,1.243756 -0.595382,0.237413 -1.139037,0.475328 -1.208115,0.528699 -0.06908,0.05337 0.05655,0.316518 0.279181,0.584771 l 0.404784,0.487733 h -0.661037 c -0.363571,0 -0.885203,0.320041 -1.159184,0.711202 -0.273978,0.391162 -0.498144,1.154362 -0.498144,1.696 0,0.541639 0.18,1.186653 0.4,1.433365 l 0.4,0.448567 -0.56,-0.423749 c -0.354998,-0.268626 -0.56,-0.85455 -0.56,-1.600567 0,-0.64725 0.178797,-1.355614 0.397325,-1.574143 L 35.67465,21.093349 35.197325,20.791574 C 34.878672,20.590115 34.852966,20.488171 35.12,20.4849 c 0.22,-0.0027 0.4,-0.191973 0.4,-0.420616 0,-0.228644 -0.525933,-0.605896 -1.168742,-0.838339 -0.642807,-0.232442 -1.781284,-0.987244 -2.529947,-1.677337 l -1.361205,-1.254715 -0.51903,1.533053 c -0.285466,0.84318 -0.939083,2.088101 -1.452482,2.766492 -0.513398,0.678392 -1.485979,1.639772 -2.161291,2.136402 -0.675311,0.496629 -1.619218,1.001193 -2.097571,1.121252 C 23.75138,23.97115 23.36,24.190614 23.36,24.338789 c 0,0.148175 0.252,0.416185 0.56,0.595579 l 0.56,0.32617 -0.52955,0.0097 -0.52955,0.0097 0.164267,1.224699 0.164266,1.224697 -0.712823,1.39725 -0.712823,1.397249 0.150047,2.338054 c 0.08253,1.285926 0.111606,2.338051 0.06462,2.338051 -0.04698,0 -0.233186,-0.688989 -0.413783,-1.531088 z m 1.190659,-13.677578 c 0.0891,-0.0891 0.01223,-0.311772 -0.170825,-0.494826 l -0.332826,-0.332825 0.584298,-3.194837 c 0.321363,-1.75716 0.804735,-3.415274 1.074159,-3.684698 C 24.739562,12.014723 24.96,11.732571 24.96,11.657142 24.96,11.581714 24.384,11.52 23.68,11.52 H 22.4 V 12 c 0,0.264 0.125813,0.48 0.279586,0.48 0.153771,0 0.0022,1.546531 -0.336897,3.436735 -0.388661,2.166688 -0.790109,3.533902 -1.086316,3.699667 -0.258409,0.144613 -0.377341,0.412589 -0.264294,0.595503 0.115606,0.187054 0.633403,0.246998 1.183397,0.136999 0.537822,-0.107564 1.050757,-0.268471 1.139857,-0.357571 z M 61.556323,17.836163 61.832646,16 h 0.880711 0.880707 l -0.263094,1.36 c -0.144704,0.748 -0.26937,1.611999 -0.277034,1.919999 -0.0082,0.329944 0.221363,0.56 0.558826,0.56 h 0.572761 l 0.712528,-4.368045 c 0.391888,-2.402424 0.658755,-4.421814 0.593037,-4.487532 -0.06572,-0.06572 -0.347011,-0.03218 -0.625094,0.07453 -0.313133,0.12016 -0.604663,0.814761 -0.765802,1.824615 l -0.260192,1.6306 -0.916413,0.24498 -0.916413,0.24498 0.169652,-0.862064 C 62.270134,13.667928 62.446547,12.74 62.568851,12.08 c 0.122307,-0.66 0.09835,-1.197795 -0.05324,-1.1951 -0.151587,0.0027 -0.448061,0.114526 -0.658832,0.248514 -0.210771,0.133988 -0.678771,1.884967 -1.04,3.891065 -0.361229,2.006098 -0.656781,3.920825 -0.656781,4.25495 0,0.406112 0.185638,0.571928 0.56,0.500198 l 0.56,-0.1073 z m 15.069341,1.805059 c 0.284902,-0.109328 0.709306,-0.577328 0.943117,-1.04 0.233814,-0.462673 0.616339,-2.04097 0.850061,-3.507328 l 0.42495,-2.666106 -0.334854,-0.533894 c -0.223082,-0.355685 -0.864522,-0.565482 -1.921677,-0.628529 l -1.586819,-0.09463 -0.700221,3.972353 C 73.915098,17.327878 73.6,19.278464 73.6,19.477719 c 0,0.208067 0.533722,0.36228 1.253827,0.36228 0.689607,0 1.486931,-0.08945 1.771837,-0.198777 z M 75.480845,15.52 75.961469,12.48 h 0.739264 c 0.406598,0 0.739267,0.152261 0.739267,0.338358 0,0.186098 -0.16545,1.374098 -0.367667,2.64 C 76.870118,16.724261 76.564486,17.94 76.393152,18.16 c -0.171334,0.22 -0.554835,0.4 -0.852224,0.4 h -0.540704 z m 27.859455,0.03274 c 1.41883,-2.357991 2.5797,-4.373991 2.5797,-4.48 0,-0.10601 -0.28193,-0.192744 -0.62651,-0.192744 -0.40868,0 -0.93717,0.528484 -1.52,1.52 l -0.89349,1.52 -0.29363,-1.52 -0.29363,-1.52 h -0.74637 c -0.4105,0 -0.74637,0.08436 -0.74637,0.187477 0,0.103112 0.24896,1.12181 0.55325,2.263773 l 0.55326,2.076297 -1.21201,2.216226 -1.21201,2.216226 h 0.63905 0.63906 z M 88.508595,18.719999 C 88.63424,18.21938 88.935904,17.92 89.314691,17.92 H 89.92 v 0.799999 0.8 h 0.605482 0.605481 L 91.338614,16.24 c 0.114208,-1.804 0.286397,-3.82 0.382647,-4.48 l 0.174995,-1.2 H 90.917885 89.93951 l -1.289753,4.090913 C 87.94039,16.900914 87.36,18.916914 87.36,19.130912 c 0,0.213998 0.213258,0.389087 0.473904,0.389087 0.260646,0 0.564256,-0.36 0.674691,-0.8 z M 89.3048,16.4 c 0.01363,-0.308 0.30327,-1.28 0.643622,-2.16 l 0.618823,-1.6 -0.163623,1.08 C 90.313629,14.314 90.24,15.286 90.24,15.88 v 1.08 h -0.48 c -0.264,0 -0.468838,-0.252 -0.4552,-0.56 z m -78.494021,1.660427 0.730779,-0.841178 -0.04011,-1.329625 C 11.479388,15.15833 11.64447,13.962301 11.868295,13.23178 L 12.275253,11.903561 11.718797,11.054301 11.16234,10.205041 9.8314672,10.30252 8.5005939,10.4 7.7744864,14.543703 7.0483789,18.687407 7.4441894,18.955306 C 7.6618851,19.10265 8.344,19.150845 8.96,19.062405 c 0.6667402,-0.09572 1.415744,-0.501221 1.850779,-1.001978 z M 8.6997254,16.88 8.8,15.84 h 0.6356176 c 0.3574019,0 0.6841184,0.251845 0.7464244,0.575372 0.06094,0.316455 -0.06272,0.784455 -0.2748001,1.04 C 9.6951584,17.710917 9.3141437,17.92 9.060543,17.92 H 8.5994506 Z m 0.5851748,-3.52 c 0.00269,-0.572 0.1321619,-1.240984 0.287704,-1.48663 0.164976,-0.260545 0.5103898,-0.359296 0.8290418,-0.237018 l 0.546238,0.209611 -0.219668,0.875228 C 10.607399,13.202567 10.358492,13.777225 10.175092,13.99821 9.9916906,14.219194 9.7152675,14.4 9.5608176,14.4 9.406368,14.4 9.2822051,13.932 9.2849002,13.36 Z m 39.0959258,2.56 c 0.276732,-0.22 0.597017,-1.048 0.711747,-1.84 0.114726,-0.792 0.362614,-2.34 0.550861,-3.44 l 0.342265,-2.0000002 h 0.889827 0.889831 l 0.167363,-0.64 0.167363,-0.64 H 49.570042 47.04 v 0.64 0.64 h 0.753146 0.753148 L 47.963786,12.4 c -0.320378,2.068 -0.587293,3.796 -0.593146,3.84 -0.0059,0.044 0.105837,0.08 0.248198,0.08 0.142362,0 0.485258,-0.18 0.761988,-0.4 z M 35.198842,14.245579 c 0.20032,-0.964931 0.485532,-1.829398 0.633811,-1.921038 0.148275,-0.09164 0.509299,-0.07463 0.802275,0.03779 0.345552,0.132601 0.478157,0.442106 0.377469,0.881038 C 36.927027,13.615517 36.760874,14.388 36.643165,14.96 L 36.429149,16 h 0.642739 0.642736 l 0.300282,-1.68 c 0.165155,-0.924 0.31359,-2.112 0.329856,-2.64 0.01626,-0.528 0.120259,-1.548802 0.2311,-2.2684479 l 0.201527,-1.308448 -0.531552,-0.531552 C 37.934563,7.2602785 37.203853,7.0399998 36.48257,7.0399998 h -1.231719 l -0.176595,0.88 C 34.97713,8.4039998 34.673101,10.096 34.398634,11.68 34.12417,13.264 33.82945,14.884 33.743706,15.28 L 33.587808,16 h 0.623408 0.623408 z M 35.958307,10.16 c 0.106125,-0.3960003 0.194922,-0.9720002 0.197325,-1.2800002 0.0026,-0.308 0.224886,-0.56 0.49441,-0.56 0.269526,0 0.573056,0.2163219 0.674512,0.4807155 0.101459,0.2643936 0.09419,0.8403936 -0.01613,1.2799997 C 37.17424,10.615302 36.885517,10.88 36.436582,10.88 H 35.765357 Z M 19.876845,9.006362 C 20.29658,8.6798612 21.189247,8.3116014 21.860548,8.1880068 22.592641,8.0532199 23.030246,7.8105579 22.954031,7.5816446 22.884145,7.37174 22.597742,7.1555294 22.31758,7.1011768 22.037419,7.0468241 21.252902,7.1518788 20.57421,7.3346315 19.895519,7.5173844 19.069277,7.8650311 18.738119,8.1071799 18.367932,8.3778673 18.2138,8.7501617 18.337963,9.0737252 c 0.111073,0.2894512 0.33105,0.5262745 0.488839,0.5262745 0.157789,0 0.630308,-0.2671369 1.050043,-0.5936377 z M 60.072682,8.3199998 c 0.447494,-0.352 1.070432,-0.64 1.3843,-0.64 0.313872,0 0.798452,-0.087406 1.076845,-0.1942365 0.278397,-0.1068301 0.506173,-0.3228301 0.506173,-0.48 0,-0.1571699 -0.54,-0.2855398 -1.2,-0.2852662 -0.66,2.736e-4 -1.703578,0.2522736 -2.319059,0.56 -0.615485,0.3077264 -1.166042,0.8115027 -1.223466,1.1195027 -0.06543,0.3509776 0.09454,0.56 0.428589,0.56 0.293142,0 0.899123,-0.288 1.346618,-0.64 z m 13.181024,0.1103993 c 0.415862,-0.2912803 1.193136,-0.6189817 1.727276,-0.7282252 0.534144,-0.1092435 1.029933,-0.3749235 1.10176,-0.5903994 0.08651,-0.2595417 -0.249404,-0.3917747 -0.995244,-0.3917747 -0.61921,0 -1.472864,0.1319402 -1.897008,0.2932003 -0.424148,0.1612599 -1.010845,0.5328691 -1.303773,0.8257981 -0.292931,0.2929289 -0.450778,0.6649891 -0.350771,0.8268 0.100003,0.1618108 0.357286,0.2942016 0.571737,0.2942016 0.214451,0 0.730163,-0.2383204 1.146023,-0.5296007 z M 86.632682,7.9999998 c 0.447494,-0.352 1.070432,-0.64 1.3843,-0.64 0.313872,0 0.798452,-0.087406 1.076845,-0.1942365 0.278397,-0.10683 0.506173,-0.32283 0.506173,-0.48 0,-0.1571699 -0.612,-0.2852252 -1.36,-0.2845673 -0.790678,7.04e-4 -1.795363,0.2666422 -2.4,0.6352966 -0.572,0.3487552 -1.04,0.8522166 -1.04,1.1188038 0,0.2665869 0.229286,0.4847034 0.509526,0.4847034 0.28024,0 0.875661,-0.288 1.323156,-0.64 z m 13.044169,0.3250944 c 0.107043,-0.1731978 0.843979,-0.5042496 1.637649,-0.7356704 0.79366,-0.2314205 1.42877,-0.5577133 1.41136,-0.7250944 -0.0174,-0.1673814 -0.68066,-0.280432 -1.47389,-0.2512237 -0.79321,0.029206 -1.79541,0.2845277 -2.227093,0.567377 C 98.593194,7.4633316 98.24,7.907434 98.24,8.1673767 c 0,0.2599428 0.279501,0.4726231 0.621114,0.4726231 0.341612,0 0.708694,-0.1417075 0.815737,-0.3149056 z M 6.56,7.6799998 C 7.088,7.3303192 7.808,7.0410632 8.16,7.0372081 8.512,7.0333521 9.0147962,6.8944011 9.2773251,6.7284248 L 9.7546502,6.4266501 9.3832006,6.0552005 9.011751,5.6837509 7.4123306,6.0674459 C 6.5326493,6.2784782 5.5708989,6.7185605 5.2751072,7.0454062 4.9793158,7.372252 4.8319098,7.7927451 4.9475379,7.9798356 5.0631661,8.1669259 5.2572723,8.319051 5.3788854,8.3178913 5.5004986,8.3167316 6.032,8.0296804 6.56,7.6799998 Z M 46.632682,4.7999999 c 0.447494,-0.352 1.118208,-0.6422051 1.490473,-0.6449002 0.372266,-0.00269 0.892845,-0.146695 1.156845,-0.32 L 49.76,3.5199999 49.295072,3.2209858 C 49.03936,3.0565281 48.39136,3.0050939 47.855072,3.1066877 47.318781,3.2082815 46.493133,3.4858137 46.020291,3.7234261 45.547453,3.9610383 45.070954,4.3004725 44.961408,4.477724 44.851859,4.6549759 44.851226,4.9439999 44.96,5.1199999 c 0.108774,0.176 0.34656,0.32 0.528413,0.32 0.181853,0 0.696774,-0.288 1.144269,-0.64 z M 33.28,4.4799999 c 0.44,-0.3441731 1.061466,-0.6289709 1.381037,-0.6328845 0.319571,-0.00391 0.879024,-0.1665936 1.243232,-0.3615113 L 36.566464,3.1312083 36.123232,2.8508932 C 35.879453,2.6967199 35.176,2.6594434 34.56,2.7680565 33.944,2.8766696 33.053133,3.1612654 32.580291,3.4004917 32.107453,3.639718 31.630954,3.9804725 31.521406,4.157724 31.411859,4.3349759 31.411226,4.6239999 31.52,4.7999999 c 0.108774,0.176 0.369272,0.316798 0.578886,0.3128844 C 32.308499,5.1089707 32.84,4.824173 33.28,4.4799999 Z M 123.99178,33.93589 c 0.26852,-0.51926 0.48822,-1.422451 0.48822,-2.00709 0,-0.69437 -0.31587,-1.448905 -0.91088,-2.175891 -0.50099,-0.6121 -1.06328,-1.401834 -1.24955,-1.754963 l -0.33865,-0.642053 0.41183,-1.197946 0.41183,-1.197948 h -0.34629 c -0.22744,0 -0.21449,-0.131793 0.0377,-0.384 0.2112,-0.2112 0.384,-0.5532 0.384,-0.76 0,-0.2068 -0.396,-0.455519 -0.88,-0.55271 -0.484,-0.09719 -1.384,-0.571902 -2,-1.054914 -0.616,-0.483012 -1.46625,-1.299131 -1.88944,-1.813598 -0.42319,-0.514468 -1.12432,-1.813984 -1.55806,-2.887814 l -0.78861,-1.952419 0.14645,-2.257272 c 0.0806,-1.2415 0.37231,-2.692265 0.64835,-3.223923 0.27604,-0.5316584 0.91126,-1.380268 1.4116,-1.8857995 0.50034,-0.5055315 1.48571,-1.1833759 2.18971,-1.5063209 0.82414,-0.3780592 2.02076,-0.5871731 3.36,-0.5871731 1.35022,0 2.54331,0.2103904 3.40052,0.5996515 0.72629,0.3298083 1.41879,0.7586458 1.53889,0.9529722 0.1201,0.1943264 0.34712,0.3533206 0.5045,0.3533206 0.15738,0 0.56216,-0.612 0.89951,-1.36 0.33736,-0.748 1.0281,-1.7483609 1.53498,-2.2230246 0.50688,-0.4746636 1.4976,-1.1041919 2.2016,-1.3989517 0.7195,-0.301251 2.131,-0.5363861 3.22342,-0.5369753 1.25704,-6.784e-4 2.44374,0.2244239 3.36,0.6373515 0.77912,0.3511199 1.83679,1.0862754 2.35039,1.6336786 l 0.93382,0.995279 1.02907,-1.0596083 c 0.566,-0.5827846 1.58017,-1.3211164 2.25372,-1.6407376 0.79984,-0.3795496 1.95047,-0.5796395 3.31711,-0.5768348 1.23438,0.00253 2.61738,0.2256328 3.37247,0.5440341 0.704,0.2968571 1.65888,0.9026446 2.12196,1.3461946 0.46309,0.4435498 1.10338,1.407911 1.42289,2.1430246 0.31951,0.7351133 0.60385,1.3758022 0.63188,1.4237532 0.028,0.047951 0.87836,-0.3480492 1.88962,-0.8799999 l 1.83864,-0.9671834 1.80751,0.00179 c 0.99412,9.92e-4 2.35144,0.1528368 3.01625,0.3374563 0.66481,0.1846196 1.71729,0.7821824 2.33885,1.3279178 0.62156,0.5457353 1.44313,1.5818796 1.82572,2.3025431 l 0.6956,1.310298 6.4e-4,2.56 6.4e-4,2.56 -0.69258,1.509513 c -0.38092,0.830232 -1.35626,2.219037 -2.16742,3.086232 -0.81116,0.867196 -1.86534,1.722417 -2.34263,1.900492 -0.47729,0.178075 -1.1394,0.412272 -1.47136,0.520439 l -0.60355,0.196667 0.57315,0.633328 0.57316,0.633329 h -0.51295 -0.51295 l 0.33123,0.950184 0.33124,0.950184 -0.85529,1.807931 -0.85529,1.807932 0.12858,1.641884 c 0.0707,0.903036 0.24824,1.929884 0.3945,2.281884 l 0.26593,0.64 -0.42633,-0.395235 c -0.23449,-0.217382 -0.48726,-1.237382 -0.56171,-2.266672 l -0.13536,-1.871433 0.82531,-1.744576 0.82532,-1.744576 -0.25226,-0.948753 c -0.16719,-0.628847 -0.48776,-0.983234 -0.95071,-1.051011 -0.38392,-0.05625 -0.69823,-0.236248 -0.69823,-0.400007 0,-0.163759 0.144,-0.297744 0.32,-0.297744 0.176,0 0.32,-0.127101 0.32,-0.282448 0,-0.155346 -0.78594,-0.666972 -1.74653,-1.136946 -0.96565,-0.472446 -2.1807,-1.402669 -2.71757,-2.080535 -0.53408,-0.67432 -1.3158,-1.970169 -1.73718,-2.879664 l -0.76614,-1.653628 -0.59629,0.746374 c -0.32796,0.410505 -1.10029,1.126768 -1.71629,1.591696 -0.616,0.464927 -1.516,0.944145 -2,1.064927 -0.484,0.120783 -0.88,0.319195 -0.88,0.440915 0,0.12172 0.1728,0.394109 0.384,0.605309 l 0.384,0.384 h -0.3985 -0.3985 l 0.2125,1.132709 0.21249,1.132708 -0.88127,1.963736 -0.88127,1.963736 0.32782,1.783556 c 0.1803,0.980955 0.28227,1.833058 0.2266,1.893562 -0.0557,0.0605 -0.25491,-0.443496 -0.44276,-1.12 -0.18785,-0.676504 -0.34094,-1.590007 -0.3402,-2.030007 6.4e-4,-0.44 0.35993,-1.570298 0.79822,-2.511775 0.43828,-0.941476 0.79687,-1.994942 0.79687,-2.341037 0,-0.346094 -0.14907,-0.907795 -0.33126,-1.248225 -0.18219,-0.340429 -0.64171,-0.618963 -1.02116,-0.618963 h -0.6899 l 0.60608,-0.443177 0.60608,-0.443177 -1.66225,-0.715078 c -0.91423,-0.393294 -2.13145,-1.239157 -2.70491,-1.879696 -0.57348,-0.64054 -1.26096,-1.500296 -1.52773,-1.91057 l -0.48506,-0.745953 -1.08075,1.504923 c -0.59441,0.827708 -1.73633,1.92068 -2.5376,2.428826 -0.80126,0.508146 -1.71665,0.923902 -2.03419,0.923902 -0.31754,0 -0.57735,0.1152 -0.57735,0.256 0,0.1408 0.1728,0.4288 0.384,0.64 0.25001,0.250011 0.26372,0.384 0.0393,0.384 -0.21716,0 -0.28699,0.511943 -0.18874,1.383628 l 0.15595,1.383627 -0.71376,1.399108 -0.71378,1.399108 0.15643,2.257265 c 0.0884,1.275081 0.0453,1.978787 -0.099,1.617264 -0.14048,-0.352 -0.26555,-1.487003 -0.27792,-2.522229 L 136,26.155541 l 0.65991,-1.067762 c 0.43731,-0.70757 0.62621,-1.473458 0.56,-2.270414 l -0.0999,-1.20265 -0.74831,-0.370978 c -0.45539,-0.225765 -0.61196,-0.455241 -0.4,-0.586243 0.19157,-0.118396 0.34831,-0.327974 0.34831,-0.465728 0,-0.137754 -0.56802,-0.420646 -1.26227,-0.628648 -0.72179,-0.216253 -1.86998,-0.985898 -2.68156,-1.797473 l -1.41929,-1.419289 -0.56942,1.491014 c -0.33345,0.873119 -1.31489,2.257583 -2.36828,3.340788 -1.1772,1.210534 -2.15485,1.920975 -2.82901,2.055808 -0.5666,0.113318 -1.03017,0.375233 -1.03017,0.582033 0,0.2068 0.1728,0.5488 0.384,0.76 l 0.384,0.384 h -0.85274 c -0.51558,0 -0.98372,0.244733 -1.184,0.618963 -0.18219,0.34043 -0.33126,1.046805 -0.33126,1.569724 0,0.617907 0.3921,1.420077 1.12,2.291313 l 1.12,1.340553 v 1.105615 c 0,0.608088 -0.2197,1.530463 -0.48822,2.049723 -0.26852,0.519261 -0.56022,0.944109 -0.64822,0.944109 -0.088,0 0.0597,-0.424848 0.32822,-0.944109 z M 122.05457,18.879999 C 122.15656,18.352 122.32344,17.488 122.42543,16.96 L 122.61085,16 h 0.77458 0.77457 l -0.0139,0.56 c -0.008,0.308 -0.13233,1.172 -0.27703,1.92 l -0.2631,1.359999 h 0.59094 c 0.35171,0 0.6562,-0.291469 0.75217,-0.72 0.0887,-0.396 0.38161,-2.087999 0.65096,-3.759999 0.26934,-1.672 0.56227,-3.364 0.65095,-3.76 l 0.16124,-0.72 h -0.49296 c -0.27113,0 -0.6247,0.324 -0.78572,0.72 -0.16102,0.396 -0.38046,1.26 -0.48764,1.92 l -0.19488,1.2 h -0.80138 -0.80139 l 0.21722,-1.92 0.21722,-1.92 h -0.35007 c -0.19254,0 -0.4823,0.252 -0.64392,0.56 -0.16161,0.308 -0.5373,2.072 -0.83487,3.92 -0.29758,1.848 -0.61212,3.611999 -0.69899,3.919999 l -0.15794,0.56 h 0.63614 0.63613 l 0.18543,-0.96 z m 42.39167,0.353756 c 0.33344,-0.333434 0.75595,-1.305434 0.93891,-2.16 0.18297,-0.854565 0.43258,-2.3088 0.5547,-3.231632 l 0.22204,-1.677878 -0.40013,-0.482122 C 165.50539,11.373212 164.80088,11.2 163.80082,11.2 c -0.85845,0 -1.56082,0.119604 -1.56082,0.265787 0,0.146183 -0.28581,1.838183 -0.63514,3.759999 -0.34933,1.921818 -0.63733,3.746213 -0.64,4.054213 l -0.005,0.56 h 1.44 1.44 z M 162.35787,18 c 0.0885,-0.308 0.33267,-1.667659 0.54248,-3.021464 0.20981,-1.353805 0.55612,-2.528482 0.76958,-2.610393 0.21346,-0.08191 0.57125,-0.03574 0.79509,0.102602 l 0.40699,0.251532 -0.40642,2.358861 C 164.24206,16.378512 163.93279,17.692 163.77833,18 c -0.15447,0.308 -0.57349,0.56 -0.93115,0.56 h -0.65031 z m -24.7649,-2.472512 c 0.48147,-0.512513 0.89273,-1.558299 1.16401,-2.96 0.23073,-1.192119 0.42479,-2.5881497 0.43126,-3.1022911 0.006,-0.5141418 -0.22656,-1.1981418 -0.51784,-1.52 -0.29127,-0.3218585 -0.78724,-0.5851971 -1.10215,-0.5851971 -0.31491,0 -0.95713,0.330792 -1.42716,0.7350931 l -0.85459,0.7350931 -0.42642,2.384907 c -0.23452,1.311699 -0.43399,2.770621 -0.44324,3.242049 -0.009,0.471429 0.20944,1.083429 0.48602,1.36 0.27657,0.276572 0.82747,0.502858 1.22422,0.502858 0.39675,0 1.0564,-0.356631 1.46589,-0.792512 z m -1.80488,-0.98737 c -0.1055,-0.274935 -0.009,-1.570088 0.21499,-2.878119 0.22375,-1.30803 0.60869,-2.54578 0.85543,-2.7505557 l 0.44861,-0.3723194 0.33536,0.3353555 0.33535,0.3353552 -0.39454,2.5150824 c -0.21699,1.383295 -0.53564,2.695083 -0.7081,2.915083 -0.17245,0.22 -0.44444,0.4 -0.60442,0.4 -0.15997,0 -0.37718,-0.224947 -0.48268,-0.499882 z m 15.01488,1.1433 0.80928,-0.63658 0.51453,-2.803419 c 0.28299,-1.541881 0.51423,-3.0520996 0.51387,-3.3560423 -3.2e-4,-0.3039427 -0.36958,-0.7943548 -0.82049,-1.0898051 l -0.81985,-0.537182 -1.09175,0.5206214 c -0.62753,0.2992464 -1.1647,0.83068 -1.2633,1.2498051 -0.0943,0.4010512 -0.3701,1.8059419 -0.6128,3.1219789 -0.26048,1.41245 -0.33322,2.676987 -0.17754,3.08644 0.14504,0.381505 0.45303,0.769378 0.6844,0.861942 0.23137,0.09256 0.65326,0.179665 0.93752,0.19356 0.28427,0.01389 0.88103,-0.261199 1.32613,-0.611319 z m -1.7771,-1.067149 c -0.0894,-0.233051 0.0525,-1.590751 0.31534,-3.01711 l 0.47793,-2.593381 0.50394,-0.1933795 c 0.27717,-0.1063587 0.62244,-0.074876 0.76728,0.069963 0.14484,0.144838 0.0548,1.4495595 -0.20012,2.8993805 -0.2549,1.449821 -0.54998,2.776038 -0.65573,2.947148 -0.10576,0.17111 -0.38438,0.31111 -0.61916,0.31111 -0.23478,0 -0.50005,-0.190679 -0.58948,-0.423731 z M 120.61371,8.4303991 c 0.41586,-0.2912803 1.19313,-0.6189817 1.72727,-0.7282252 0.53415,-0.1092435 1.02994,-0.3749235 1.10176,-0.5903994 0.0865,-0.2595417 -0.2494,-0.3917747 -0.99524,-0.3917747 -0.61921,0 -1.47287,0.1319402 -1.89701,0.2932003 -0.42415,0.1612599 -1.01085,0.5328691 -1.30377,0.8257981 -0.29293,0.2929289 -0.45078,0.6649891 -0.35077,0.8268 0.1,0.1618108 0.35728,0.2942016 0.57173,0.2942016 0.21445,0 0.73017,-0.2383204 1.14603,-0.5296007 z m 40,0 c 0.41586,-0.2912803 1.19313,-0.6189817 1.72727,-0.7282252 0.53415,-0.1092435 1.02994,-0.3749235 1.10176,-0.5903994 l 0.13059,-0.3917747 -1.22666,5.12e-4 c -0.67467,2.736e-4 -1.73025,0.2522736 -2.34573,0.56 -0.61548,0.3077264 -1.16604,0.8115027 -1.22346,1.1195027 -0.0688,0.3692269 0.0974,0.56 0.48785,0.56 0.32575,0 0.93252,-0.2383203 1.34838,-0.5296006 z M 133.84732,4.7999999 c 0.44749,-0.352 1.15091,-0.6422051 1.56315,-0.6449002 0.41224,-0.00269 0.96433,-0.1406985 1.22685,-0.3066748 l 0.47733,-0.3017748 -0.37145,-0.3714496 -0.37145,-0.3714495 -1.59942,0.383695 c -0.87968,0.2110323 -1.84143,0.6511145 -2.13722,0.9779603 -0.29579,0.3268457 -0.4432,0.7473388 -0.32757,0.9344294 0.11562,0.1870902 0.32631,0.3401642 0.46819,0.3401642 0.14188,0 0.62409,-0.288 1.07159,-0.64 z m 13.35268,0 c 0.44,-0.3441731 1.06147,-0.6289709 1.38104,-0.6328845 0.31957,-0.00391 0.8636,-0.1583405 1.20896,-0.3431709 0.34536,-0.1848307 0.53711,-0.482991 0.42612,-0.662579 -0.12175,-0.1970036 -0.72824,-0.2390917 -1.52896,-0.1061053 -0.72994,0.1212301 -1.70571,0.4140648 -2.16838,0.6507439 -0.46267,0.236679 -0.92075,0.6375727 -1.01795,0.8908755 -0.0972,0.2533027 -0.0907,0.5466284 0.0146,0.6518351 0.1052,0.1052068 0.34728,0.1880832 0.53795,0.1841696 C 146.244,5.4289707 146.76,5.144173 147.2,4.7999999 Z M 36.621856,30.008797 C 36.895834,29.617636 37.12,28.773056 37.12,28.131952 c 0,-0.695857 -0.278438,-1.537699 -0.690867,-2.088798 l -0.690871,-0.923155 0.904202,0.860606 c 0.593597,0.564976 0.904202,1.185008 0.904202,1.804968 0,0.519399 -0.185469,1.392126 -0.412154,1.939394 -0.226688,0.547268 -0.546851,0.995032 -0.711478,0.995032 -0.164631,0 -0.07516,-0.320041 0.198822,-0.711202 z"
     id="path212" />
</svg>
