<?xml version="1.0" ?><svg style="enable-background:new 0 0 44 44;" version="1.1" viewBox="0 0 44 44" xml:space="preserve" xmlns="http://www.w3.org/2000/svg" xmlns:xlink="http://www.w3.org/1999/xlink"><g id="ghost"/><g id="bat"/><g id="monster"/><g id="jason"/><g id="grave"><g><g><path d="M15.497,24.238c0,0.99-1.497,1.024-1.497,0.022v-6.464c0-0.398,0.304-0.694,0.675-0.694h2.994     c2.859,0,3.444,3.87,1.058,4.836l1.497,1.844c0.585,0.876-0.585,1.719-1.26,0.854l-1.7-2.458h-1.767V24.238z M15.497,20.868     h2.172c1.463,0,1.553-2.39,0-2.39h-2.172V20.868z"/><path d="M21.691,17.785c0-0.933,1.486-0.967,1.486,0v6.498c0,0.944-1.486,0.967-1.486,0V17.785z"/><path d="M24.855,17.785c0-0.376,0.293-0.785,0.765-0.785h2.6c1.463,0,2.78,0.99,2.78,2.89c0,1.798-1.317,2.8-2.78,2.8h-1.879     v1.502c0,0.5-0.315,0.785-0.72,0.785c-0.371,0-0.765-0.285-0.765-0.785V17.785z M26.341,18.433v2.834h1.879     c0.754,0,1.351-0.672,1.351-1.378c0-0.796-0.597-1.457-1.351-1.457H26.341z"/></g><path d="M40.98,33.411C40.994,33.272,41,33.136,41,33c0-2.757-2.243-5-5-5V16.578c0-0.397-0.235-0.757-0.599-0.916    c-1.445-0.633-2.384-2.05-2.401-3.619c0.006-0.05,0.013-0.126,0.014-0.159c0.009-0.465-0.302-0.875-0.753-0.99    C30.93,10.554,30,9.364,30,8c0-0.329,0.063-0.664,0.194-1.022c0.091-0.249,0.079-0.523-0.033-0.764C28.69,3.047,25.486,1,22,1    c-4.288,0-8.001,3.048-8.83,7.249C13.084,8.684,12.679,9,12.206,9H11c-1.654,0-3,1.346-3,3v16c-2.757,0-5,2.243-5,5    c0,0.136,0.006,0.272,0.02,0.411C1.224,34.189,0,35.988,0,38c0,2.757,2.243,5,5,5h2h30h2c2.757,0,5-2.243,5-5    C44,35.988,42.776,34.189,40.98,33.411z M11,11h1.206c1.426,0,2.657-0.994,2.927-2.364C15.777,5.37,18.665,3,22,3    c2.585,0,4.97,1.448,6.179,3.718C28.06,7.15,28,7.579,28,8c0,2.017,1.212,3.805,3.028,4.582c0.188,1.924,1.297,3.642,2.972,4.61    V35H10v-3h2c0.265,0,0.52-0.105,0.707-0.293l2-2c0.391-0.391,0.391-1.023,0-1.414s-1.023-0.391-1.414,0L11.586,30H10V12    C10,11.449,10.449,11,11,11z M6,38v3H5c-1.654,0-3-1.346-3-3c0-1.408,0.999-2.642,2.376-2.933    c0.271-0.058,0.506-0.225,0.649-0.462s0.181-0.523,0.105-0.79C5.042,33.502,5,33.243,5,33c0-1.654,1.346-3,3-3v5.184    C6.839,35.598,6,36.698,6,38z M36,41H8v-3c0-0.551,0.449-1,1-1h26c0.551,0,1,0.449,1,1V41z M39,41h-1v-3    c0-1.302-0.839-2.402-2-2.816V30c1.654,0,3,1.346,3,3c0,0.243-0.042,0.502-0.131,0.815c-0.076,0.267-0.038,0.553,0.105,0.79    s0.378,0.405,0.649,0.462C41.001,35.358,42,36.592,42,38C42,39.654,40.654,41,39,41z"/></g></g><g id="skull"/><g id="cauldron"/><g id="cleaver"/><g id="candle"/><g id="cat"/><g id="owl"/><g id="pumkin"/><g id="eye"/><g id="vampire"/><g id="finger"/><g id="leaf"/><g id="coffin"/><g id="broom"/><g id="moon"/><g id="poison"/><g id="sweet"/><g id="zombie"/><g id="hat"/><g id="candy"/></svg>