<?xml version="1.0" encoding="UTF-8" standalone="no"?>
<!-- Created with Inkscape (http://www.inkscape.org/) -->

<svg
   xmlns:dc="http://purl.org/dc/elements/1.1/"
   xmlns:cc="http://creativecommons.org/ns#"
   xmlns:rdf="http://www.w3.org/1999/02/22-rdf-syntax-ns#"
   xmlns:svg="http://www.w3.org/2000/svg"
   xmlns="http://www.w3.org/2000/svg"
   xmlns:xlink="http://www.w3.org/1999/xlink"
   xmlns:sodipodi="http://sodipodi.sourceforge.net/DTD/sodipodi-0.dtd"
   xmlns:inkscape="http://www.inkscape.org/namespaces/inkscape"
   width="127.28376mm"
   height="203.60291mm"
   viewBox="0 0 451.00543 721.42759"
   id="svg2"
   version="1.1"
   inkscape:version="0.91 r13725"
   sodipodi:docname="nine.svg"
   inkscape:export-filename="/home/manu/Bureau/zzz.svg.png"
   inkscape:export-xdpi="200"
   inkscape:export-ydpi="200">
  <sodipodi:namedview
     id="base"
     pagecolor="#ffffff"
     bordercolor="#666666"
     borderopacity="1.0"
     inkscape:pageopacity="1"
     inkscape:pageshadow="2"
     inkscape:zoom="0.1767767"
     inkscape:cx="-1054.2021"
     inkscape:cy="537.20422"
     inkscape:document-units="px"
     inkscape:current-layer="layer2"
     showgrid="true"
     inkscape:window-width="1366"
     inkscape:window-height="715"
     inkscape:window-x="0"
     inkscape:window-y="0"
     inkscape:window-maximized="1"
     inkscape:object-nodes="true"
     inkscape:object-paths="true"
     showborder="false"
     inkscape:snap-global="false"
     showguides="true"
     inkscape:guide-bbox="true"
     inkscape:snap-object-midpoints="true"
     inkscape:snap-smooth-nodes="true"
     inkscape:snap-intersection-paths="true"
     inkscape:snap-center="true"
     fit-margin-top="0"
     fit-margin-left="0"
     fit-margin-right="0"
     fit-margin-bottom="0" />
  <defs
     id="defs4">
    <linearGradient
       id="linearGradient4559"
       inkscape:collect="always">
      <stop
         id="stop4561"
         offset="0"
         style="stop-color:#00004c;stop-opacity:1" />
      <stop
         id="stop4563"
         offset="1"
         style="stop-color:#7878ff;stop-opacity:1" />
    </linearGradient>
    <linearGradient
       inkscape:collect="always"
       id="linearGradient4322">
      <stop
         style="stop-color:#0000ff;stop-opacity:1"
         offset="0"
         id="stop4324" />
      <stop
         style="stop-color:#ffff00;stop-opacity:1"
         offset="1"
         id="stop4326" />
    </linearGradient>
    <inkscape:path-effect
       effect="powerstroke"
       id="path-effect4187"
       is_visible="true"
       offset_points="0,0.5"
       sort_points="true"
       interpolator_type="Linear"
       interpolator_beta="0.2"
       start_linecap_type="zerowidth"
       linejoin_type="round"
       miter_limit="4"
       end_linecap_type="zerowidth"
       cusp_linecap_type="round" />
    <inkscape:path-effect
       cusp_linecap_type="round"
       end_linecap_type="zerowidth"
       miter_limit="4"
       linejoin_type="round"
       start_linecap_type="zerowidth"
       interpolator_beta="0.2"
       interpolator_type="Linear"
       sort_points="true"
       offset_points="0.10766478,-4.6694524"
       is_visible="true"
       id="path-effect4168"
       effect="powerstroke" />
    <inkscape:path-effect
       effect="powerstroke"
       id="path-effect4164"
       is_visible="true"
       offset_points="0.10766478,-4.6694524"
       sort_points="true"
       interpolator_type="Linear"
       interpolator_beta="0.2"
       start_linecap_type="zerowidth"
       linejoin_type="round"
       miter_limit="4"
       end_linecap_type="zerowidth"
       cusp_linecap_type="round" />
    <inkscape:path-effect
       cusp_linecap_type="round"
       end_linecap_type="zerowidth"
       miter_limit="4"
       linejoin_type="round"
       start_linecap_type="zerowidth"
       interpolator_beta="0.2"
       interpolator_type="Linear"
       sort_points="true"
       offset_points="0,7.8804603"
       is_visible="true"
       id="path-effect4160"
       effect="powerstroke" />
    <inkscape:path-effect
       effect="powerstroke"
       id="path-effect4156"
       is_visible="true"
       offset_points="0,7.8804603"
       sort_points="true"
       interpolator_type="Linear"
       interpolator_beta="0.2"
       start_linecap_type="zerowidth"
       linejoin_type="round"
       miter_limit="4"
       end_linecap_type="zerowidth"
       cusp_linecap_type="round" />
    <inkscape:path-effect
       effect="skeletal"
       id="path-effect4146"
       is_visible="true"
       pattern="M -6.1035156e-5,5 C -6.1035156e-5,2.24 2.239939,0 4.999939,0 c 2.76,0 5,2.24 5,5 0,2.76 -2.24,5 -5,5 -2.76,0 -5.000000035156,-2.24 -5.000000035156,-5 z"
       copytype="single_stretched"
       prop_scale="1"
       scale_y_rel="false"
       spacing="0"
       normal_offset="0"
       tang_offset="0"
       prop_units="false"
       vertical_pattern="false"
       fuse_tolerance="0" />
    <inkscape:path-effect
       effect="skeletal"
       id="path-effect4142"
       is_visible="true"
       pattern="M -6.1035156e-5,5 C -6.1035156e-5,2.24 2.239939,0 4.999939,0 c 2.76,0 5,2.24 5,5 0,2.76 -2.24,5 -5,5 -2.76,0 -5.000000035156,-2.24 -5.000000035156,-5 z"
       copytype="single_stretched"
       prop_scale="1"
       scale_y_rel="false"
       spacing="0"
       normal_offset="0"
       tang_offset="0"
       prop_units="false"
       vertical_pattern="false"
       fuse_tolerance="0" />
    <inkscape:path-effect
       effect="powerstroke"
       id="path-effect4138"
       is_visible="true"
       offset_points="0,0.5"
       sort_points="true"
       interpolator_type="Linear"
       interpolator_beta="0.2"
       start_linecap_type="zerowidth"
       linejoin_type="round"
       miter_limit="4"
       end_linecap_type="zerowidth"
       cusp_linecap_type="round" />
    <clipPath
       clipPathUnits="userSpaceOnUse"
       id="clipPath4277">
      <path
         sodipodi:nodetypes="sssssssss"
         inkscape:connector-curvature="0"
         id="path4279"
         d="m 1133.6835,823.26725 c 44.3962,-24.02199 103.6811,-17.92859 142.4531,-0.70711 9.4051,4.17748 6.5552,10.40624 6.5552,20.69738 l 0,194.77888 c 0,10.2912 -8.7193,15.6178 -18.576,18.5761 -30.7916,9.2415 -57.9872,21.7006 -123.3612,0 -9.7671,-3.2421 -18.576,-8.2849 -18.576,-18.5761 l 0,-194.77888 c 0,-10.29114 2.4538,-15.09288 11.5049,-19.99027 z"
         style="color:#000000;clip-rule:nonzero;display:inline;overflow:visible;visibility:visible;opacity:1;isolation:auto;mix-blend-mode:normal;color-interpolation:sRGB;color-interpolation-filters:linearRGB;solid-color:#000000;solid-opacity:1;fill:#ff0000;fill-opacity:1;fill-rule:nonzero;stroke:none;stroke-width:0.25;stroke-linecap:round;stroke-linejoin:round;stroke-miterlimit:4;stroke-dasharray:none;stroke-dashoffset:0;stroke-opacity:0;color-rendering:auto;image-rendering:auto;shape-rendering:auto;text-rendering:auto;enable-background:accumulate" />
    </clipPath>
    <radialGradient
       inkscape:collect="always"
       xlink:href="#linearGradient4322"
       id="radialGradient4338-0"
       cx="1202.2484"
       cy="759.0351"
       fx="1202.2484"
       fy="759.0351"
       r="9.0514593"
       gradientTransform="matrix(1.000006,0,0,4.0829511,-1194.6923,-3025.2175)"
       gradientUnits="userSpaceOnUse" />
    <filter
       inkscape:collect="always"
       style="color-interpolation-filters:sRGB"
       id="filter4991"
       x="-0.082178339"
       width="1.1643567"
       y="-0.58131677"
       height="2.1626337">
      <feGaussianBlur
         inkscape:collect="always"
         stdDeviation="0.36139413"
         id="feGaussianBlur4993" />
    </filter>
    <radialGradient
       inkscape:collect="always"
       xlink:href="#linearGradient4322"
       id="radialGradient4355"
       gradientUnits="userSpaceOnUse"
       gradientTransform="matrix(1.9088868,0,0,7.7938452,-3406.1619,-5179.9953)"
       cx="1202.2484"
       cy="759.0351"
       fx="1202.2484"
       fy="759.0351"
       r="9.0514593" />
    <linearGradient
       inkscape:collect="always"
       xlink:href="#linearGradient4559"
       id="linearGradient4723"
       x1="3584.7461"
       y1="885.3418"
       x2="3640.3516"
       y2="800.3418"
       gradientUnits="userSpaceOnUse"
       gradientTransform="translate(-3040.0001,760)" />
    <filter
       inkscape:collect="always"
       style="color-interpolation-filters:sRGB"
       id="filter4761"
       x="-0.028602323"
       width="1.0572046"
       y="-0.48196471"
       height="1.9639294">
      <feGaussianBlur
         inkscape:collect="always"
         stdDeviation="4.3146444"
         id="feGaussianBlur4763" />
    </filter>
  </defs>
  <metadata
     id="metadata7">
    <rdf:RDF>
      <cc:Work
         rdf:about="">
        <dc:format>image/svg+xml</dc:format>
        <dc:type
           rdf:resource="http://purl.org/dc/dcmitype/StillImage" />
        <dc:title></dc:title>
      </cc:Work>
    </rdf:RDF>
  </metadata>
  <style
     id="style5913"
     type="text/css">
	.st0{fill:#85BB5F;stroke:#000;stroke-width:0.25;}
	.st1{fill:#3D7B3E;stroke:#000;stroke-linejoin:round;}
	.st2{fill:#94C473;}
</style>
  <style
     type="text/css"
     id="style5913-0">
	.st0{fill:#85BB5F;stroke:#000;stroke-width:0.25;}
	.st1{fill:#3D7B3E;stroke:#000;stroke-linejoin:round;}
	.st2{fill:#94C473;}
</style>
  <g
     inkscape:groupmode="layer"
     id="layer1"
     inkscape:label="modele"
     style="display:inline"
     transform="translate(-460.74612,-1360.0013)">
    <g
       id="g4242"
       transform="translate(-303.5,-0.49999999)" />
  </g>
  <g
     inkscape:groupmode="layer"
     id="layer2"
     inkscape:label="dessin"
     style="opacity:1"
     transform="translate(-460.74612,-1360.0013)">
    <ellipse
       ry="10.74264"
       rx="181.01933"
       cy="1272.2799"
       cx="93.338051"
       id="ellipse4837"
       style="color:#000000;clip-rule:nonzero;display:inline;overflow:visible;visibility:visible;opacity:1;isolation:auto;mix-blend-mode:normal;color-interpolation:sRGB;color-interpolation-filters:linearRGB;solid-color:#000000;solid-opacity:1;fill:#000000;fill-opacity:1;fill-rule:evenodd;stroke:none;stroke-width:10;stroke-linecap:butt;stroke-linejoin:miter;stroke-miterlimit:4;stroke-dasharray:none;stroke-dashoffset:0;stroke-opacity:1;filter:url(#filter4761);color-rendering:auto;image-rendering:auto;shape-rendering:auto;text-rendering:auto;enable-background:accumulate"
       transform="matrix(1.0913077,0,0,3.6481961,601.0425,-2637.0666)" />
    <path
       inkscape:connector-curvature="0"
       style="font-style:normal;font-variant:normal;font-weight:normal;font-stretch:normal;font-size:medium;line-height:125%;font-family:'Arial Black';-inkscape-font-specification:'Arial Black, Normal';text-align:center;letter-spacing:13.16998672px;word-spacing:0px;writing-mode:lr-tb;text-anchor:middle;fill:#00004c;fill-opacity:1;stroke:none;stroke-width:1px;stroke-linecap:butt;stroke-linejoin:miter;stroke-opacity:1"
       d="m 708.6073,1626.4844 c -1.1151,0 -2.1843,0.104 -3.2754,0.1582 3.5018,10.2426 5.2969,21.9627 5.2969,35.2402 0,24.9563 -6.0781,44.1537 -18.2363,57.5918 -10.7495,11.8811 -23.9268,18.4906 -39.5117,19.8672 0.7275,2.4786 1.5421,4.865 2.4492,7.1543 0.9165,2.313 1.9256,4.5307 3.0254,6.6504 1.0997,2.1197 2.2911,4.142 3.5742,6.0683 1.2831,1.9264 2.6567,3.7552 4.123,5.4883 1.4932,1.7331 3.0322,3.3586 4.6153,4.875 1.5831,1.5165 3.2116,2.9248 4.8847,4.2246 1.6731,1.2998 3.3912,2.4911 5.1543,3.5743 1.7631,1.0831 3.5708,2.0572 5.4239,2.9238 1.8531,0.8665 3.7502,1.6255 5.6933,2.2754 l 40.9434,24.4902 -2.1856,-24.6484 c 1.7492,-0.5758 3.4681,-1.2193 5.1426,-1.9571 1.9064,-0.8398 3.7625,-1.7841 5.5723,-2.8339 1.8097,-1.0499 3.572,-2.2051 5.2851,-3.4649 1.7131,-1.2598 3.3777,-2.624 4.9942,-4.0937 1.6164,-1.4698 3.1856,-3.0449 4.705,-4.7246 1.52,-1.6799 2.9437,-3.4489 4.2735,-5.3086 1.3298,-1.8599 2.5652,-3.8099 3.7051,-5.8496 1.1398,-2.0398 2.1849,-4.1691 3.1347,-6.3887 0.9499,-2.2197 1.8046,-4.5301 2.5645,-6.9297 0.7599,-2.3997 1.4242,-4.8891 1.9941,-7.4688 0.5699,-2.5796 1.0459,-5.2482 1.4258,-8.0078 0.38,-2.7596 0.6635,-5.6092 0.8535,-8.5488 0.19,-2.9396 0.2852,-5.9703 0.2852,-9.0899 0,-3.1728 -0.099,-6.2582 -0.2988,-9.2578 -0.2003,-2.9995 -0.5005,-5.9139 -0.9004,-8.7402 -0.4,-2.8263 -0.9001,-5.5658 -1.5,-8.2187 -0.5999,-2.653 -1.2999,-5.2177 -2.0996,-7.6973 -0.7999,-2.4796 -1.6994,-4.8734 -2.6993,-7.1797 -0.9998,-2.3063 -2.099,-4.5252 -3.2988,-6.6582 -1.1998,-2.133 -2.5006,-4.1809 -3.9004,-6.1406 -1.3997,-1.9597 -2.8983,-3.8328 -4.498,-5.6192 -1.5999,-1.813 -3.2432,-3.5131 -4.9297,-5.0996 -1.6865,-1.5864 -3.4164,-3.0582 -5.1895,-4.4179 -1.7731,-1.3598 -3.5894,-2.6071 -5.4492,-3.7403 -1.8598,-1.1331 -3.7645,-2.152 -5.7109,-3.0586 -1.9464,-0.9065 -3.9357,-1.7009 -5.9688,-2.3808 -2.033,-0.6799 -4.1088,-1.246 -6.2285,-1.6992 -2.1197,-0.4533 -4.2819,-0.7929 -6.4883,-1.0196 -2.2063,-0.2266 -4.457,-0.3398 -6.75,-0.3398 z m 70.709,193.2519 c -3.8927,3.9994 -7.8117,7.7311 -11.7578,11.1973 -3.9461,3.4662 -7.9186,6.6667 -11.918,9.5996 -3.9994,2.9329 -8.0253,5.5984 -12.0781,7.998 -4.0528,2.4 -8.1322,4.534 -12.2383,6.4004 -4.1061,1.8664 -8.3728,3.4987 -12.7988,4.8985 -4.426,1.3998 -9.0118,2.5668 -13.7578,3.5 -1.5186,0.2986 -3.1577,0.421 -4.709,0.6719 -1.2297,3.2844 -2.4923,6.2959 -3.8262,8.7304 -8.3095,14.9568 -18.9681,24.508 -31.8789,28.8711 0.8107,4.1567 1.7185,8.0958 2.7813,11.6797 1.1464,3.8661 2.4392,7.3981 3.8789,10.5977 1.4397,3.1995 3.0248,6.0666 4.7578,8.5996 1.733,2.5329 3.6143,4.7312 5.6406,6.5976 2.0263,1.8664 4.165,3.5006 6.418,4.9004 2.2529,1.3998 4.62,2.5668 7.0996,3.5 2.4796,0.9332 5.073,1.633 7.7793,2.0996 2.7063,0.4666 5.524,0.6992 8.457,0.6992 2.613,0 5.1553,-0.1641 7.625,-0.4941 2.4697,-0.3299 4.867,-0.8264 7.1934,-1.4863 2.3263,-0.6599 4.5826,-1.4848 6.7656,-2.4746 2.183,-0.9899 4.2943,-2.1451 6.334,-3.4649 2.0397,-1.3198 4.0079,-2.8033 5.9043,-4.4531 1.8964,-1.6498 3.7195,-3.4656 5.4726,-5.4453 1.7531,-1.9797 3.4352,-4.1239 5.045,-6.4336 1.6097,-2.3097 3.1487,-4.7842 4.6152,-7.4238 1.0664,-1.9464 2.0998,-4.1647 3.0996,-6.6543 0.9998,-2.4897 1.9653,-5.2503 2.8984,-8.2832 0.9332,-3.0329 1.8327,-6.3379 2.6993,-9.9141 0.8665,-3.5762 1.7001,-7.4236 2.5,-11.543 1.5997,-8.2388 3.0653,-17.5647 4.3984,-27.9765 1.3331,-10.4119 2.5331,-21.9093 3.5996,-34.4942 z m -179.0703,35.0801 -129.582,16.3164 c 7.6788,24.9565 18.6642,45.753 32.955,62.3906 6.2327,7.2556 13.1556,13.7606 20.7676,19.5157 2.0303,1.5349 4.1158,3.0112 6.2442,4.4394 l 52.4414,37.2891 23.83,-35.6738 -65.6757,-23.4551 c -0.097,-0.2349 -0.1988,-0.4635 -0.295,-0.6992 -2.3329,-5.7192 -4.4591,-11.6984 -6.3789,-17.9375 l 105.0469,-13.2286 c -8.4328,-1.3098 -15.8105,-4.7914 -22.0762,-10.5625 -8.1052,-7.4656 -13.8648,-20.2638 -17.2773,-38.3945 z"
       id="path4702" />
    <path
       inkscape:connector-curvature="0"
       style="font-style:normal;font-variant:normal;font-weight:normal;font-stretch:normal;font-size:medium;line-height:125%;font-family:'Arial Black';-inkscape-font-specification:'Arial Black, Normal';text-align:center;letter-spacing:13.16998672px;word-spacing:0px;writing-mode:lr-tb;text-anchor:middle;fill:#0000ff;fill-opacity:1;stroke:none;stroke-width:1px;stroke-linecap:butt;stroke-linejoin:miter;stroke-opacity:1"
       d="m 795.6913,1559.3066 c -0.3421,-0.1285 -0.6519,-0.2853 -0.9961,-0.4121 -4.1261,-1.5197 -8.3984,-2.9132 -12.8144,-4.1797 -4.4161,-1.2664 -8.9757,-2.4067 -13.6817,-3.4199 -4.706,-1.0132 -9.5568,-1.9002 -14.5527,-2.6601 -4.996,-0.7599 -10.1379,-1.3919 -15.4238,-1.8985 -5.286,-0.5066 -10.7171,-0.8873 -16.293,-1.1406 -5.5759,-0.2533 -11.2963,-0.3809 -17.1621,-0.3809 -4.8792,0 -9.6556,0.104 -14.3281,0.3106 -4.6726,0.2066 -9.2411,0.5164 -13.7071,0.9297 -4.4659,0.4133 -8.8285,0.9308 -13.0879,1.5508 -4.2593,0.6199 -8.416,1.3433 -12.4687,2.1699 -4.0527,0.8265 -8.0016,1.7559 -11.8477,2.789 -3.8461,1.0332 -7.589,2.1704 -11.2285,3.4102 -3.6394,1.2398 -7.1765,2.5828 -10.6094,4.0293 -3.4328,1.4465 -6.762,2.9953 -9.9882,4.6484 -3.2262,1.6265 -6.3651,3.3508 -9.418,5.1739 -3.0529,1.823 -6.0189,3.7459 -8.8985,5.7656 -2.8795,2.0197 -5.6726,4.1372 -8.3789,6.3535 -2.7062,2.2163 -5.3264,4.5304 -7.8593,6.9434 -2.533,2.4129 -4.9782,4.9255 -7.3379,7.5351 -2.3597,2.6096 -4.634,5.3168 -6.8203,8.1231 -2.1864,2.8062 -4.2858,5.71 -6.2989,8.7129 -2.013,3.0029 -3.9395,6.1051 -5.7793,9.3046 -1.8397,3.1996 -3.564,6.4424 -5.1738,9.7286 -1.6098,3.2862 -3.1045,6.6154 -4.4844,9.9882 -1.3798,3.3729 -2.645,6.7886 -3.7949,10.2481 -1.1498,3.4595 -2.1856,6.9636 -3.1055,10.5098 -0.9198,3.5461 -1.7241,7.1347 -2.414,10.7675 -0.6899,3.6328 -1.2647,7.3099 -1.7246,11.0293 -0.46,3.7195 -0.8052,7.481 -1.0352,11.2871 -0.23,3.8062 -0.3437,7.6561 -0.3437,11.5489 0,5.7058 0.2239,11.2888 0.6738,16.748 0.4499,5.4592 1.1255,10.7953 2.0254,16.0078 0.8999,5.2126 2.0252,10.3017 3.375,15.2676 1.3498,4.966 2.9229,9.808 4.7226,14.5273 1.7998,4.7194 3.8246,9.3145 6.0743,13.7872 2.2496,4.4726 4.7242,8.8227 7.4238,13.0488 2.6996,4.226 5.6258,8.3291 8.7754,12.3086 0.4875,0.6159 1.0681,1.181 1.5664,1.791 15.8575,5.6851 32.8782,8.7012 51.2129,8.7012 21.5434,0 40.5267,-3.7318 56.9511,-11.1973 12.299,-5.5904 24.3575,-13.5766 36.1778,-23.9512 -1.9779,-0.2157 -3.9249,-0.5054 -5.8242,-0.9101 -2.0331,-0.4333 -4.0218,-0.9751 -5.9649,-1.625 -1.9431,-0.6499 -3.8402,-1.4089 -5.6933,-2.2754 -1.8531,-0.8666 -3.6608,-1.8407 -5.4239,-2.9238 -1.7631,-1.0832 -3.4812,-2.2745 -5.1543,-3.5743 -1.6731,-1.2998 -3.3016,-2.7081 -4.8847,-4.2246 -1.5831,-1.5164 -3.1221,-3.1419 -4.6153,-4.875 -1.4663,-1.7331 -2.8399,-3.5619 -4.123,-5.4883 -1.2831,-1.9263 -2.4745,-3.9486 -3.5742,-6.0683 -1.0998,-2.1197 -2.1089,-4.3374 -3.0254,-6.6504 -0.9071,-2.2893 -1.7217,-4.6757 -2.4492,-7.1543 -2.0424,0.1804 -4.1168,0.291 -6.2422,0.291 -17.7044,0 -32.5295,-6.9322 -44.4746,-20.7969 -11.731,-13.8646 -17.5957,-33.9161 -17.5957,-60.1523 0,-26.0229 5.6523,-45.5393 16.957,-58.5508 11.5187,-13.0114 25.9162,-19.5176 43.1934,-19.5176 18.3438,0 33.9161,7.2533 46.7148,21.7579 6.1034,6.8156 10.7058,14.931 13.8984,24.2695 1.0911,-0.054 2.1603,-0.1582 3.2754,-0.1582 2.293,0 4.5437,0.1132 6.75,0.3398 2.2064,0.2267 4.3686,0.5663 6.4883,1.0196 2.1197,0.4532 4.1955,1.0193 6.2285,1.6992 2.0331,0.6799 4.0224,1.4743 5.9688,2.3808 1.9464,0.9066 3.8511,1.9255 5.7109,3.0586 1.8598,1.1332 3.6761,2.3805 5.4492,3.7403 1.7731,1.3597 3.503,2.8315 5.1895,4.4179 1.6865,1.5865 3.3298,3.2866 4.9297,5.0996 1.5997,1.7864 3.0983,3.6595 4.498,5.6192 1.3998,1.9597 2.7006,4.0076 3.9004,6.1406 1.1998,2.133 2.299,4.3519 3.2988,6.6582 0.9999,2.3063 1.8994,4.7 2.6993,7.1797 0.7998,2.4796 1.4997,5.0443 2.0996,7.6973 0.5999,2.6529 1.1,5.3924 1.5,8.2187 0.3999,2.8263 0.7004,5.7407 0.9004,8.7402 0.1999,2.9996 0.2988,6.085 0.2988,9.2578 0,3.1196 -0.095,6.1503 -0.2852,9.0899 -0.19,2.9396 -0.4735,5.7892 -0.8535,8.5488 -0.3799,2.7596 -0.8559,5.4282 -1.4258,8.0078 -0.5699,2.5797 -1.2342,5.0691 -1.9941,7.4688 -0.7599,2.3996 -1.6146,4.71 -2.5645,6.9297 -0.9498,2.2196 -1.9949,4.3489 -3.1347,6.3887 -1.1399,2.0397 -2.3753,3.9898 -3.7051,5.8496 -1.3298,1.8597 -2.7537,3.6288 -4.2735,5.3086 -1.5197,1.6797 -3.0886,3.2548 -4.705,4.7246 -1.6165,1.4697 -3.2811,2.8339 -4.9942,4.0937 -1.7131,1.2598 -3.4754,2.415 -5.2851,3.4649 -1.8098,1.0498 -3.6659,1.9941 -5.5723,2.8339 -1.9064,0.8399 -3.8622,1.5752 -5.8652,2.2051 -2.0031,0.6299 -4.0546,1.1543 -6.1543,1.5742 -2.0997,0.42 -4.247,0.7354 -6.4434,0.9453 -0.9873,0.094 -2.0205,0.091 -3.0273,0.1426 -3.5143,36.0912 -8.194,62.696 -14.1758,78.6739 1.5513,-0.2509 3.1904,-0.3733 4.709,-0.6719 4.746,-0.9332 9.3318,-2.1002 13.7578,-3.5 4.426,-1.3998 8.6927,-3.0321 12.7988,-4.8985 4.1061,-1.8664 8.1855,-4.0007 12.2383,-6.4004 4.0528,-2.3996 8.0787,-5.0651 12.0781,-7.998 3.9994,-2.9329 7.9719,-6.1334 11.918,-9.5996 3.9461,-3.4662 7.8651,-7.1979 11.7578,-11.1973 -1.0665,12.5849 -2.2665,24.0823 -3.5996,34.4942 -1.3331,10.4118 -2.7987,19.7377 -4.3984,27.9765 -0.7999,4.1194 -1.6335,7.9668 -2.5,11.543 -0.8666,3.5762 -1.7661,6.8812 -2.6993,9.9141 -0.9331,3.0329 -1.8986,5.7935 -2.8984,8.2832 -0.9998,2.4896 -2.0332,4.7079 -3.0996,6.6543 -1.4665,2.6396 -3.0055,5.1141 -4.6152,7.4238 -1.6098,2.3097 -3.2919,4.4539 -5.045,6.4336 -1.7531,1.9797 -3.5762,3.7955 -5.4726,5.4453 -1.8964,1.6498 -3.8646,3.1333 -5.9043,4.4531 -2.0397,1.3198 -4.151,2.475 -6.334,3.4649 -2.183,0.9898 -4.4393,1.8147 -6.7656,2.4746 -2.3264,0.6599 -4.7237,1.1564 -7.1934,1.4863 -2.4697,0.33 -5.012,0.4941 -7.625,0.4941 -2.933,0 -5.7507,-0.2326 -8.457,-0.6992 -2.7063,-0.4666 -5.2997,-1.1664 -7.7793,-2.0996 -2.4796,-0.9332 -4.8467,-2.1002 -7.0996,-3.5 -2.253,-1.3998 -4.3917,-3.034 -6.418,-4.9004 -2.0263,-1.8664 -3.9076,-4.0647 -5.6406,-6.5976 -1.733,-2.533 -3.3181,-5.4001 -4.7578,-8.5996 -1.4397,-3.1996 -2.7325,-6.7316 -3.8789,-10.5977 -1.0628,-3.5839 -1.9706,-7.523 -2.7813,-11.6797 -5.3175,1.797 -10.9762,2.8047 -17.0742,2.8047 -2.6627,0 -5.2038,-0.2502 -7.6797,-0.6348 l -105.0469,13.2286 c 1.9198,6.2391 4.046,12.2183 6.3789,17.9375 2.333,5.7191 4.873,11.1777 7.6192,16.3769 2.7462,5.1993 5.6999,10.139 8.8594,14.8184 1.7892,2.6499 3.7969,5.0246 5.7187,7.5078 20.9384,7.1405 48.4019,10.7539 82.5508,10.7539 63.137,0 112.5167,-19.6236 148.1387,-58.8711 35.621,-39.4611 53.4316,-101.5319 53.4316,-186.2129 0,-57.5917 -8.5318,-103.8778 -25.5957,-138.8594 -7.4932,-15.6505 -16.192,-29.292 -25.9629,-41.1465 z"
       id="path4696" />
    <path
       style="font-style:normal;font-variant:normal;font-weight:normal;font-stretch:normal;font-size:medium;line-height:125%;font-family:'Arial Black';-inkscape-font-specification:'Arial Black, Normal';text-align:center;letter-spacing:13.16998672px;word-spacing:0px;writing-mode:lr-tb;text-anchor:middle;fill:url(#linearGradient4723);fill-opacity:1;stroke:none;stroke-width:1px;stroke-linecap:butt;stroke-linejoin:miter;stroke-opacity:1"
       d="m 640.8788,1499.3477 c -39.0337,0 -71.4541,6.6111 -97.2637,19.8359 -25.8096,13.0114 -46.0748,32.3158 -60.7929,57.9121 -14.7182,25.5963 -22.0762,53.9653 -22.0762,85.1074 0,45.6468 14.3975,83.4014 43.1934,113.2637 5.9098,6.0837 12.1039,11.5148 18.5664,16.3301 l 0,0.012 0.1113,0.072 c 4.8345,3.5951 9.8206,6.8419 14.9571,9.7441 l 46.3505,34.2269 18.5772,-48.6976 -75.166,-46.3262 c -0.8999,-5.2126 -1.5755,-10.5486 -2.0254,-16.0078 -0.4499,-5.4592 -0.6738,-11.0422 -0.6738,-16.748 0,-3.8928 0.1137,-7.7427 0.3437,-11.5489 0.23,-3.8061 0.5752,-7.5676 1.0352,-11.2871 0.4599,-3.7194 1.0347,-7.3965 1.7246,-11.0293 0.6899,-3.6328 1.4942,-7.2214 2.414,-10.7676 0.9199,-3.5461 1.9557,-7.0502 3.1055,-10.5097 1.1499,-3.4595 2.4151,-6.8752 3.7949,-10.2481 1.3799,-3.3728 2.8746,-6.7021 4.4844,-9.9882 1.6098,-3.2862 3.3341,-6.529 5.1738,-9.7286 1.8398,-3.1995 3.7663,-6.3017 5.7793,-9.3046 2.0131,-3.0029 4.1125,-5.9067 6.2989,-8.7129 2.1863,-2.8063 4.4606,-5.5135 6.8203,-8.1231 2.3597,-2.6096 4.8049,-5.1222 7.3379,-7.5351 2.5329,-2.413 5.1531,-4.7271 7.8593,-6.9434 2.7063,-2.2163 5.4994,-4.3338 8.3789,-6.3535 2.8796,-2.0197 5.8456,-3.9426 8.8985,-5.7656 3.0529,-1.8231 6.1918,-3.5474 9.418,-5.1739 3.2262,-1.6531 6.5554,-3.2019 9.9882,-4.6484 3.4329,-1.4465 6.97,-2.7895 10.6094,-4.0293 3.6395,-1.2398 7.3824,-2.377 11.2285,-3.4102 3.8461,-1.0332 7.795,-1.9625 11.8477,-2.789 4.0527,-0.8266 8.2094,-1.55 12.4687,-2.1699 4.2594,-0.62 8.622,-1.1376 13.0879,-1.5508 4.466,-0.4133 9.0345,-0.7231 13.7071,-0.9297 4.6725,-0.2067 9.4489,-0.3106 14.3281,-0.3106 5.8658,0 11.5862,0.1276 17.1621,0.3809 5.5759,0.2533 11.007,0.634 16.293,1.1406 5.2859,0.5066 10.4278,1.1386 15.4238,1.8985 4.2277,0.643 8.3451,1.3824 12.3652,2.207 l -20.5117,23.3125 76.1543,26.2988 8.6973,-22.8867 -54.1993,-38.248 0,0 c -6.9906,-5.9721 -14.4273,-11.201 -22.3281,-15.6563 -28.3695,-16.211 -66.0188,-24.3164 -112.9453,-24.3164 z"
       id="path4294"
       inkscape:connector-curvature="0"
       sodipodi:nodetypes="scssccccccccssscscccscccscccscssssssssssscccccccs" />
    <path
       d="m 534.5533,1917.0019 129.5814,-16.3176 q 5.1188,27.1961 17.2766,38.3945 12.1578,11.1984 29.7556,11.1984 31.3558,0 48.9535,-31.6754 12.7974,-23.3567 19.1967,-98.8658 -23.3563,23.9965 -47.9929,35.195 -24.6366,11.1983 -56.9517,11.1983 -63.0313,0 -106.5448,-44.7935 -43.1938,-44.7936 -43.1938,-113.2636 0,-46.7133 22.0772,-85.1077 22.0772,-38.3945 60.7915,-57.9116 38.7144,-19.8372 97.265,-19.8372 70.3899,0 112.9442,24.3165 42.5541,23.9966 67.8304,76.789 25.5959,52.4723 25.5959,138.8598 0,127.0215 -53.4316,186.2131 -53.433,58.8714 -148.1384,58.8714 -55.9924,0 -88.3075,-12.7981 -32.315,-13.1182 -53.7527,-38.0745 -21.4363,-24.9564 -32.9546,-62.391 z M 774.518,1707.7522 q 0,-38.0745 -19.1967,-59.5114 -19.198,-21.7568 -46.7138,-21.7568 -25.9158,0 -43.1938,19.5171 -16.957,19.5172 -16.957,58.5516 0,39.3543 17.5965,60.1513 17.9175,20.797 44.4742,20.797 27.5158,0 45.7532,-20.1571 18.2374,-20.1571 18.2374,-57.5917 z"
       style="font-style:normal;font-variant:normal;font-weight:normal;font-stretch:normal;font-size:medium;line-height:125%;font-family:'Arial Black';-inkscape-font-specification:'Arial Black, Normal';text-align:center;letter-spacing:13.16998672px;word-spacing:0px;writing-mode:lr-tb;text-anchor:middle;fill:#0000ff;fill-opacity:1;stroke:none;stroke-width:1px;stroke-linecap:butt;stroke-linejoin:miter;stroke-opacity:1"
       id="path5030"
       inkscape:connector-curvature="0" />
    <path
       style="fill:#00004c;fill-opacity:1;fill-rule:evenodd;stroke:none;stroke-width:1px;stroke-linecap:butt;stroke-linejoin:miter;stroke-opacity:1"
       d="m 470.6649,1871.1333 63.8884,45.8686 129.7829,-15.2668 -64.0899,-46.9194 z"
       id="path4691"
       inkscape:connector-curvature="0" />
    <path
       sodipodi:nodetypes="cscsc"
       inkscape:connector-curvature="0"
       id="path4347"
       d="m 714.96385,928.30851 c 2e-5,0.26849 -0.71435,0.67568 -3.6311,0.67568 -2.91674,0 -3.94899,-0.69728 -3.94897,-0.96577 4e-5,-0.26848 0.24434,-1.31478 3.16104,-1.31478 2.9167,-10e-6 4.41899,1.33639 4.41903,1.60487 z"
       style="color:#000000;clip-rule:nonzero;display:inline;overflow:visible;visibility:visible;opacity:0.731;isolation:auto;mix-blend-mode:normal;color-interpolation:sRGB;color-interpolation-filters:linearRGB;solid-color:#000000;solid-opacity:1;fill:#ffeeaa;fill-opacity:1;fill-rule:evenodd;stroke:none;stroke-width:1px;stroke-linecap:butt;stroke-linejoin:miter;stroke-miterlimit:4;stroke-dasharray:none;stroke-dashoffset:0;stroke-opacity:1;filter:url(#filter4991);color-rendering:auto;image-rendering:auto;shape-rendering:auto;text-rendering:auto;enable-background:accumulate"
       transform="matrix(13.095319,-0.51144689,0.51144689,13.095319,-9119.5334,-10263.212)" />
    <g
       transform="translate(1773.8255,765.23339)"
       id="g4349">
      <path
         style="display:inline;opacity:1;fill:url(#radialGradient4355);fill-opacity:1;fill-rule:evenodd;stroke:none;stroke-width:1px;stroke-linecap:butt;stroke-linejoin:miter;stroke-opacity:1"
         d="m -1121.9852,731.77044 c -7.0327,-45.36087 -4.757,-89.85114 14.1727,-137.00257 17.8209,11.81206 13.5628,84.44873 8.7736,137.00257 -3.1006,-9.28 -2.0396,-10.1802 -11.5359,-16.26225 -6.5419,-2.14323 -5.767,-0.4613 -11.4104,16.26225 z"
         id="path4351"
         inkscape:connector-curvature="0"
         sodipodi:nodetypes="ccccc" />
      <path
         style="display:inline;opacity:1;fill:#2e1a0d;fill-opacity:1;fill-rule:evenodd;stroke:none;stroke-width:1px;stroke-linecap:butt;stroke-linejoin:miter;stroke-opacity:1"
         d="m -1114.4231,756.91453 c 4.8885,-10.50888 6.7498,-17.99096 4.4161,-21.27777 -4.0465,-4.20654 -6.4442,1.48038 -9.2338,4.81765 -4.9445,-0.58319 -6.2894,-3.56871 -2.4088,-10.03671 6.2898,-9.05222 12.5794,-10.82222 18.8689,-12.847 2.2293,9.46624 4.8073,18.30747 0.8034,38.94241 z"
         id="path4353"
         inkscape:connector-curvature="0"
         sodipodi:nodetypes="ccccccc" />
    </g>
    <path
       inkscape:connector-curvature="0"
       id="path4745"
       d="m 695.2461,1567.2422 c -39.7535,0.087 -81.9747,9.9498 -112.0723,37.4316 -50.5242,47.4961 -59.1388,130.8601 -22.0234,188.6719 26.2403,41.8985 78.4091,65.3154 127.1308,57.9453 30.3288,-3.909 57.9504,-20.8334 77.9548,-43.9358 11.3999,-11.8026 22.3894,-24.0819 33.7894,-35.9353 -10.3342,52.0848 -5.4213,107.6183 -27.0536,157.2402 -13.785,33.5786 -56.3591,53.8788 -90.38,38.8809 -17.8154,-7.7161 -31.2107,-24.1977 -36.2344,-42.8281 -30.5078,3.4084 -60.9162,7.6623 -91.3984,11.3965 16.6752,39.8684 54.6931,71.5252 98.3574,76.209 39.924,6.5075 81.3525,5.6927 120.3106,-5.8985 40.4776,-13.3327 76.1727,-43.5373 92.3105,-83.414 22.4373,-50.5283 24.1696,-106.7094 22.5508,-161.086 -2.3945,-48.8741 -13.8625,-99.6932 -44.5762,-138.9218 -23.7962,-30.2864 -60.2806,-48.7196 -98.1262,-52.749 -16.5372,-2.4281 -33.5901,-3.0967 -50.5398,-3.0069 z m 10.4531,44.9805 c 42.3279,0.3864 78.6528,38.2321 81.4414,79.7324 4.8484,32.8214 -1.2705,69.7718 -25.5977,93.9492 -28.908,28.6106 -81.6419,29.4078 -109.3867,-1.3027 -21.9652,-22.5971 -27.4273,-56.0336 -25.5514,-86.354 1.2175,-27.8607 12.0203,-57.6073 36.3522,-73.3199 12.5345,-8.4246 27.6146,-13.0492 42.7422,-12.705 z"
       style="font-style:normal;font-variant:normal;font-weight:normal;font-stretch:normal;font-size:medium;line-height:125%;font-family:'Arial Black';-inkscape-font-specification:'Arial Black, Normal';text-align:center;letter-spacing:13.16998672px;word-spacing:0px;writing-mode:lr-tb;text-anchor:middle;fill:none;fill-opacity:1;stroke:#000000;stroke-width:10;stroke-linecap:butt;stroke-linejoin:miter;stroke-opacity:1" />
    <path
       style="font-style:normal;font-variant:normal;font-weight:normal;font-stretch:normal;font-size:medium;line-height:125%;font-family:'Arial Black';-inkscape-font-specification:'Arial Black, Normal';text-align:center;letter-spacing:13.16998672px;word-spacing:0px;writing-mode:lr-tb;text-anchor:middle;fill:none;fill-opacity:1;stroke:#ffffff;stroke-width:10;stroke-linecap:butt;stroke-linejoin:miter;stroke-opacity:1"
       d="m 699.2461,1563.2422 c -39.7535,0.087 -81.9747,9.9498 -112.0723,37.4316 -50.5242,47.4961 -59.1388,130.8601 -22.0234,188.6719 26.2403,41.8985 78.4091,65.3154 127.1308,57.9453 30.3288,-3.909 57.9504,-20.8334 77.9548,-43.9358 11.3999,-11.8026 22.3894,-24.0819 33.7894,-35.9353 -10.3342,52.0848 -5.4213,107.6183 -27.0536,157.2402 -13.785,33.5786 -56.3591,53.8788 -90.38,38.8809 -17.8154,-7.7161 -31.2107,-24.1977 -36.2344,-42.8281 -30.5078,3.4084 -60.9162,7.6623 -91.3984,11.3965 16.6752,39.8684 54.6931,71.5252 98.3574,76.209 39.924,6.5075 81.3525,5.6927 120.3106,-5.8985 40.4776,-13.3327 76.1727,-43.5373 92.3105,-83.414 22.4373,-50.5283 24.1696,-106.7094 22.5508,-161.086 -2.3945,-48.8741 -13.8625,-99.6932 -44.5762,-138.9218 -23.7962,-30.2864 -60.2806,-48.7196 -98.1262,-52.749 -16.5372,-2.4281 -33.5901,-3.0967 -50.5398,-3.0069 z m 10.4531,44.9805 c 42.3279,0.3864 78.6528,38.2321 81.4414,79.7324 4.8484,32.8214 -1.2705,69.7718 -25.5977,93.9492 -28.908,28.6106 -81.6419,29.4078 -109.3867,-1.3027 -21.9652,-22.5971 -27.4273,-56.0336 -25.5514,-86.354 1.2175,-27.8607 12.0203,-57.6073 36.3522,-73.3199 12.5345,-8.4246 27.6146,-13.0492 42.7422,-12.705 z"
       id="path4725"
       inkscape:connector-curvature="0" />
  </g>
</svg>
