<?xml version="1.0" encoding="UTF-8" standalone="no"?>
<!-- Created with Inkscape (http://www.inkscape.org/) -->

<svg
   width="88.271675mm"
   height="11.867673mm"
   viewBox="0 0 88.271675 11.867673"
   version="1.1"
   id="svg1650"
   inkscape:version="1.2.1 (9c6d41e410, 2022-07-14)"
   sodipodi:docname="birthdayhood2.svg"
   xmlns:inkscape="http://www.inkscape.org/namespaces/inkscape"
   xmlns:sodipodi="http://sodipodi.sourceforge.net/DTD/sodipodi-0.dtd"
   xmlns="http://www.w3.org/2000/svg"
   xmlns:svg="http://www.w3.org/2000/svg">
  <sodipodi:namedview
     id="namedview1652"
     pagecolor="#ffffff"
     bordercolor="#000000"
     borderopacity="0.25"
     inkscape:showpageshadow="2"
     inkscape:pageopacity="0.0"
     inkscape:pagecheckerboard="0"
     inkscape:deskcolor="#d1d1d1"
     inkscape:document-units="mm"
     showgrid="false"
     inkscape:zoom="1.0885159"
     inkscape:cx="229.67051"
     inkscape:cy="120.80669"
     inkscape:window-width="1920"
     inkscape:window-height="1001"
     inkscape:window-x="-9"
     inkscape:window-y="-9"
     inkscape:window-maximized="1"
     inkscape:current-layer="text1635" />
  <defs
     id="defs1647" />
  <g
     inkscape:label="Layer 1"
     inkscape:groupmode="layer"
     id="layer1"
     transform="translate(-1.9266611,-1.9724133)">
    <g
       aria-label="Birthday Hood"
       transform="matrix(0.26458333,0,0,0.26458333,0.796669,10.902107)"
       id="text1635"
       style="font-weight:bold;font-size:42.6667px;font-family:'Segoe Script';-inkscape-font-specification:'Segoe Script, Bold';white-space:pre;shape-inside:url(#rect1602);display:inline">
      <path
         d="m 31.16669,-11.291675 q 0,1.000001 -0.1875,1.916668 -0.1875,0.895834 -0.562501,1.791668 -0.375,0.8750007 -0.9375,1.7708347 -0.562501,0.895834 -1.312501,1.8750014 -0.437501,0.541667 -0.895834,1.0625008 -0.458334,0.5000003 -0.895834,0.9375007 -0.437501,0.4375003 -0.854168,0.7916672 -0.416667,0.35416694 -0.75,0.58333378 -0.666667,0.47916702 -1.729168,0.9375007 -1.062501,0.47916702 -2.395835,0.89583402 -1.291668,0.416667 -2.520835,0.6250004 -1.229168,0.2291669 -2.291669,0.2291669 -1.083334,0 -1.958335,-0.2083335 Q 13.020843,1.729168 12.416676,1.312501 11.812509,0.895834 11.479175,0.25000019 q -0.3125,-0.62500047 -0.3125,-1.50000109 0,-0.5625005 0.25,-1.0208341 0.25,-0.4583337 0.666667,-0.7708339 0.437501,-0.3333336 1.000001,-0.5000004 0.583334,-0.1875001 1.229168,-0.1875001 0.395833,0 0.666667,0.041667 0.291667,0.020833 0.541667,0.083333 0.25,0.0625 0.479167,0.1666668 0.25,0.1041668 0.5625,0.2500002 1.000001,0.4375004 1.541668,0.4375004 0.270834,0 0.729167,-0.083333 0.479167,-0.1041668 0.979168,-0.2500002 0.5,-0.1666668 0.958334,-0.354167 0.458333,-0.1875001 0.708334,-0.3541669 0.8125,-0.5625004 1.645834,-1.375001 0.833334,-0.833334 1.500001,-1.7708347 0.687501,-0.958334 1.104168,-1.9375014 0.4375,-1.0000008 0.4375,-1.8750018 0,-0.729167 -0.333333,-1.312501 -0.312501,-0.583334 -0.812501,-1.041667 -0.5,-0.458334 -1.125001,-0.791668 -0.625,-0.333333 -1.208334,-0.541667 -0.583334,-0.208333 -1.083334,-0.3125 -0.500001,-0.104167 -0.770834,-0.104167 -0.750001,0 -1.270834,0.0625 -0.520834,0.04167 -0.937501,0.145834 -0.395834,0.08333 -0.770834,0.229167 -0.354167,0.145833 -0.770834,0.333333 -0.5,0.229167 -0.854167,0.333334 -0.354167,0.104166 -0.729167,0.104166 -0.520834,0 -0.958334,-0.166666 -0.437501,-0.1875 -0.750001,-0.479167 -0.291667,-0.291667 -0.458334,-0.666667 -0.166667,-0.375001 -0.166667,-0.750001 0,-0.687501 0.208334,-1.250001 0.229167,-0.5625 0.604167,-0.958334 0.375,-0.416667 0.854167,-0.666667 0.479167,-0.270834 1.000001,-0.375 0.291667,-0.0625 0.645834,-0.08333 0.375,-0.02083 0.708334,-0.02083 0.354167,-0.02083 0.604167,-0.02083 0.270833,0 0.333334,-0.02083 0.458333,-0.270833 1.083334,-0.6875 0.645833,-0.416667 1.333334,-0.916668 0.6875,-0.520833 1.375001,-1.083334 0.687501,-0.5625 1.229168,-1.104167 0.5625,-0.562501 0.895834,-1.062501 0.333333,-0.500001 0.333333,-0.875001 0,-0.770834 -0.708334,-1.145834 -0.6875,-0.395834 -2.270835,-0.395834 -1.250001,0 -2.854169,0.250001 -1.583334,0.25 -3.104168,0.729167 -0.645834,0.208333 -1.291668,0.5 -0.645834,0.291667 -1.229168,0.625001 -0.5625,0.333333 -1.020834,0.708333 -0.458333,0.375001 -0.75,0.750001 -0.0625,0.08333 -0.104167,0.416667 -0.04167,0.333334 -0.0625,0.958334 -0.02083,0.625 -0.0625,1.583335 -0.02083,0.958334 -0.08333,2.312501 -0.04167,0.875001 -0.08333,1.437501 -0.02083,0.562501 -0.0625,1.062501 -0.04167,0.5 -0.104167,1.041668 -0.0625,0.541667 -0.166667,1.395834 -0.166666,1.187501 -0.3125,2.270835 -0.1249999,1.0833345 -0.1249999,1.8958351 v 3.8125029 q 0,2.0625015 -0.7708339,3.0208355 -0.7708339,0.93750074 -2.270835,0.93750074 -0.7916673,0 -1.312501,-0.29166689 Q 5.1041705,-1.2500009 4.7916702,-1.8333347 4.5000034,-2.4166685 4.3750033,-3.2916691 4.2708365,-4.1666698 4.2708365,-5.312504 q 0,-0.020833 0.0625,-0.4583336 0.0625,-0.4583337 0.1458334,-1.1250009 0.1041667,-0.6875005 0.2083335,-1.5000011 0.1250001,-0.8125006 0.2291668,-1.5416678 0.1041668,-0.7291676 0.1666668,-1.2916676 0.083333,-0.583334 0.1041668,-0.770834 0.020833,-0.08333 0.0625,-0.625 0.0625,-0.562501 0.1458335,-1.333335 0.083333,-0.791667 0.1666667,-1.687501 0.083333,-0.895834 0.1666668,-1.687501 0.083333,-0.791668 0.1458335,-1.354168 0.0625,-0.5625 0.0625,-0.666667 0.1875002,-1.604168 0.1875002,-1.916668 0,-0.229167 -0.041667,-0.520834 -0.041667,-0.291667 -0.1041668,-0.583334 -0.041667,-0.3125 -0.083333,-0.541667 -0.041667,-0.25 -0.041667,-0.333333 0,-0.812501 0.1458335,-1.520835 0.1458334,-0.708334 0.479167,-1.312501 0.8333339,-1.604168 1.791668,-1.729168 0.6041671,-0.08333 1.1875009,-0.229167 0.6041669,-0.166666 1.1250009,-0.333333 2.604169,-0.833334 4.10417,-1.354168 1.520834,-0.520834 2.000001,-0.666667 0.625001,-0.1875 1.270835,-0.3125 0.645834,-0.145834 1.375001,-0.208334 0.729167,-0.08333 1.583334,-0.104166 0.875001,-0.04167 1.958335,-0.04167 0.666667,0 1.458334,0.229167 0.812501,0.229167 1.562502,0.625 0.75,0.395834 1.375001,0.937501 0.645833,0.520834 0.979167,1.125001 0.145833,0.25 0.270834,0.645834 0.145833,0.375 0.25,0.791667 0.125,0.416667 0.1875,0.833334 0.0625,0.395833 0.0625,0.708334 0,1.583334 -1.250001,3.250002 -1.229168,1.645835 -3.604169,3.645836 1.416667,0.4375 2.687502,1.166668 1.270834,0.729167 2.229168,1.666667 0.958334,0.937501 1.520834,2.000002 0.562501,1.062501 0.562501,2.145835 z"
         id="path1673"
         inkscape:label="B" />
      <path
         d="m 45.583369,-29.875022 q 0,0.1875 -0.08333,0.583334 -0.08333,0.395833 -0.229167,0.854167 -0.125,0.458333 -0.291666,0.916667 -0.166667,0.4375 -0.333334,0.750001 -0.145833,0.333333 -0.541667,0.645834 -0.395834,0.291666 -0.854167,0.5 -0.458334,0.208333 -0.916668,0.333333 -0.458333,0.125001 -0.770834,0.125001 -0.416667,0 -0.666667,-0.104167 -0.229167,-0.104167 -0.354167,-0.291667 -0.125,-0.1875 -0.166666,-0.416667 -0.02083,-0.25 -0.04167,-0.5 0,-0.04167 -0.02083,-0.187501 -0.02083,-0.145833 -0.125,-0.666667 -0.0625,-0.1875 -0.145833,-0.333333 -0.0625,-0.145834 -0.125,-0.312501 -0.0625,-0.166666 -0.125,-0.375 -0.04167,-0.229167 -0.04167,-0.541667 0,-0.395833 0.25,-0.854167 0.270834,-0.479167 0.708334,-0.875001 0.458334,-0.416667 1.062501,-0.6875 0.604167,-0.270834 1.312501,-0.270834 0.208333,0 0.625,0.166667 0.416667,0.145833 0.833334,0.395834 0.416667,0.25 0.729167,0.5625 0.312501,0.291667 0.312501,0.583334 z m 6.354171,23.1041836 q 0,0.3333336 -0.229167,0.8750007 -0.229167,0.5208337 -0.666667,1.1458342 -0.4375,0.6250004 -1.083334,1.3125009 -0.645834,0.6666672 -1.479168,1.2916677 -0.458333,0.3333335 -1.145834,0.7708339 -0.666667,0.4375003 -1.562501,0.83333393 -0.895834,0.37500028 -2.000002,0.62500047 -1.104167,0.27083353 -2.416668,0.27083353 -1.645835,0 -2.833336,-0.62500047 -1.166667,-0.62500046 -1.916668,-1.62500116 -0.75,-1.0208341 -1.104167,-2.2916684 -0.354167,-1.2916676 -0.354167,-2.6041686 0,-0.9166674 0.104167,-1.9166681 0.104166,-1.0208341 0.25,-2.0000012 0.145833,-0.979168 0.333333,-1.895835 0.187501,-0.937501 0.333334,-1.687501 0.145833,-0.750001 0.25,-1.270835 0.104167,-0.541667 0.104167,-0.75 0,-0.479167 0.104167,-1.041668 0.125,-0.5625 0.395833,-1.041667 0.270834,-0.5 0.729168,-0.833334 0.458333,-0.333334 1.166667,-0.333334 0.750001,0 1.291668,0.208334 0.5625,0.1875 0.895834,0.479167 0.354167,0.291667 0.520833,0.625 0.166667,0.333334 0.166667,0.625001 0,0.4375 -0.1875,1.125001 -0.166667,0.6875 -0.4375,1.500001 -0.208334,0.666667 -0.458334,1.458334 -0.229167,0.791668 -0.4375,1.666668 -0.208334,0.875001 -0.333334,1.812502 -0.125,0.9375002 -0.125,1.9166676 0,0.7083339 0.0625,1.5000011 0.0625,0.7708339 0.270834,1.4375011 0.208333,0.6458338 0.604167,1.0833341 0.416667,0.416667 1.104167,0.416667 0.708334,0 1.458335,-0.1666668 0.770834,-0.1666668 1.500001,-0.416667 0.75,-0.2708335 1.395834,-0.6250004 0.666667,-0.354167 1.166668,-0.7291672 1.083334,-0.8125006 1.916668,-1.4375011 0.833334,-0.6250005 1.541668,-0.6250005 0.604167,0 0.854167,0.3333336 0.25,0.3125002 0.25,0.6041671 z"
         id="path1675"
         inkscape:label="i" />
      <path
         d="m 94.87507,-24.145851 q 0.562501,0 0.833334,0.395833 0.270834,0.395834 0.270834,0.812501 0,0.4375 -0.375001,1.041667 -0.354167,0.583334 -0.958334,1.187501 -0.604167,0.604167 -1.395834,1.166668 -0.791667,0.5625 -1.645835,0.958334 -2.250001,1.020834 -5.145837,1.812501 -2.875002,0.770834 -6.229171,1.062501 -0.08333,0.354167 -0.229167,1.020834 -0.145833,0.645834 -0.291667,1.395834 -0.125,0.750001 -0.270833,1.541668 -0.125,0.770834 -0.208334,1.375001 -0.145833,1.1041678 -0.270833,1.9791684 -0.125,0.8541673 -0.229167,1.6250012 -0.08333,0.7500006 -0.145834,1.4791678 -0.04167,0.7291672 -0.04167,1.5625012 0,0.6250004 0,1.020834 0,0.3958337 -0.02083,0.6666672 0,0.2708335 -0.02083,0.4583337 0,0.1666668 -0.02083,0.3333336 -0.02083,0.1666668 -0.354167,0.47916699 -0.333334,0.29166689 -0.770834,0.60416712 -0.437501,0.29166688 -0.854168,0.50000037 -0.416667,0.22916684 -0.604167,0.22916684 -0.75,0 -1.229167,-0.41666698 -0.458334,-0.41666698 -0.729167,-0.9375007 -0.270834,-0.54166704 -0.375001,-1.02083414 -0.08333,-0.5000003 -0.08333,-0.6666671 0,-1.0000008 0.0625,-1.9375015 0.08333,-0.9375007 0.1875,-1.854168 0.125,-0.9166674 0.270834,-1.8333347 0.166666,-0.9166674 0.333333,-1.8958343 0.208334,-1.187501 0.395834,-2.375002 0.1875,-1.187501 0.354167,-2.708336 -0.0625,-0.0625 -0.145834,-0.0625 -0.08333,-0.02083 -0.1875,-0.02083 -0.104167,0 -0.520834,0.04167 -0.395833,0.02083 -0.979167,0.08333 -0.5625,0.04167 -1.250001,0.08333 -0.6875,0.02083 -1.354168,0.02083 -0.666667,0 -1.1875,-0.04167 -0.520834,-0.04167 -1.125001,-0.04167 -1.312501,0 -2.375002,0.500001 -1.062501,0.5 -2.041668,1.479168 -0.583334,0.583333 -1.250001,1.416667 -0.645834,0.812501 -1.312501,1.7916683 -0.645834,0.9583341 -1.250001,2.0208349 -0.583334,1.0625008 -1.020834,2.1041682 -0.354167,0.833334 -0.687501,1.7500013 -0.333333,0.895834 -0.583333,1.8958348 -0.145834,0.541667 -0.229167,0.958334 -0.0625,0.39583364 -0.229167,0.95833406 -0.0625,0.22916684 -0.416667,0.43750032 -0.333334,0.22916684 -0.770834,0.41666698 -0.416667,0.18750014 -0.812501,0.29166684 -0.395833,0.1250001 -0.583333,0.1458335 -1.312501,0 -1.791668,-1.20833425 -0.458334,-1.20833425 -0.458334,-3.60416935 0,-0.5416671 0,-1.0416674 0,-0.5000004 0.02083,-1.0000008 0.02083,-0.5208337 0.04167,-1.0625008 0.04167,-0.5625004 0.104167,-1.2291676 0.08333,-0.9791674 0.25,-2.291668 0.1875,-1.333335 0.395834,-2.687502 0.208333,-1.375001 0.4375,-2.645836 0.229167,-1.270834 0.4375,-2.166668 0.25,-1.104167 0.833334,-1.729168 0.604167,-0.625 1.750001,-0.625 0.437501,0 0.812501,0.208333 0.395834,0.208334 0.666667,0.520834 0.291667,0.291667 0.458334,0.645834 0.166667,0.354167 0.166667,0.666667 0,0.854167 -0.270834,1.979168 -0.270833,1.125001 -0.625,2.312502 -0.333334,1.166667 -0.666668,2.291668 -0.333333,1.125001 -0.458333,1.9583349 2.000001,-4.0416699 3.958336,-6.3333379 1.979168,-2.291669 4.000003,-3.145836 0.479167,-0.25 0.979167,-0.375 0.520834,-0.145834 1.000001,-0.229167 0.500001,-0.08333 0.916668,-0.104167 0.4375,-0.02083 0.708333,-0.02083 0.145834,0 0.354167,0.02083 0.208334,0.02083 0.437501,0.0625 0.229167,0.02083 0.4375,0.0625 0.229167,0.02083 0.354167,0.0625 0.791667,0.145834 1.333334,0.187501 0.562501,0.02083 1.166668,0.02083 1.125001,0 1.958335,-0.145834 0.854167,-0.145833 1.208334,-0.270833 0.229167,-0.08333 0.541667,-0.875001 0.333333,-0.791667 0.645834,-2.062501 0.08333,-0.375001 0.208333,-0.979168 0.125,-0.625 0.25,-1.354167 0.145834,-0.750001 0.270834,-1.541668 0.145833,-0.791667 0.25,-1.500001 0.125,-0.708334 0.1875,-1.250001 0.08333,-0.562501 0.104167,-0.833334 0,-0.354167 0.3125,-0.770834 0.3125,-0.416667 0.729167,-0.770834 0.416667,-0.375 0.812501,-0.625 0.416667,-0.250001 0.625001,-0.250001 0.479167,0 0.895834,0.291667 0.416666,0.270834 0.729167,0.645834 0.3125,0.375 0.5,0.750001 0.1875,0.375 0.1875,0.5625 0,0.08333 -0.0625,0.458334 -0.04167,0.354167 -0.125,0.875 -0.08333,0.500001 -0.1875,1.083335 -0.08333,0.583333 -0.1875,1.125 -0.104167,0.541667 -0.1875,0.979168 -0.08333,0.416667 -0.125,0.604167 -0.354167,1.437501 -0.541667,2.333335 -0.187501,0.875001 -0.291667,1.395834 -0.08333,0.520834 -0.104167,0.791668 -0.02083,0.270833 -0.04167,0.5 0.08333,0 0.291667,-0.04167 0.625001,-0.0625 1.812501,-0.229167 1.187501,-0.1875 2.541669,-0.4375 1.354168,-0.25 2.687502,-0.583334 1.333334,-0.354167 2.270835,-0.75 0.750001,-0.333334 1.354168,-0.666667 0.625,-0.354167 1.125001,-0.625001 0.520833,-0.270833 0.9375,-0.4375 0.416667,-0.1875 0.770834,-0.1875 z"
         id="path1677"
         inkscape:label="rt" />
      <path
         d="m 128.8126,-13.729177 q 0,0.291667 -0.20834,0.708334 -0.1875,0.395834 -0.54166,0.937501 -0.20834,0.333333 -0.5625,0.770834 -0.33334,0.4375 -0.72917,0.895834 -0.375,0.4583332 -0.75,0.8958336 -0.375,0.4375003 -0.6875,0.7500005 -1.1875,1.2083343 -2.54167,2.3333351 -1.33334,1.1250008 -2.8125,2.0000015 -1.45834,0.8750006 -3.02084,1.4166677 -1.5625,0.5208337 -3.22917,0.5208337 -1.4375,0 -2.52083,-0.5208337 -1.0625,-0.5208337 -1.66667,-1.6666679 -0.20833,-0.3750003 -0.4375,-1.1875009 -0.20834,-0.8125006 -0.39584,-1.7291679 -0.1875,-0.9375007 -0.3125,-1.8333347 -0.125,-0.895834 -0.16666,-1.458334 -0.0208,-0.375001 -0.0625,-0.854168 -0.0417,-0.5 -0.125,-0.9375 -0.0625,-0.437501 -0.1875,-0.729168 -0.10417,-0.3125 -0.29167,-0.3125 -0.20833,0 -0.39583,0.104167 -0.375,0.1875 -1.25,0.979167 -0.85417,0.770834 -1.95834,1.979168 -1.10417,1.1875013 -2.33333,2.7291691 -1.22917,1.5208345 -2.333339,3.2083357 -0.416667,0.6250005 -0.854167,1.3958344 -0.437501,0.7500005 -0.875001,1.5416678 -0.416667,0.7708339 -0.833334,1.50000112 -0.395833,0.72916721 -0.729167,1.29166758 -0.229167,0.3333336 -0.541667,0.5625005 -0.3125,0.2500002 -0.625001,0.3958336 -0.291666,0.1458334 -0.541667,0.2083335 -0.25,0.0625 -0.375,0.0625 -0.458334,0 -0.875001,-0.2083335 Q 92.645903,1.8125014 92.333403,1.4791678 92.041736,1.1666675 91.854236,0.75000056 91.687569,0.33333358 91.687569,-0.0833334 q 0,-0.22916683 0.0625,-0.8125006 0.08333,-0.6041671 0.1875,-1.3541677 0.125,-0.7500005 0.229167,-1.5625011 0.125,-0.8125006 0.208333,-1.5000012 0.166667,-1.3333343 0.333334,-2.9166688 0.1875,-1.5833345 0.333333,-3.1875022 0.166667,-1.604168 0.291667,-3.125003 0.145834,-1.541667 0.208334,-2.770835 0.02083,-0.395834 0.0625,-1.041667 0.04167,-0.666668 0.08333,-1.458335 0.0625,-0.8125 0.104167,-1.666668 0.04167,-0.875 0.08333,-1.708334 0.0625,-0.833334 0.08333,-1.562501 0.04167,-0.729168 0.0625,-1.229168 0.02083,-0.583334 0.0625,-1.083334 0.0625,-0.520834 0.166667,-1.020834 0.125,-0.500001 0.291667,-1.000001 0.1875,-0.520834 0.479167,-1.125001 0.104166,-0.229167 0.333333,-0.5 0.229167,-0.270834 0.541667,-0.500001 0.333334,-0.229166 0.708334,-0.375 0.395834,-0.166667 0.791667,-0.166667 0.875001,0 1.479168,0.625001 0.625001,0.604167 0.625001,1.708334 0,0.312501 -0.08333,0.833334 -0.0625,0.520834 -0.166667,1.020834 -0.08333,0.500001 -0.166666,0.916668 -0.0625,0.395833 -0.0625,0.5 -0.0625,0.291667 -0.166667,1.062501 -0.104167,0.750001 -0.25,1.791668 -0.125001,1.020834 -0.270834,2.250002 -0.145833,1.208334 -0.3125,2.458335 -0.145834,1.229167 -0.291667,2.395835 -0.145834,1.166667 -0.270834,2.083335 -0.104166,0.916667 -0.166666,1.500001 -0.0625,0.583334 -0.08333,0.666667 -0.0625,0.416667 -0.166667,1.187501 -0.08333,0.750001 -0.208333,1.5625012 -0.104167,0.7916672 -0.208334,1.5000011 -0.08333,0.7083338 -0.125,1.0208341 0.1875,-0.2708336 0.479167,-0.7291672 0.312501,-0.4791671 0.625001,-0.9583341 0.333333,-0.5000004 0.625,-0.9375007 0.291667,-0.4375003 0.437501,-0.6458338 0.333333,-0.5000006 0.770834,-1.1250006 0.458333,-0.625001 0.958337,-1.270835 0.5,-0.666667 1.04167,-1.291667 0.54166,-0.645834 1.04166,-1.166668 0.64584,-0.666667 1.45834,-1.375001 0.8125,-0.708334 1.70833,-1.291667 0.89584,-0.583334 1.83334,-0.958334 0.9375,-0.375001 1.8125,-0.375001 0.22917,0 0.5625,0.104167 0.35417,0.104167 0.6875,0.3125 0.35417,0.1875 0.64583,0.479167 0.29167,0.291667 0.41667,0.666667 0.27083,0.750001 0.45833,1.833335 0.1875,1.062501 0.33334,2.229169 0.16666,1.145834 0.33333,2.291668 0.16667,1.1250007 0.375,2.0416681 0.20833,0.895834 0.47917,1.4583344 0.29167,0.5625004 0.70833,0.5625004 0.5625,0 1.04167,-0.041667 0.5,-0.041667 0.95833,-0.1458334 0.47917,-0.1041668 0.95834,-0.2708336 0.47916,-0.1666667 1.02083,-0.4375003 1.14584,-0.5625004 1.97917,-1.0625008 0.83333,-0.5000003 1.5625,-1.0416674 0.75,-0.5625004 1.5,-1.2291674 0.77084,-0.6875 1.75,-1.583334 1.04167,-0.958334 1.8125,-1.541668 0.79167,-0.604167 1.14584,-0.604167 0.25,0 0.39583,0.104166 0.16667,0.104167 0.25,0.270834 0.0833,0.145833 0.10417,0.333334 0.0417,0.1875 0.0417,0.333333 z"
         id="path1679"
         inkscape:label="h" />
      <path
         d="m 137.14594,-11.062508 q 0.16667,-0.1875 0.35417,-0.458334 0.20833,-0.270833 0.39583,-0.583334 0.20834,-0.3125 0.39584,-0.625 0.20833,-0.333334 0.33333,-0.604167 -0.4375,-0.291667 -0.64583,-0.770834 -0.18751,-0.500001 -0.18751,-1.000001 0,-0.208333 0.0208,-0.479167 0.0417,-0.270833 0.0833,-0.541667 0.0417,-0.291667 0.0625,-0.541667 0.0417,-0.25 0.0417,-0.375 0,-0.270834 -0.16667,-0.562501 -0.16667,-0.3125 -0.41667,-0.5625 -0.22916,-0.25 -0.52083,-0.416667 -0.27083,-0.166667 -0.5,-0.166667 -0.5,0 -1.16667,0.604167 -0.66666,0.583334 -1.39583,1.479168 -0.72917,0.895834 -1.45834,1.958335 -0.70833,1.0625 -1.3125,1.979168 -0.66666,1.041667 -1.14583,1.958335 -0.47917,0.8958336 -0.83333,1.6250009 -1.10417,2.3750017 -1.10417,3.7500027 0,1.250001 0.45833,1.250001 0.41667,0 1.08334,-0.2916669 0.66666,-0.2916669 1.5625,-0.895834 0.9375,-0.6458338 1.6875,-1.2291676 0.77083,-0.6041671 1.3125,-1.1666675 1.16667,-1.1875009 1.89583,-2.0000015 0.72917,-0.8333341 1.16667,-1.3333341 z m 21.54168,-3.333336 q 0,0.375 -0.10416,0.75 -0.10417,0.354167 -0.39584,0.812501 -0.27083,0.4375 -0.75,1.041668 -0.45833,0.604167 -1.20833,1.479167 v -0.02083 q -0.77084,0.895834 -1.64584,1.791668 -0.85416,0.8750006 -1.85416,1.8125013 -0.95834,0.9166674 -1.91667,1.6875013 -0.95834,0.7708339 -1.85417,1.3333343 -0.89583,0.5625004 -1.6875,0.895834 -0.79167,0.3125002 -1.41667,0.3125002 -1.4375,0 -2.29167,-0.6666671 -0.85416,-0.6666672 -1.375,-1.8125014 -0.5,-1.1458342 -0.77083,-2.687502 -0.27084,-1.5625011 -0.5,-3.3125026 -0.5625,0.854167 -1.20834,1.8333349 -0.625,0.958334 -1.33333,1.916668 -0.6875,0.9583341 -1.45834,1.8541681 -0.75,0.895834 -1.54166,1.6250012 -2.08334,1.8958348 -4.29167,2.8541688 -2.18751,0.9375007 -4.52084,0.9375007 -0.8125,0 -1.41667,-0.41666698 -0.60416,-0.41666698 -1,-1.06250082 -0.39583,-0.6666671 -0.60417,-1.437501 -0.1875,-0.7916673 -0.1875,-1.5208345 0,-0.9791674 0.0833,-1.6666679 0.0833,-0.7083339 0.25,-1.1875009 0.89583,-2.5625019 1.97917,-4.8541706 1.10416,-2.312501 2.70833,-4.54167 1,-1.416667 1.97917,-2.500002 0.97917,-1.083334 2.0625,-1.812501 1.10417,-0.750001 2.375,-1.125001 1.27084,-0.375 2.85417,-0.375 1.33334,0 2.1875,0.979167 0.85417,0.979168 1.20834,2.729169 0.14583,-0.791667 0.27083,-1.791668 0.14583,-1.000001 0.27083,-2.104168 0.125,-1.104168 0.22917,-2.291669 0.10417,-1.1875 0.1875,-2.354168 0.10417,-1.625001 0.27083,-2.750002 0.16667,-1.125001 0.41667,-1.541668 0.33334,-0.541667 0.83334,-0.895834 0.5,-0.354167 1.35416,-0.354167 0.52084,0 0.97917,0.166667 0.47917,0.145833 0.83333,0.395834 0.37501,0.229166 0.58334,0.541667 0.20833,0.291667 0.20833,0.583333 0,0.270834 -0.10416,0.812501 -0.10417,0.541667 -0.29167,1.437501 -0.16667,0.875001 -0.41667,2.166668 -0.25,1.270835 -0.5625,3.020836 0,0.125 -0.0625,0.458334 -0.0417,0.333333 -0.125,0.770834 -0.0625,0.416667 -0.14583,0.875 -0.0625,0.458334 -0.14584,0.875001 -0.0625,0.395834 -0.125,0.6875 -0.0417,0.291667 -0.0625,0.354167 -0.25,1.625002 -0.41666,3.020836 -0.16667,1.395834 -0.16667,2.791669 0,0.625 0,1.333334 0.0208,0.708334 0.0417,1.437501 0.0208,0.708334 0.0625,1.4166678 0.0417,0.7083338 0.125,1.3541677 0.0208,0.1458334 0.10416,0.3541669 0.0833,0.1875001 0.20834,0.3750003 0.14583,0.1666668 0.33333,0.2916669 0.1875,0.125 0.41667,0.125 0.29166,0 0.625,-0.1041667 0.33333,-0.1250001 0.6875,-0.2916669 0.375,-0.1875001 0.70833,-0.3750003 0.35417,-0.2083335 0.625,-0.3958336 1.10417,-0.7291672 2.16667,-1.5625012 1.08334,-0.8541669 2.16667,-1.8541679 1.0625,-0.979167 2.125,-1.895835 1.0625,-0.937501 1.875,-1.812501 0.3125,-0.3125 0.79167,-0.3125 0.33333,0 0.54167,0.3125 0.22916,0.3125 0.22916,1.083334 z"
         id="path1681"
         inkscape:label="d" />
      <path
         d="m 168.08346,-19.062514 q 0,-0.0625 -0.0417,-0.229167 -0.0208,-0.1875 -0.0625,-0.291667 -0.68751,0.08333 -1.52084,0.541667 -0.8125,0.4375 -1.77083,1.354168 -0.9375,0.916667 -2.02084,2.375002 -1.08333,1.437501 -2.27083,3.520836 -0.3125,0.5625 -0.66667,1.229167 -0.35417,0.6458339 -0.66667,1.3958345 -0.29166,0.7500006 -0.47917,1.6041679 -0.1875,0.8333339 -0.1875,1.7708346 0,0.3541669 0.1875,0.5416671 0.20834,0.1666668 0.41667,0.1666668 0.47917,0 1.22917,-0.5416671 0.77083,-0.5625004 1.64583,-1.4791678 0.89584,-0.9166673 1.81251,-2.0833348 0.9375,-1.1875012 1.72916,-2.4166682 0.79167,-1.250001 1.375,-2.458335 0.60417,-1.229168 0.83334,-2.208335 0.0625,-0.312501 0.14583,-0.729168 0.0833,-0.416667 0.14584,-0.8125 0.0833,-0.416667 0.125,-0.750001 0.0417,-0.333333 0.0417,-0.5 z m 16.81251,2.625002 q 0,0.375 -0.125,0.791667 -0.125,0.416667 -0.33333,0.833334 -0.1875,0.416667 -0.4375,0.833334 -0.25,0.416667 -0.52083,0.770834 -1.20834,1.625001 -2.60417,3.062502 -1.375,1.4166678 -2.77084,2.6666688 -0.75,0.6666671 -1.54166,1.2083342 -0.79167,0.5416671 -1.58334,0.9375007 -0.79167,0.3958336 -1.54167,0.6041671 -0.75,0.2083335 -1.39583,0.2083335 -0.79167,0 -1.52084,-0.5000004 -0.72916,-0.5000003 -1.29166,-1.2500009 -0.54167,-0.7708339 -0.875,-1.6458346 -0.3125,-0.8750006 -0.3125,-1.6250012 -0.25,0.3750003 -0.72917,1.0000008 -0.47917,0.6250004 -1,1.2708342 -0.52084,0.6458339 -0.97917,1.1875009 -0.4375,0.5208338 -0.625,0.7500006 -0.66667,0.7083339 -1.54167,1.4583344 -0.875,0.7500006 -1.75,1.3541677 -0.85417,0.6041671 -1.60417,1.0000007 -0.75,0.3750003 -1.14583,0.3750003 -0.91667,0 -1.77084,-0.2916669 -0.85416,-0.2916669 -1.52083,-0.8333339 -0.64583,-0.5625004 -1.04167,-1.375001 -0.39583,-0.8125007 -0.39583,-1.8541681 0,-1.0208341 0.27083,-2.2291683 0.29167,-1.2291676 0.77084,-2.5416686 0.5,-1.333334 1.1875,-2.687502 0.6875,-1.354168 1.47916,-2.625002 0.8125,-1.291668 1.70834,-2.437502 0.89583,-1.145834 1.83333,-2.041668 1.66667,-1.583334 3.54167,-2.333335 1.875,-0.750001 3.87501,-0.750001 0.52083,0 0.875,0.145834 0.35416,0.145833 0.60416,0.395833 0.25,0.229167 0.41667,0.541668 0.1875,0.3125 0.33333,0.625 0.10417,0.145833 0.33334,0.416667 0.25,0.25 0.5,0.5625 0.25,0.312501 0.4375,0.625001 0.1875,0.3125 0.1875,0.5625 0,0.437501 -0.125,0.958334 -0.125,0.500001 -0.27084,1.166668 -0.125,0.666667 -0.25,1.520834 -0.125,0.833334 -0.125,1.937502 0,0.625 0.0833,1.458334 0.10416,0.833334 0.29166,1.562501 0.18751,0.7291676 0.45834,1.2500013 0.29167,0.5000004 0.64583,0.5000004 0.4375,0 0.77084,-0.083333 0.35416,-0.1041667 0.66666,-0.2708335 0.3125,-0.1875002 0.625,-0.4375004 0.33334,-0.2500002 0.75,-0.5416678 1.29167,-0.9375 2.58334,-2.166668 1.3125,-1.229168 2.66667,-2.520835 0.375,-0.354167 0.77083,-0.791667 0.41667,-0.437501 0.83334,-0.812501 0.4375,-0.375 0.85416,-0.625 0.41667,-0.250001 0.79167,-0.250001 0.58333,0 0.58333,0.979168 z"
         id="path1683"
         inkscape:label="a" />
      <path
         d="m 202.85432,-17.500013 q -0.0208,0.354167 -0.25,1.125001 -0.22917,0.75 -0.58334,1.770834 -0.33333,1.020835 -0.79166,2.250002 -0.4375,1.208334 -0.89584,2.500002 -0.4375,1.2916676 -0.875,2.6041686 -0.4375,1.2916676 -0.77083,2.4583352 -0.0208,0.0625 -0.1875,0.5833337 -0.14584,0.5000004 -0.39584,1.312501 -0.25,0.7916673 -0.5625,1.8125014 -0.3125,1.0000007 -0.64583,2.0625015 -0.3125,1.0625008 -0.64583,2.0625015 -0.3125,1.0208341 -0.5625,1.8333347 -0.25001,0.8125006 -0.41667,1.3333344 -0.16667,0.541667 -0.1875,0.6041671 -0.16667,0.5625004 -0.375,1.312501 -0.1875,0.7500005 -0.54167,1.3958343 -0.33333,0.6666676 -0.89583,1.1250006 -0.5625,0.458334 -1.47917,0.458334 -0.52083,0 -0.9375,-0.208334 -0.39584,-0.208333 -0.6875,-0.541667 -0.27084,-0.3125 -0.4375,-0.7291668 -0.14584,-0.3958337 -0.14584,-0.7916673 0,-0.4583337 0.22917,-1.2291676 0.22917,-0.7500005 0.5625,-1.6666679 0.35417,-0.895834 0.75,-1.9166681 0.41667,-1.0000007 0.77084,-1.9791681 0,0 0.14583,-0.416667 0.16667,-0.3958336 0.41667,-1.06250078 0.25,-0.66666716 0.54166,-1.50000112 0.3125,-0.833334 0.625,-1.6666679 0.3125,-0.833334 0.58334,-1.5833345 0.29166,-0.7500006 0.47916,-1.250001 -0.47916,0.3958337 -1.10416,0.8541674 -0.625,0.4583336 -1.33334,0.9375007 -0.6875,0.4583336 -1.45833,0.895834 -0.77084,0.4166669 -1.54167,0.7500005 -0.75,0.3333336 -1.5,0.5416671 -0.72917,0.1875001 -1.39584,0.1875001 -1.4375,0 -2.54166,-0.479167 -1.10417,-0.479167 -1.85417,-1.2083342 -0.75,-0.7500006 -1.14584,-1.6250012 -0.375,-0.895834 -0.375,-1.729168 0,-0.6250005 0.125,-1.5416678 0.14584,-0.9166674 0.375,-1.9583348 0.25,-1.0625007 0.58334,-2.1875017 0.33333,-1.145834 0.70833,-2.208335 0.375,-1.062501 0.77084,-1.958335 0.41666,-0.916667 0.83333,-1.520834 0.64583,-0.937501 1.22917,-1.312501 0.60416,-0.375 1.29166,-0.375 0.64584,0 1.04167,0.1875 0.41667,0.1875 0.64584,0.520833 0.22916,0.333334 0.3125,0.750001 0.0833,0.416667 0.0833,0.895834 0,0.291667 -0.25,0.833334 -0.22917,0.541667 -0.58333,1.291668 -0.3125,0.645833 -0.72917,1.541667 -0.41667,0.875001 -0.77084,1.916668 -0.35416,1.020835 -0.60416,2.1458354 -0.25,1.1250008 -0.25,2.270835 0,0.3958337 0.20833,0.6666672 0.20833,0.2708335 0.47917,0.4375003 0.29166,0.1458335 0.58333,0.2291669 0.3125,0.0625 0.5,0.0625 0.75,0 1.5625,-0.2916669 0.8125,-0.3125002 1.60417,-0.7500005 0.8125,-0.4583337 1.5625,-0.9583341 0.77084,-0.5208337 1.45834,-0.9375007 0.5625,-0.3541669 1.25,-0.895834 0.6875,-0.5625006 1.1875,-1.2500006 0.22917,-0.312501 0.54167,-1.104168 0.33333,-0.8125 0.6875,-1.833335 0.35416,-1.020834 0.6875,-2.083334 0.35416,-1.083335 0.60416,-1.958335 0.1875,-0.625001 0.47917,-1.083334 0.3125,-0.479167 0.64583,-0.770834 0.35417,-0.3125 0.70834,-0.458334 0.375,-0.166667 0.6875,-0.166667 0.70833,0 1.125,0.125 0.4375,0.125 0.66667,0.437501 0.22916,0.291667 0.29166,0.8125 0.0833,0.500001 0.0833,1.250001 z"
         id="path1685"
         inkscape:label="y" />
      <path
         d="m 254.91686,-31.66669 q 0,1.062501 -0.25,2.750002 -0.22916,1.687501 -0.64583,3.958336 -0.45833,2.458335 -0.95833,5.333337 -0.5,2.854169 -0.72917,5.833338 0,0.145833 -0.0417,0.729167 -0.0417,0.583334 -0.10416,1.479168 -0.0625,0.895834 -0.14584,2.0416682 -0.0625,1.1250009 -0.125,2.3958351 -0.0625,1.250001 -0.10416,2.562502 -0.0417,1.3125009 -0.0417,2.5625019 0,0.7083338 -0.27083,1.27083424 -0.25,0.54166707 -0.68751,0.91666735 -0.4375,0.39583363 -1.02083,0.58333377 -0.58333,0.20833349 -1.22917,0.20833349 -0.375,0 -0.83333,-0.16666679 -0.4375,-0.14583345 -0.83333,-0.45833368 -0.375,-0.29166688 -0.64584,-0.75000056 -0.27083,-0.45833367 -0.27083,-1.08333412 0,-0.416667 0.0833,-1.1666676 0.10417,-0.7500005 0.22917,-1.6875012 0.14583,-0.9375007 0.3125,-2.0000015 0.16667,-1.0625008 0.29167,-2.1041682 0.14583,-1.0416675 0.22916,-1.9791684 0.10417,-0.9375 0.10417,-1.625001 0,-0.375 -0.0625,-0.666667 -0.0625,-0.291667 -0.35417,-0.291667 -0.625,0 -1.6875,0.08333 -1.0625,0.0625 -2.22917,0.166667 -1.14583,0.08333 -2.25,0.166667 -1.08333,0.0625 -1.77083,0.0625 -0.14584,0 -0.72917,0.04167 -0.5625,0.02083 -1.35417,0.0625 -0.77083,0.04167 -1.66667,0.125 -0.89583,0.0625 -1.6875,0.125 -0.79167,0.0625 -1.375,0.145833 -0.5625,0.0625 -0.70833,0.125 -0.10417,0.104167 -0.25,0.854168 -0.125,0.75 -0.27084,1.7500011 -0.125,0.9791674 -0.22916,2.0000015 -0.10417,1.0000007 -0.14584,1.6250012 0,1.3125009 -0.16666,2.5625019 -0.14584,1.2500009 -0.54167,2.2291683 -0.375,0.9791674 -1,1.56250116 -0.625,0.60416714 -1.5625,0.60416714 -0.58334,0 -1.0625,-0.2916669 -0.45834,-0.29166689 -0.79167,-0.75000056 -0.33333,-0.45833368 -0.52083,-0.9791674 -0.1875,-0.54166704 -0.1875,-1.00000074 0,-0.4375003 0.0833,-1.0208341 0.10417,-0.5833338 0.22917,-1.1666675 0.125,-0.5833338 0.22916,-1.0625008 0.10417,-0.5000004 0.125,-0.7291672 0.27084,-1.2708343 0.54167,-2.9375022 0.29167,-1.6666679 0.5625,-3.6041689 0.29167,-1.958335 0.5625,-4.10417 0.29167,-2.145835 0.54167,-4.35417 0.27083,-2.229168 0.52083,-4.437503 0.25,-2.208335 0.45833,-4.270837 0.0417,-0.3125 0.22917,-0.645834 0.20834,-0.354167 0.52084,-0.625 0.33333,-0.291667 0.75,-0.479167 0.41666,-0.1875 0.875,-0.1875 0.10416,0 0.1875,0.02083 0.0833,0 0.1875,0.02083 0.79166,0.145834 1.27083,0.416667 0.47917,0.25 0.72917,0.645834 0.25,0.395834 0.33333,0.937501 0.0833,0.541667 0.0833,1.250001 0,1.333334 -0.1875,2.791668 -0.1875,1.437502 -0.52084,2.937503 -0.14583,0.6875 -0.29167,1.437501 -0.125,0.75 -0.22916,1.500001 -0.10417,0.75 -0.16667,1.458334 -0.0625,0.687501 -0.0625,1.291668 0.0417,0.0625 0.20833,0.104167 0.1875,0.04167 0.41667,0.0625 0.22917,0.02083 0.45834,0.04167 0.25,0 0.41666,0 0.3125,0 1.0625,0 0.75,-0.02083 1.75,-0.0625 1,-0.04167 2.16667,-0.08333 1.1875,-0.0625 2.375,-0.145833 1.20834,-0.08333 2.33334,-0.187501 1.125,-0.125 2.04167,-0.270833 0.91666,-0.145834 1.5,-0.333334 0.60417,-0.1875 0.75,-0.416667 0.10417,-0.145833 0.27083,-0.833334 0.16667,-0.708334 0.35417,-1.770834 0.20833,-1.062501 0.39583,-2.395835 0.20834,-1.354168 0.375,-2.812503 0.16667,-1.458334 0.27084,-2.937502 0.10416,-1.479167 0.10416,-2.812502 0,-0.25 0.20834,-0.625 0.20833,-0.375001 0.5625,-0.729167 0.35416,-0.375001 0.85417,-0.625001 0.5,-0.25 1.0625,-0.25 0.375,0 0.85416,0.125 0.47917,0.125 0.89584,0.375 0.4375,0.25 0.72916,0.645834 0.29167,0.395834 0.3125,0.937501 z"
         id="path1687"
         inkscape:label="H" />
      <path
         d="m 286.43771,-10.145841 q 0,0.2708336 -0.45834,0.8125007 -0.45833,0.5416671 -1.3125,1.0625008 -0.85417,0.5208337 -2.0625,0.9166674 -1.20834,0.3958336 -2.72917,0.3958336 -1.0625,0 -1.95833,-0.1875002 -0.875,-0.1875001 -1.54167,-0.3958336 -0.64584,-0.2291668 -1.0625,-0.3958336 -0.39584,-0.1875002 -0.5,-0.1875002 -0.125,0 -0.375,0.3750003 -0.25,0.3750003 -0.58334,0.9791674 -0.625,1.1041675 -1.60417,2.1875017 -0.97916,1.0833341 -2.125,2.0000014 -1.14583,0.9166674 -2.375,1.6041679 -1.20833,0.68750052 -2.3125,0.9791674 -0.22917,0.06250005 -0.6875,0.12500009 -0.4375,0.0833334 -0.91667,0.14583345 -0.47917,0.0833334 -0.89583,0.12500009 -0.39584,0.0416667 -0.5625,0.0416667 -1.27084,0 -2.1875,-0.58333377 -0.89584,-0.58333377 -1.47917,-1.45833446 -0.58334,-0.8750006 -0.85417,-1.8750014 -0.27083,-1.0208341 -0.27083,-1.8958347 0,-0.1666668 0.0417,-0.7083339 0.0417,-0.5625004 0.14584,-1.2500009 0.10416,-0.7083339 0.25,-1.4375011 0.16666,-0.7500005 0.375,-1.2500011 0.41666,-0.916667 1.125,-2.250001 0.72917,-1.333335 1.58333,-2.645836 0.58334,-0.916667 1.60417,-1.895835 1.02084,-0.979167 2.20834,-1.770834 1.20833,-0.812501 2.47916,-1.333335 1.29167,-0.520833 2.37501,-0.520833 0.47916,0 0.83333,0.104167 0.35417,0.104166 0.625,0.270833 0.27083,0.166667 0.47917,0.375 0.22916,0.208334 0.41666,0.437501 0.1875,0.208333 0.35417,0.375 0.16667,0.166667 0.20834,0.166667 0.8125,0.1875 1.33333,0.75 0.54167,0.562501 0.85417,1.312501 0.33333,0.729167 0.5,1.541668 0.1875,0.791667 0.29166,1.458334 0.0625,0.437501 0.35417,0.979168 0.3125,0.520834 0.91667,1.000001 0.625,0.458333 1.58333,0.791667 0.97917,0.3125 2.375,0.3125 0.87501,0 1.58334,-0.08333 0.70833,-0.08333 1.25,-0.166667 0.5625,-0.104167 0.9375,-0.1875 0.375,-0.08333 0.58333,-0.08333 0.68751,0 0.93751,0.250001 0.25,0.229166 0.25,0.6875 z m -15.14585,-1.145834 q 0,-0.25 -0.125,-0.5625 -0.10417,-0.312501 -0.27083,-0.687501 -0.16667,-0.395834 -0.35417,-0.833334 -0.1875,-0.458334 -0.33333,-0.979167 -0.14584,-0.541667 -0.20834,-0.979168 -0.0417,-0.458333 -0.10416,-0.791667 -0.0625,-0.354167 -0.16667,-0.541667 -0.10417,-0.1875 -0.35417,-0.1875 -0.6875,0 -1.52083,0.541667 -0.8125,0.541667 -1.64584,1.458334 -0.83333,0.916668 -1.625,2.125002 -0.79166,1.187501 -1.41667,2.520835 -0.60416,1.3333344 -0.97916,2.7083354 -0.375,1.3541677 -0.375,2.6041686 0,0.3541669 0.14583,0.7083339 0.16667,0.3333336 0.39583,0.6041671 0.22917,0.2500002 0.5,0.416667 0.27084,0.1666668 0.52084,0.1666668 0.77083,0 1.6875,-0.5000004 0.91667,-0.5000004 1.79167,-1.2083342 0.875,-0.7291673 1.625,-1.5208345 0.75,-0.7916673 1.1875,-1.375001 0.6875,-0.895834 1.14583,-1.7500013 0.47917,-0.8750004 0.47917,-1.9375014 z"
         id="path1689"
         inkscape:label="o" />
      <path
         d="m 296.35438,-12.666676 q 0,-0.520834 -0.0625,-1.083334 -0.0417,-0.562501 -0.20833,-1.041668 -0.16667,-0.5 -0.45833,-0.854167 -0.29167,-0.375 -0.77084,-0.5 -0.72917,-0.187501 -1.1875,-0.395834 -0.45833,-0.229167 -0.72917,-0.416667 -0.27083,-0.1875 -0.375,-0.3125 -0.10416,-0.125 -0.14583,-0.125 -0.16667,0 -0.47917,0.291667 -0.29166,0.270833 -0.66666,0.708333 -0.35417,0.437501 -0.75001,0.937501 -0.375,0.500001 -0.72916,0.937501 -0.4375,0.541667 -0.83334,1.062501 -0.375,0.5 -0.75,1.0625 -0.35416,0.541668 -0.70833,1.145835 -0.35417,0.604167 -0.72917,1.3333339 -0.33333,0.6666672 -0.5,1.6458346 -0.16667,0.9583341 -0.16667,1.8125014 0,0.3541669 0.0833,0.7291672 0.0833,0.3541669 0.25,0.6458338 0.16667,0.2916669 0.4375,0.479167 0.27083,0.1875001 0.66667,0.1875001 0.95833,0 1.60416,-0.083333 0.64584,-0.1041667 1.20834,-0.3333335 0.5625,-0.2500002 1.125,-0.6458338 0.58333,-0.416667 1.39583,-1.0208341 0.375,-0.2916669 0.75,-0.6666672 0.375,-0.3958336 0.75,-0.833334 0.375,-0.4583336 0.72917,-0.9375007 0.35417,-0.5000003 0.64584,-0.958334 0.16666,-0.2500007 0.27083,-0.6458347 0.125,-0.416666 0.1875,-0.833333 0.0833,-0.416667 0.10417,-0.770834 0.0417,-0.354167 0.0417,-0.500001 z m 16.16668,-4.687504 q 0,0.375001 -0.16667,0.791668 -0.14583,0.416667 -0.41666,0.8125 -0.27084,0.375001 -0.625,0.708334 -0.33334,0.333334 -0.6875,0.562501 -0.75,0.5 -2.18751,0.875 -1.41666,0.375 -3.4375,0.375 -0.58333,0 -1.25,-0.08333 -0.64583,-0.08333 -1.33333,-0.229167 -0.66667,-0.145833 -1.33334,-0.354167 -0.64583,-0.229167 -1.25,-0.5 0.125,0.1875 0.20834,0.520834 0.0833,0.3125 0.10416,0.666667 0.0417,0.354167 0.0417,0.6875 0.0208,0.312501 0.0208,0.500001 0,1.333334 -0.47917,2.6666684 -0.45833,1.3125009 -1.22916,2.5208352 -0.77084,1.2083342 -1.75,2.2500017 -0.97917,1.020834 -2.00001,1.7708346 -0.8125,0.6041671 -1.8125,1.0416674 -0.97916,0.4375004 -2.08333,0.7291673 -1.08334,0.29166684 -2.25,0.43750028 -1.14584,0.14583345 -2.33334,0.14583345 -0.97917,0 -1.875,-0.47916703 -0.89583,-0.479167 -1.58333,-1.2291676 -0.66667,-0.7708339 -1.08334,-1.7291679 -0.39583,-0.9583341 -0.39583,-1.8958348 0,-1.6666679 0.4375,-3.2083357 0.45833,-1.5416683 1.20833,-2.9791693 0.75,-1.437501 1.75,-2.812502 1,-1.395834 2.10417,-2.750002 0.64584,-0.791667 1.47917,-1.541668 0.83333,-0.75 1.75,-1.333334 0.9375,-0.604167 1.875,-0.958334 0.95834,-0.354167 1.83334,-0.354167 0.72916,0 1.25,0.166667 0.54167,0.166667 0.97917,0.479167 0.45833,0.291667 0.875,0.729167 0.41666,0.4375 0.875,0.979168 l 0.4375,0.479167 q 0.16666,0.166666 0.89583,0.5 0.75,0.333334 1.77084,0.666667 1.02083,0.3125 2.14583,0.562501 1.125,0.25 2.04167,0.25 0.9375,0 1.77083,-0.02083 0.83334,-0.02083 1.66667,-0.145833 0.85417,-0.145834 1.77084,-0.416667 0.9375,-0.291667 2.0625,-0.791667 0.10416,0.1875 0.14583,0.479167 0.0625,0.291667 0.0625,0.458333 z"
         id="path1691"
         inkscape:label="o" />
      <path
         d="m 319.56274,-11.041675 q 0.3125,-0.375 0.60416,-0.854167 0.29167,-0.479167 0.5625,-1.020834 -0.41666,-0.270834 -0.52083,-0.666667 -0.10417,-0.416667 -0.10417,-0.812501 0,-0.208334 0.0208,-0.5 0.0208,-0.291667 0.0417,-0.562501 0.0417,-0.291667 0.0625,-0.541667 0.0208,-0.25 0.0208,-0.395834 0,-0.291666 -0.16667,-0.6875 -0.14583,-0.395834 -0.375,-0.770834 -0.22917,-0.375 -0.5,-0.625 -0.25,-0.270834 -0.47917,-0.270834 -0.20833,0 -0.58333,0.270834 -0.375,0.270833 -0.85417,0.729167 -0.45833,0.4375 -1,1.041667 -0.52083,0.604167 -1.0625,1.270834 -0.52084,0.666668 -1.04167,1.354168 -0.5,0.687501 -0.89583,1.312501 -0.66667,1.062501 -1.1875,2.020835 -0.5,0.9375007 -0.85417,1.6666679 -0.58333,1.2291676 -0.8125,2.1250016 -0.20834,0.8750006 -0.20834,1.5833345 0,1.2916676 0.45834,1.2916676 0.41667,0 1.04167,-0.2083335 0.64583,-0.2291668 1.58333,-0.8541673 1.95834,-1.3333343 3.08334,-2.4791685 1.1875,-1.2291676 1.9375,-2.0625015 0.77083,-0.8333338 1.22917,-1.3541678 z m 18.33334,3.3333359 q 0,0.1458335 -0.10416,0.4583337 -0.10417,0.2916669 -0.27084,0.6250005 -0.14583,0.3125002 -0.29167,0.6041671 -0.14583,0.2916669 -0.25,0.416667 -0.79166,1.1458341 -1.6875,2.1666682 -0.875,1.0000008 -1.875,1.7500013 -1,0.7500006 -2.14583,1.18750093 -1.125,0.41666697 -2.4375,0.41666697 -0.60417,0 -1.22917,-0.25000018 -0.625,-0.25000019 -1.20834,-0.68750052 -0.58333,-0.4375003 -1.08333,-1.0416674 -0.47917,-0.6041672 -0.83333,-1.312501 -0.27084,-0.5625004 -0.52084,-1.2916676 -0.22917,-0.7500006 -0.41667,-1.5833346 -0.1875,-0.8541673 -0.29166,-1.7500013 -0.10417,-0.9166673 -0.10417,-1.791668 v -0.625 q -0.45833,0.8125002 -1.10417,1.6875008 -0.625,0.8750007 -1.35416,1.7500013 -0.70834,0.8750007 -1.50001,1.7083346 -0.77083,0.833334 -1.52083,1.5208345 -2.08333,1.8958348 -4.29167,2.8541688 -2.1875,0.9375007 -4.52084,0.9375007 -0.8125,0 -1.4375,-0.41666698 -0.60416,-0.41666698 -1,-1.06250082 -0.39583,-0.6666671 -0.60417,-1.437501 -0.1875,-0.7916673 -0.1875,-1.5208345 0,-0.9791674 0.0833,-1.6666679 0.10416,-0.7083339 0.27083,-1.1875009 0.875,-2.5625019 1.97917,-4.8541706 1.10417,-2.312501 2.70834,-4.54167 0.47916,-0.666667 1.0625,-1.354167 0.60416,-0.708334 1.22916,-1.333335 0.64584,-0.645834 1.33334,-1.187501 0.6875,-0.541667 1.35417,-0.895834 0.79166,-0.416667 1.8125,-0.708333 1.02083,-0.291667 2.5,-0.291667 0.64583,0 1.20833,0.354167 0.5625,0.333333 0.97917,0.895834 0.4375,0.541667 0.72917,1.25 0.29166,0.708334 0.39583,1.458335 0.10417,-0.791667 0.25,-1.833335 0.14583,-1.041667 0.29167,-2.208335 0.14583,-1.166667 0.29167,-2.395835 0.14583,-1.229167 0.25,-2.395835 0.14583,-1.625001 0.33333,-2.812502 0.20833,-1.187501 0.45833,-1.625001 0.33334,-0.541667 0.75,-0.812501 0.41667,-0.270833 1.27084,-0.270833 0.52083,0 0.95833,0.125 0.45834,0.125 0.79167,0.354167 0.33333,0.208333 0.52083,0.5 0.1875,0.270833 0.1875,0.5625 0,0.270834 -0.10416,0.833334 -0.0833,0.562501 -0.25,1.479168 -0.16667,0.916667 -0.41667,2.208335 -0.22917,1.291668 -0.54167,3.041669 -0.0208,0.1875 -0.10417,0.812501 -0.0833,0.625 -0.1875,1.312501 -0.10416,0.6875 -0.20833,1.270834 -0.0833,0.5625 -0.10417,0.666667 -0.22916,1.583335 -0.35416,3.000002 -0.125,1.395835 -0.125,2.812502 0,2.500002 0.22916,4.3333369 0.22917,1.8333347 0.60417,3.041669 0.375,1.1875008 0.83334,1.7708346 0.47916,0.5833338 0.95833,0.5833338 0.625,0 1.22917,-0.1458335 0.60416,-0.1666668 1.22916,-0.541667 0.625,-0.3958337 1.31251,-1.0208341 0.6875,-0.6250005 1.5,-1.5625012 0.47916,-0.5416671 0.91666,-0.9375007 0.45834,-0.3958336 1.08334,-0.3958336 0.5,0 0.625,0.3333336 0.14583,0.3125002 0.14583,0.6666671 z"
         id="path1693"
         inkscape:label="d" />
    </g>
  </g>
</svg>
