<?xml version="1.0" encoding="UTF-8" standalone="no"?>
<!-- Created with Inkscape (http://www.inkscape.org/) -->

<svg
   width="77.593628mm"
   height="12.022013mm"
   viewBox="0 0 77.593628 12.022013"
   version="1.1"
   id="svg1522"
   inkscape:version="1.2.1 (9c6d41e410, 2022-07-14)"
   sodipodi:docname="birthdayhood3.svg"
   xmlns:inkscape="http://www.inkscape.org/namespaces/inkscape"
   xmlns:sodipodi="http://sodipodi.sourceforge.net/DTD/sodipodi-0.dtd"
   xmlns="http://www.w3.org/2000/svg"
   xmlns:svg="http://www.w3.org/2000/svg">
  <sodipodi:namedview
     id="namedview1524"
     pagecolor="#ffffff"
     bordercolor="#000000"
     borderopacity="0.25"
     inkscape:showpageshadow="2"
     inkscape:pageopacity="0.0"
     inkscape:pagecheckerboard="0"
     inkscape:deskcolor="#d1d1d1"
     inkscape:document-units="mm"
     showgrid="false"
     inkscape:zoom="1.0885159"
     inkscape:cx="67.063789"
     inkscape:cy="-26.182438"
     inkscape:window-width="1920"
     inkscape:window-height="1001"
     inkscape:window-x="-9"
     inkscape:window-y="-9"
     inkscape:window-maximized="1"
     inkscape:current-layer="text1600" />
  <defs
     id="defs1519">
    <rect
       x="87.047241"
       y="213.07088"
       width="348.18896"
       height="88.346458"
       id="rect1602" />
    <inkscape:perspective
       sodipodi:type="inkscape:persp3d"
       inkscape:vp_x="0 : 148.5 : 1"
       inkscape:vp_y="0 : 1000 : 0"
       inkscape:vp_z="210 : 148.5 : 1"
       inkscape:persp3d-origin="105 : 98.999999 : 1"
       id="perspective1584" />
  </defs>
  <g
     inkscape:label="Layer 1"
     inkscape:groupmode="layer"
     id="layer1"
     transform="translate(-23.770783,-57.352953)">
    <g
       aria-label="Birthday Hood"
       transform="scale(0.26458333)"
       id="text1600"
       style="font-weight:bold;font-size:42.6667px;font-family:'Comic Sans MS';-inkscape-font-specification:'Comic Sans MS, Bold';white-space:pre;shape-inside:url(#rect1602);display:inline"
       inkscape:label="text1600">
      <path
         d="m 105.46356,249.32959 q -4.85417,1.8125 -12.270847,1.8125 -1.250001,0 -2.250002,-1.04166 -0.979167,-1.04167 -0.979167,-2.22917 v -22.08335 q -0.0625,-1.41667 -0.104167,-2.83334 -0.0625,-1.60417 0.104167,-2.70833 0.291667,-1.95834 3.645836,-2.375 1.583334,-0.45834 5.250004,-0.45834 3.937506,0 7.541676,2.54167 4.22917,2.95834 4.22917,7.39584 0,2.39583 -0.875,4.04167 -0.68751,1.33333 -2.39584,2.85417 2.02083,0.97917 3.58334,2.95833 1.77083,2.20834 1.77083,4.39584 0,2.77084 -3.02083,5.25 -2.02084,1.64584 -4.22917,2.47917 z m -6.604176,-26.27085 q -2.687502,0 -3.229169,0.0417 l 0.02083,4.41667 -0.02083,4.375 q 1.895834,0.22917 2.854169,0.14583 6.375006,-0.5 6.375006,-4.6875 0,-1.47917 -1.875,-2.85417 -1.9375,-1.4375 -4.125006,-1.4375 z m 2.437506,14.72918 q -1.895839,0 -5.666675,-0.14584 v 7.79168 q 3.583336,-0.1875 7.770835,-1.375 3.66667,-1.04167 3.62501,-2.25001 -0.0625,-1.60416 -2.35417,-2.85417 -1.79167,-1 -3.375,-1.16666 z"
         id="path1608"
         inkscape:label="B" />
      <path
         d="m 120.81773,225.10041 q -1.33333,0 -2.3125,-0.89584 -0.97917,-0.89583 -0.97917,-2.1875 0,-1.29167 0.97917,-2.1875 0.97917,-0.89583 2.3125,-0.89583 1.33334,0 2.29167,0.89583 0.97917,0.89583 0.97917,2.1875 0,1.29167 -0.97917,2.1875 -0.95833,0.89584 -2.29167,0.89584 z m 1.77084,15.27084 q 0,1.1875 0.0625,3.81251 0.0833,2.625 0.0833,3.8125 0,1.20833 -0.8125,2 -0.8125,0.77083 -2.0625,0.77083 -1.25,0 -2.0625,-0.77083 -0.8125,-0.79167 -0.8125,-2 0,-1.1875 -0.0833,-3.8125 -0.0625,-2.62501 -0.0625,-3.81251 0,-1.85417 0.20834,-4.64583 0.20833,-2.79167 0.20833,-4.64584 0,-1.20834 0.8125,-1.97917 0.8125,-0.79167 2.0625,-0.79167 1.25,0 2.0625,0.79167 0.8125,0.77083 0.8125,1.97917 0,1.85417 -0.20833,4.64584 -0.20833,2.79166 -0.20833,4.64583 z"
         id="path1610"
         inkscape:label="i" />
      <path
         d="m 145.48442,235.12125 q -0.1875,3.1875 -2.89584,3.1875 -2.625,0 -2.625,-2.70833 l -0.10417,-2.10417 q -4.6875,0.75 -6.70833,4.8125 l 0.0208,10.47918 q 0,1.1875 -0.8125,1.95833 -0.8125,0.79167 -2.0625,0.79167 -1.29167,0 -2.00001,-0.83334 -0.66666,-0.75 -0.66666,-1.91666 v -13.64585 q 0,-0.64583 0.0417,-1.91667 0.0417,-1.29166 0.0417,-1.9375 0,-1.16667 0.6875,-1.9375 0.70834,-0.79167 2,-0.79167 2.3125,0 2.75001,2.37501 3.6875,-2.75001 8.1875,-2.75001 4.16667,0 4.16667,5.54167 0,1.0625 -0.0208,1.39584 z"
         id="path1612"
         style="display:inline"
         inkscape:label="r" />
      <path
         d="m 163.23443,233.37125 q -0.4375,0 -1.04167,-0.0208 -0.58333,-0.0417 -1.02083,-0.0417 -0.85417,0 -1.97917,0.16666 0.375,8.41668 0.375,11.00001 0,0.27084 0.0208,1.02084 0.0208,0.72916 0.0208,1.1875 0,4.79167 -3.02084,4.79167 -1.14583,0 -1.97917,-0.70834 -0.91666,-0.75 -0.91666,-1.875 0,-0.75 0.0625,-2.25 0.0625,-1.5 0.0625,-2.25 0,-2.52084 -0.375,-10.79168 -1.29167,-0.0625 -3.91667,-0.33333 -2.60417,-0.29167 -2.60417,-2.70833 0,-1.16667 0.79167,-1.97917 0.79166,-0.8125 2.04166,-0.8125 0.77084,0 3.54167,0.25 -0.0208,-0.66667 -0.10416,-2.20834 -0.0833,-1.33333 -0.0833,-2.0625 0,-1.16667 0.85417,-1.9375 0.85417,-0.77084 2.0625,-0.77084 3.08334,0 3.08334,5.18751 l -0.0417,1.70833 q 1.29167,-0.1875 2.10417,-0.1875 2.39583,0 3.27084,0.3125 1.66666,0.58334 1.66666,2.54167 0,1.1875 -0.8125,1.97917 -0.8125,0.79167 -2.0625,0.79167 z"
         id="path1614"
         style="display:inline"
         inkscape:label="t" />
      <path
         d="m 174.81777,231.07958 q 1.52083,-1.5 3.25,-2.22917 1.75,-0.75 3.72917,-0.75 3.5625,0 5.12501,2 1.16666,1.5 1.41666,4.60417 0.10417,2.5625 0.22917,5.14584 0.33333,3.35417 0.41667,4.08334 0.29166,2.3125 0.70833,4.04166 0.10417,0.43751 0.10417,0.77084 0,1.16667 -0.89584,1.91667 -0.875,0.77083 -2.0625,0.77083 -2.10417,0 -2.72917,-2.08333 -0.5,-1.68751 -0.91666,-4.75001 -0.375,-2.9375 -0.375,-4.83333 0,-0.52084 0.0417,-1.56251 0.0625,-1.0625 0.0625,-1.58333 0,-1.54167 -0.0417,-1.79167 -0.1875,-1.14583 -1.08334,-1.14583 -2.3125,0 -4.1875,2.125 -0.95833,1.0625 -2.625,4.04167 0,7.54167 -0.72917,9.08334 -0.8125,1.70833 -2.58334,1.70833 -1.16666,0 -2.08333,-0.77083 -0.89583,-0.79167 -0.89583,-1.9375 0,-0.39584 0.22916,-1.10417 0.14584,-0.45833 0.25,-5.625 -0.10416,-4.18751 0.0417,-13.93751 l 0.0417,-0.6875 q 0.125,-2.45834 0.125,-3.29167 0,-0.64584 -0.20834,-1.89584 -0.1875,-1.27083 -0.1875,-1.91667 0,-1.1875 0.85417,-1.9375 0.85417,-0.77083 2.0625,-0.77083 2.0625,0 2.77084,2.20833 0.39583,1.25 0.39583,3.83334 0,2.08333 -0.125,4.22917 -0.125,2.04167 -0.125,4.04167 z"
         id="path1616"
         inkscape:label="h" />
      <path
         d="m 208.52613,229.20458 q 0.27083,-7.10417 0.64583,-9.81251 0.35417,-2.45834 2.70834,-2.45834 1.22917,0 1.97917,0.79167 0.75,0.79167 0.75,1.9375 0,3.02084 -0.47917,9.00001 -0.45833,5.97917 -0.45833,9.00001 0,7.375 0.47916,9.875 0.0625,0.33334 0.0625,0.60417 0,1.14584 -0.83333,1.89584 -0.83334,0.72916 -1.9375,0.72916 -1.54167,0 -2.29167,-1.375 -1.41667,0.85417 -2.9375,1.27084 -1.52084,0.4375 -3.14584,0.4375 -4.66667,0 -7.75,-2.97917 -3.14584,-3.04167 -3.14584,-7.75001 0,-5.60417 3.16667,-9.04167 3.16667,-3.45834 8.27084,-3.45834 1.5625,0 2.79167,0.33334 1.22916,0.33333 2.125,1 z m -0.41667,6.5625 q -0.6875,-1.3125 -1.79167,-1.95833 -1.10416,-0.64584 -2.625,-0.64584 -3.08333,0 -4.625,1.79167 -1.54167,1.77084 -1.54167,5.33334 0,2.25 1.66667,3.85417 1.66667,1.60417 3.875,1.60417 1.60417,0 2.4375,-0.375 0.5625,-0.25 1.91667,-1.33334 0.35417,-0.29167 0.6875,-0.64583 -0.0417,-1 0,-7.62501 z"
         id="path1618"
         style="display:inline"
         inkscape:label="d" />
      <path
         d="m 236.31782,251.51709 q -0.95833,0 -3.04167,-2.08333 -1.91667,0.91667 -3.375,1.375 -1.45834,0.47917 -2.47917,0.47917 -5.02084,0 -7.54167,-2.6875 -2.5,-2.68751 -2.5,-8.04168 0,-5.02083 3.70833,-8.58334 3.70834,-3.58333 8.87501,-3.58333 1.97917,0 4.58334,1.125 3.14583,1.35417 3.14583,3.14583 0,0.75 -0.47917,1.3125 -0.20833,0.83334 -0.33333,2.10417 -0.10417,1.25 -0.10417,2.9375 0,3.97917 0.5625,5.72918 0.0625,0.1875 0.95834,2.16666 0.8125,1.79167 0.8125,2.04167 0,1.10417 -0.85417,1.83334 -0.83333,0.72916 -1.9375,0.72916 z m -5.16667,-14.29167 q 0,-0.66667 0.0833,-1.52084 0.10417,-0.875 0.29167,-1.9375 -0.41667,-0.20833 -0.75,-0.29167 -0.3125,-0.10416 -0.54167,-0.10416 -2.83333,0 -4.95833,2.22917 -2.12501,2.20833 -2.12501,5.125 0,2.79167 1,4.20834 1,1.39583 3.00001,1.39583 1.29166,0 2.4375,-0.41667 1.16667,-0.4375 2.1875,-1.27083 -0.625,-4.95834 -0.625,-7.41667 z"
         id="path1620"
         inkscape:label="a" />
      <path
         d="m 262.75533,232.53791 q -2.27083,4.72917 -7.1875,14.85418 -2.66667,5.43751 -4.06251,9.02084 -0.4375,1.29167 -1.375,3.83334 -0.75,1.95833 -2.66667,1.95833 -1.1875,0 -2.08333,-0.77083 -0.89583,-0.77084 -0.89583,-1.9375 0,-1.9375 4.41667,-11.47918 -2.29167,-4.52084 -7.27084,-13.31251 -0.5,-0.79167 -1.02084,-1.60417 -0.5625,-0.95833 -0.5625,-1.75 0,-1.125 0.89584,-1.97917 0.89583,-0.85416 2.0625,-0.85416 1.375,0 2.14583,1.02083 2.95834,3.9375 6.89584,11.85418 2.22917,-4.93751 2.70834,-5.95834 1.47916,-3.10417 2.89583,-5.45834 0.89584,-1.5 2.45834,-1.5 1.16666,0 2.08333,0.79167 0.91667,0.79166 0.91667,1.9375 0,0.60417 -0.35417,1.33333 z"
         id="path1622"
         style="display:inline"
         inkscape:label="y" />
      <path
         d="m 313.27621,221.24624 q -0.41666,1.52083 -0.41666,2.64583 0,0.58334 -0.125,1.8125 -0.10417,1.20834 -0.10417,1.79167 0,1.97917 -0.20833,5.87501 -0.20834,3.89583 -0.20834,5.875 0,1.52084 0.22917,4.54167 0.22917,3.02084 0.22917,4.54167 0,1.14584 -0.81251,1.9375 -0.8125,0.79167 -2.02083,0.79167 -1.22917,0 -2.125,-0.79167 -0.89584,-0.77083 -0.89584,-1.89583 0,-1.52084 -0.14583,-4.5625 -0.125,-3.04167 -0.125,-4.56251 0,-1.1875 0.0417,-2.10417 -3.27084,0.14584 -8.08334,1.02084 -4,0.72916 -8.00001,1.47917 -0.0417,1.41666 -0.29166,4.72917 -0.20834,2.91666 -0.20834,4.77083 0,1.14584 -0.8125,1.9375 -0.8125,0.79167 -2.02083,0.79167 -1.20834,0 -2.02084,-0.79167 -0.8125,-0.79166 -0.8125,-1.9375 0,-2.10417 0.35417,-6.29167 0.375,-4.1875 0.375,-6.29167 0,-2.66667 0.125,-8.02084 0.125,-5.375 0.125,-8.04167 0,-1.14584 0.8125,-1.9375 0.8125,-0.79167 2.02083,-0.79167 1.20834,0 2.02084,0.79167 0.8125,0.79166 0.8125,1.9375 0,1.58333 -0.125,4.77083 -0.10417,3.16667 -0.10417,4.75001 0,0.52083 -0.14583,2 -0.125,1.375 -0.10417,2.10417 l 8.00001,-1.5 q 4.6875,-0.83334 8.08334,-0.95834 0.0833,-1.39583 0.27083,-7.5 0.0417,-1.60417 0.97917,-3.68751 1.16667,-2.5625 2.64583,-2.5625 1.10417,0 1.95834,0.72917 0.91667,0.79167 0.91667,1.97917 0,0.3125 -0.0833,0.625 z"
         id="path1624"
         style="display:inline"
         inkscape:label="H" />
      <path
         d="m 325.48456,251.37126 q -3.85417,0 -6.62501,-2.64583 -3.04167,-2.89584 -3.1875,-7.72918 -0.14583,-4.60417 2.52083,-8.20834 3.16667,-4.25 8.81251,-4.25 4.16667,0 6.62501,3.33334 2.20833,3 2.20833,7.4375 0,4.83334 -2.58333,8.25001 -2.89584,3.8125 -7.77084,3.8125 z m 1.25,-17.33335 q -2.56251,-0.0208 -4.04167,2.33334 -1.25,1.97917 -1.25,4.625 0,2.5 1.41666,3.83334 1.125,1.0625 2.62501,1.0625 1.8125,0 3.14583,-1.22917 1.52084,-1.4375 1.625,-3.89583 0.27084,-6.70834 -3.52083,-6.72918 z"
         id="path1626"
         inkscape:label="o" />
      <path
         d="m 347.92207,251.37126 q -3.85417,0 -6.625,-2.64583 -3.04167,-2.89584 -3.18751,-7.72918 -0.14583,-4.60417 2.52084,-8.20834 3.16667,-4.25 8.81251,-4.25 4.16667,0 6.625,3.33334 2.20834,3 2.20834,7.4375 0,4.83334 -2.58334,8.25001 -2.89584,3.8125 -7.77084,3.8125 z m 1.25,-17.33335 q -2.5625,-0.0208 -4.04167,2.33334 -1.25,1.97917 -1.25,4.625 0,2.5 1.41667,3.83334 1.125,1.0625 2.625,1.0625 1.8125,0 3.14584,-1.22917 1.52083,-1.4375 1.625,-3.89583 0.27083,-6.70834 -3.52084,-6.72918 z"
         id="path1628"
         inkscape:label="o" />
      <path
         d="m 377.02626,229.20458 q 0.27083,-7.10417 0.64583,-9.81251 0.35417,-2.45834 2.70834,-2.45834 1.22916,0 1.97917,0.79167 0.75,0.79167 0.75,1.9375 0,3.02084 -0.47917,9.00001 -0.45833,5.97917 -0.45833,9.00001 0,7.375 0.47916,9.875 0.0625,0.33334 0.0625,0.60417 0,1.14584 -0.83333,1.89584 -0.83334,0.72916 -1.9375,0.72916 -1.54167,0 -2.29167,-1.375 -1.41667,0.85417 -2.9375,1.27084 -1.52084,0.4375 -3.14584,0.4375 -4.66667,0 -7.75001,-2.97917 -3.14583,-3.04167 -3.14583,-7.75001 0,-5.60417 3.16667,-9.04167 3.16667,-3.45834 8.27084,-3.45834 1.5625,0 2.79167,0.33334 1.22916,0.33333 2.125,1 z m -0.41667,6.5625 q -0.6875,-1.3125 -1.79167,-1.95833 -1.10416,-0.64584 -2.625,-0.64584 -3.08333,0 -4.625,1.79167 -1.54167,1.77084 -1.54167,5.33334 0,2.25 1.66667,3.85417 1.66667,1.60417 3.875,1.60417 1.60417,0 2.4375,-0.375 0.5625,-0.25 1.91667,-1.33334 0.35417,-0.29167 0.6875,-0.64583 -0.0417,-1 0,-7.62501 z"
         id="path1630"
         inkscape:label="d" />
    </g>
  </g>
</svg>
