<?xml version="1.0" encoding="UTF-8" standalone="no"?>
<!-- Created with Inkscape (http://www.inkscape.org/) -->
<svg xmlns:inkscape="http://www.inkscape.org/namespaces/inkscape"
	xmlns:rdf="http://www.w3.org/1999/02/22-rdf-syntax-ns#" xmlns="http://www.w3.org/2000/svg"
	xmlns:cc="http://creativecommons.org/ns#" xmlns:dc="http://purl.org/dc/elements/1.1/"
	xmlns:sodipodi="http://sodipodi.sourceforge.net/DTD/sodipodi-0.dtd" xmlns:svg="http://www.w3.org/2000/svg"
	xmlns:ns1="http://sozi.baierouge.fr" xmlns:xlink="http://www.w3.org/1999/xlink" id="svg2"
	sodipodi:docname="Inklusion_Logo.svg" viewBox="0 0 164.63 162.27" version="1.1" inkscape:version="0.48.3.1 r9886">
	<sodipodi:namedview id="base" fit-margin-left="0" inkscape:zoom="0.98994949" borderopacity="1.0"
		inkscape:current-layer="layer1" inkscape:cx="324.93604" inkscape:cy="-9.0232571" inkscape:window-maximized="1"
		showgrid="false" fit-margin-right="0" showguides="true" bordercolor="#666666" inkscape:window-x="65"
		inkscape:guide-bbox="true" inkscape:window-y="24" fit-margin-bottom="0" inkscape:window-width="1855"
		inkscape:pageopacity="0.0" inkscape:pageshadow="2" pagecolor="#ffffff" inkscape:document-units="px"
		inkscape:window-height="1056" fit-margin-top="0" />
	<g id="layer1" inkscape:label="Ebene 1" inkscape:groupmode="layer" transform="translate(-132.35 -87.779)">
		<g id="g3103">
			<path id="path18118-5-8" style="fill-rule:evenodd;fill:#ffffff" inkscape:connector-curvature="0"
				d="m265.38 170.82 2.4035 0.40232c-0.30968 0.88145-0.79673 1.5538-1.4691 2.017-0.66176 0.45791-1.4929 0.68557-2.4961 0.68557-1.5882 0-2.7608-0.5162-3.5205-1.5512-0.60085-0.82852-0.89996-1.8767-0.89996-3.142 0-1.5114 0.39172-2.692 1.1832-3.5443 0.79144-0.85763 1.7894-1.2864 2.9938-1.2864 1.3606 0 2.4299 0.44995 3.2108 1.3473 0.78615 0.892 1.1594 2.2632 1.1276 4.1108h-6.0431c0.0158 0.71734 0.21169 1.2732 0.58502 1.6729 0.37321 0.39443 0.83115 0.59296 1.3897 0.59296 0.3785 0 0.69352-0.10326 0.95029-0.30971 0.25673-0.20651 0.45528-0.53734 0.58497-0.99523zm0.14038-2.4379c-0.0203-0.69617-0.20112-1.2256-0.54263-1.5882-0.34148-0.3653-0.7597-0.55058-1.252-0.55058-0.52675 0-0.96088 0.19055-1.3076 0.57436-0.34145 0.38387-0.51084 0.90266-0.50554 1.5618h3.6078v0.002z" />
			<path id="path2830-6-5-6-9-2-0-8-8-4-7-6" sodipodi:nodetypes="ccccccscccssccscccsscc"
				style="stroke:#242d23;stroke-width:1.4482;fill:#e9c6af" inkscape:connector-curvature="0"
				d="m244.26 210.05c11.465-8.0221 22.485-28.409 16.442-45.916-1.1169-5.1649-3.9957-10.366-3.5627-15.61l4.5628-13.056 2.7526-4.4152c5.1304-4.3725 10.771-5.9997 11.554 0.57943 0.1392 0.87509 1.3873 2.2676 1.3873 2.2676 0.50861 0.83129 1.9328-0.26833 2.9059-0.32166 2.1269-0.18036 4.7503-0.21839 5.665 1.964 0.3702 1.0109-0.33469 3.2122-0.33469 3.2122s-0.18676 0.68472 0.0334 0.87767c0.15896 0.13906 0.63063-0.0592 0.63063-0.0592 0.72111-0.0677 1.2464-0.86985 1.969-0.91882 6.636 0.30155 3.7807 4.0021 3.1657 5.5751 0.37796 0.32246 1.4825 0.15446 1.4825 0.15446 1.823 0.18995 2.7701 0.28901 3.1426 2.2007 0.48776 1.4109-0.0207 2.9934-0.21631 4.4734l-2.8567 11.836-2.3532 4.6053c-1.4604 2.8579-4.3221 4.1993-5.7399 7.1449l-23.94 49.733z" />
			<path id="path2830-6-5-6-9-2-0-8-8-4-7" sodipodi:nodetypes="ccccccscccssccscccsscc"
				style="stroke:#242d23;stroke-width:1.4482;fill:#de8787" inkscape:connector-curvature="0"
				d="m193.03 213.69c11.826 7.4799 34.887 9.776 48.704-2.5557 4.3335-3.0241 8.0198-7.6872 13.025-9.3123l13.805-0.83058 5.1355 0.83495c6.014 3.045 9.6925 7.6205 3.9254 10.882-0.75353 0.4662-1.5564 2.1551-1.5564 2.1551-0.57053 0.79007 0.99361 1.6794 1.4184 2.5565 0.9874 1.8925 2.0351 4.2978 0.37498 5.9841-0.78962 0.7317-3.0924 0.93117-3.0924 0.93117s-0.70375 0.092-0.79674 0.36963c-0.0669 0.20032 0.298 0.55892 0.298 0.55892 0.3408 0.63909 1.2836 0.81402 1.6077 1.4617 2.2834 6.2381-2.2326 5.0325-3.921 5.0724-0.15157 0.47314 0.42978 1.4272 0.42978 1.4272 0.52846 1.755 0.80268 2.667-0.8171 3.7486-1.1133 0.99459-2.7694 1.1364-4.2102 1.5272l-12.022 1.9337-5.1568-0.39317c-3.2002-0.24401-5.5422-2.3661-8.8068-2.537l-55.12-2.887z" />
			<path id="path2830-6-5-6-9-2-0-8-8-4" sodipodi:nodetypes="ccccccscccssccscccsscc"
				style="stroke:#242d23;stroke-width:1.4482;fill:#502d16" inkscape:connector-curvature="0"
				d="m169.59 165.37c-2.8738 13.695 3.0366 36.103 19.42 44.737 4.3482 3.0029 10.006 4.8265 13.278 8.948l5.6043 12.644 1.013 5.1034c-0.75046 6.699-3.7514 11.745-8.8234 7.482-0.70021-0.543-2.5632-0.70479-2.5632-0.70479-0.93967-0.25834-1.2261 1.518-1.8993 2.2226-1.4279 1.5867-3.3152 3.4091-5.4754 2.4432-0.96156-0.48402-1.9535-2.5718-1.9535-2.5718s-0.33225-0.62717-0.62484-0.61725c-0.21106 0.007-0.41946 0.47459-0.41946 0.47459-0.47964 0.5427-0.31397 1.4871-0.80751 2.0172-5.0463 4.32-5.4955-0.33238-6.1231-1.9004-0.49626 0.0236-1.187 0.90161-1.187 0.90161-1.4596 1.1086-2.2181 1.6844-3.7977 0.54489-1.321-0.69537-2.0328-2.1974-2.9026-3.4106l-6.0143-10.587-1.4343-4.9688c-0.89011-3.0835 0.27939-6.0196-0.70173-9.138l-16.564-52.651z" />
			<path id="path2830-6-5-6-9-2-0-8-8" sodipodi:nodetypes="ccccccscccssccscccsscc"
				style="stroke:#242d23;stroke-width:1.4482;fill:#d4aa00" inkscape:connector-curvature="0"
				d="m208.88 127.62c-13.895 1.6521-33.241 14.412-36.188 32.696-1.4563 5.0797-1.3768 11.023-4.2368 15.441l-10.191 9.3502-4.5123 2.5904c-6.5877 1.4292-12.328 0.19765-9.9089-5.9705 0.29084-0.837-0.15105-2.654-0.15105-2.654-0.0554-0.97296-1.8302-0.67685-2.713-1.0897-1.9597-0.84612-4.2897-2.0523-4.0646-4.4079 0.15144-1.0658 1.8129-2.6728 1.8129-2.6728s0.48816-0.51521 0.38528-0.78929c-0.0744-0.19764-0.58373-0.24586-0.58373-0.24586-0.6675-0.28111-1.5095 0.17761-2.1695-0.12071-5.7058-3.4016-1.4408-5.3136-0.15547-6.4093-0.18092-0.46272-1.2336-0.8367-1.2336-0.8367-1.5169-1.0289-2.3048-1.5637-1.7297-3.4246 0.23687-1.4739 1.4328-2.6283 2.3045-3.8402l8.1109-9.0816 4.2502-2.9467c2.6376-1.8286 5.7934-1.6585 8.4349-3.5845l44.6-32.517z" />
			<path id="path2830-6-5-6-9-2-0-8-8-4-7-6-9" sodipodi:nodetypes="ccccccscccssccscccssccc"
				style="stroke:#242d23;stroke-width:1.4482;fill:#c87137" inkscape:connector-curvature="0"
				d="m256.79 152.75c-3.9608-13.421-18.272-25.299-36.791-25.136-5.252-0.58306-11.098 0.49291-15.933-1.585l-10.928-8.4768-3.311-4.0135c-2.5146-6.2543-2.264-12.12 4.2227-10.77 0.87394 0.14623 2.591-0.59437 2.591-0.59437 0.94986-0.21793 0.36007-1.9178 0.61888-2.8574 0.5052-2.0739 1.3032-4.5733 3.6631-4.7467 1.0761-0.0296 2.9391 1.3386 2.9391 1.3386s0.58982 0.39476 0.84276 0.24737c0.18238-0.1065 0.14436-0.61673 0.14436-0.61673 0.16507-0.70522-0.42846-1.4583-0.24515-2.159 2.3956-6.1958 4.9965-2.3122 6.2923-1.229 0.42589-0.25583 0.61778-1.3565 0.61778-1.3565 0.75967-1.668 1.1547-2.5345 3.0857-2.2799 1.4928-0.0139 2.8315 0.97129 4.1725 1.6273l10.314 6.4716 3.6182 3.6953c2.2454 2.2932 2.6073 5.4329 4.9494 7.7136l15.133 14.738 11.529 7.3562c-4.7369 5.882-6.0353 13.386-7.5263 22.634z" />
		</g>
	</g>
	<metadata>
		<rdf:RDF>
			<cc:Work>
				<dc:format>image/svg+xml</dc:format>
				<dc:type rdf:resource="http://purl.org/dc/dcmitype/StillImage" />
				<cc:license rdf:resource="http://creativecommons.org/licenses/publicdomain/" />
				<dc:publisher>
					<cc:Agent rdf:about="http://openclipart.org/">
						<dc:title>Openclipart</dc:title>
					</cc:Agent>
				</dc:publisher>
				<dc:title>circle of hands</dc:title>
				<dc:date>2012-06-25T17:07:10</dc:date>
				<dc:description>A circle of 5 Hands</dc:description>
				<dc:source>https://openclipart.org/detail/170906/circle-of-hands-by-tavin-170906</dc:source>
				<dc:creator>
					<cc:Agent>
						<dc:title>Tavin</dc:title>
					</cc:Agent>
				</dc:creator>
				<dc:subject>
					<rdf:Bag>
						<rdf:li>freund</rdf:li>
						<rdf:li>friend</rdf:li>
						<rdf:li>friendship</rdf:li>
						<rdf:li>hand</rdf:li>
						<rdf:li>hands</rdf:li>
						<rdf:li>help</rdf:li>
						<rdf:li>inclusion</rdf:li>
						<rdf:li>together</rdf:li>
					</rdf:Bag>
				</dc:subject>
			</cc:Work>
			<cc:License rdf:about="http://creativecommons.org/licenses/publicdomain/">
				<cc:permits rdf:resource="http://creativecommons.org/ns#Reproduction" />
				<cc:permits rdf:resource="http://creativecommons.org/ns#Distribution" />
				<cc:permits rdf:resource="http://creativecommons.org/ns#DerivativeWorks" />
			</cc:License>
		</rdf:RDF>
	</metadata>
</svg>